<?xml version="1.0" encoding="utf-8"?>
<!-- Generator: Adobe Illustrator 19.1.0, SVG Export Plug-In . SVG Version: 6.00 Build 0)  -->
<svg version="1.1" id="Layer_1" xmlns="http://www.w3.org/2000/svg" xmlns:xlink="http://www.w3.org/1999/xlink" x="0px" y="0px"
	 viewBox="0 0 100 100" style="enable-background:new 0 0 100 100;" xml:space="preserve">
<style type="text/css">
	.st0{fill:#B4B6B9;}
	.st1{fill:#E1E3E4;}
	.st2{fill:#CACCCE;}
	.st3{fill:#ABABAB;}
	.st4{fill:#C9C9C9;}
	.st5{fill:#5E5D62;}
	.st6{fill:#D6D8DA;}
	.st7{fill:#39373A;}
	.st8{fill:#535156;}
	.st9{fill:#68676C;}
	.st10{fill:#77767A;}
	.st11{fill:#636267;}
	.st12{fill:#4E4C51;}
	.st13{fill:#1B1C20;}
	.st14{fill:#7C7B7F;}
	.st15{fill:#100018;}
	.st16{opacity:0.61;}
	.st17{fill:#CFD0E8;}
	.st18{opacity:0.38;}
	.st19{fill:#FFFFFF;}
	.st20{opacity:0.21;}
	.st21{opacity:0.75;}
	.st22{fill:#B6B8BB;}
	.st23{fill:#A3A3A7;}
	.st24{fill:#C7CACC;}
	.st25{fill:#C5C7CA;}
	.st26{fill:#6A696E;}
</style>
<g>
	<g>
		<path class="st0" d="M47.2,22.2v-1.4c0-1.5,1-2.9,2.5-3.2L69,12.8c4.2-1,8.6-0.8,12.7,0.6l15.2,5.2c1.1,0.4,1.8,1.5,1.7,2.6
			l-0.2,2.7c-0.2,2-1.5,3.7-3.3,4.5c-3.3,1.3-8.8,3.2-14.4,3.8C72,33,61.9,29.7,61.9,29.7l-12.2-4.1C48.2,25.1,47.2,23.7,47.2,22.2z
			"/>
	</g>
	<g>
		<path class="st1" d="M74.8,12.2c-2,0-3.9,0.2-5.8,0.6l-19.3,4.7c-1.5,0.4-2.5,1.7-2.5,3.2v1.4c0,0.4,0.1,0.7,0.2,1.1
			c3.8,0,14.9-0.5,25.3-4.5c0.7-0.3,1.3-0.4,2-0.5C74.9,16.2,74.9,14.2,74.8,12.2z"/>
	</g>
	<g>
		<path class="st2" d="M96.9,18.6l-15.2-5.2c-2.2-0.8-4.6-1.2-6.9-1.2c0,2,0,4-0.2,6c1-0.1,2.1-0.1,3.1,0.1
			c5.1,1.2,15.8,3.9,20.2,7.4c0.2-0.5,0.4-1.1,0.5-1.7l0.2-2.7C98.8,20.1,98,19,96.9,18.6z"/>
	</g>
	<g>
		<path class="st2" d="M64.7,27.9c0.1-1.4,1-2.5,2.4-2.8c1.3-0.3,3.4-0.6,6.8-0.6c0,0,3.4,0.1,6,1.2c1.2,0.5,2,1.8,1.9,3.1
			l-1.7,23.5c0,0-1,4.2-3.7,4.2c-2.7,0-13.7-0.7-13.7-0.7L64.7,27.9z"/>
	</g>
	<g>
		<g>
			<path class="st3" d="M64.7,27.9c0,0,0-0.1,0-0.2c0-0.2,0-0.4,0.1-0.7c0.1-0.3,0.2-0.6,0.4-1c0.2-0.4,0.6-0.7,1.1-1
				c0.2-0.1,0.5-0.3,0.8-0.3c0.2-0.1,0.5-0.2,0.8-0.2c0.6-0.1,1.2-0.2,1.8-0.3c1.2-0.2,2.6-0.2,3.9-0.3c0.7,0,1.4,0.1,2,0.2
				c0.6,0.1,1.3,0.2,1.9,0.4c0.6,0.1,1.2,0.3,1.7,0.5c0.5,0.2,1,0.4,1.5,0.8c0.4,0.3,0.7,0.7,0.9,1.1c0.2,0.4,0.3,0.8,0.3,1
				c0,0.3,0,0.5,0,0.7c0,0.2,0,0.2,0,0.2s0-0.1,0-0.2c0-0.2-0.1-0.4-0.2-0.6c-0.1-0.3-0.2-0.6-0.5-0.9c-0.2-0.3-0.5-0.6-0.9-0.8
				c-0.1-0.1-0.2-0.1-0.3-0.1c0,0-0.1,0-0.2-0.1c0,0-0.1,0-0.1,0l-0.1,0c-0.2-0.1-0.5-0.2-0.8-0.2c-0.5-0.1-1.1-0.2-1.7-0.3
				c-0.6-0.1-1.2-0.2-1.8-0.2c-0.6-0.1-1.3-0.1-1.9-0.1c-1.3,0-2.6,0-3.8,0.1c-0.6,0-1.2,0.1-1.7,0.1c-0.3,0-0.5,0.1-0.8,0.1
				c-0.2,0-0.4,0.1-0.7,0.2c-0.4,0.2-0.7,0.4-1,0.7c-0.3,0.3-0.4,0.5-0.6,0.8c-0.1,0.2-0.2,0.5-0.2,0.6
				C64.7,27.8,64.7,27.9,64.7,27.9z"/>
		</g>
	</g>
	<g>
		<path class="st4" d="M79.8,25.7c-0.9-0.4-1.9-0.6-2.9-0.8c0.9,0.6,1.5,1.7,1.4,2.8l-1.7,23.5c0,0-1,4.2-3.7,4.2
			c-1.7,0-6.8-0.3-10.2-0.5l-0.1,0.9c0,0,11,0.7,13.7,0.7c2.7,0,3.7-4.2,3.7-4.2l1.7-23.5C81.8,27.4,81.1,26.2,79.8,25.7z"/>
	</g>
	<g>
		
			<ellipse transform="matrix(0.9999 1.083313e-002 -1.083313e-002 0.9999 0.2242 -0.8193)" class="st5" cx="75.7" cy="20.3" rx="2.6" ry="1"/>
	</g>
	<g>
		
			<ellipse transform="matrix(0.9999 1.083015e-002 -1.083015e-002 0.9999 0.2943 -1.0125)" class="st5" cx="93.6" cy="26.7" rx="2.5" ry="1"/>
	</g>
	<g>
		<ellipse transform="matrix(0.9675 0.2527 -0.2527 0.9675 8.0049 -12.6299)" class="st5" cx="53.2" cy="24.8" rx="2.6" ry="0.7"/>
	</g>
	<g>
		<path class="st6" d="M11.8,63.5c0,0-5.9-2-9.2-4.8c-1.8-1.5-1.8-4.3,0.7-5.1c0,0,26.5-9.8,38.4-13.6s21.4-5.8,24.9-5.8
			c3.4,0,5.9,1.2,7.2,3.2c1.3,1.9,6,21.6,6,21.6s1.3,4.5-2.3,6.2c-3.6,1.7-40.4,20.4-40.4,20.4L11.8,63.5z"/>
	</g>
	<g>
		<path class="st7" d="M76.4,50.7c0,0,0,0-8,3.7c-6.4,2.9-13.5,5.5-21.2,5.5c-7.7,0-12.6-5.3-16-6.8c-3.5-1.5-7.3-1.6-7.3-1.6
			S4.4,53.7,3.5,55c-1.6,2.2,2.4,5.9,2.4,5.9c2.9,1.6,5.9,2.6,5.9,2.6l25.3,22.1c0,0,6.2-3.2,13.7-7c1.7-1.3,7.4-10.5,9.6-12.7
			c2.4-2.4,17-9.8,17-9.8L76.4,50.7z"/>
	</g>
	<g>
		<path class="st8" d="M9.3,53.4c4.1-0.7,10.4-2.1,15.4-3.3c4.6-1.1,9.3,1.6,10.6,6.1l6.1,20.9c1.2,4.1-1.5,8.3-5.7,8.8l-13.8,1.8
			c-4.6,0.7-9-2.3-10.2-6.8L6.1,58.4C5.5,56.1,7,53.8,9.3,53.4z"/>
	</g>
	<g>
		<g>
			<path class="st9" d="M42.9,53.3c0,0,0.1,0.4,0.4,1.1c0.2,0.7,0.6,1.7,1,2.9c0.4,1.2,0.9,2.6,1.3,4.2c0.2,0.8,0.5,1.6,0.7,2.4
				c0.2,0.8,0.5,1.6,0.7,2.4c0.2,0.8,0.5,1.6,0.7,2.4c0.2,0.8,0.4,1.6,0.7,2.4c0.2,0.8,0.4,1.5,0.6,2.2c0,0.2,0.1,0.4,0.1,0.5
				c0,0.1,0,0.2,0.1,0.3c0,0.1,0,0.2,0.1,0.3c0.1,0.4,0.1,0.7,0.1,1c0.1,1.3-0.2,2.4-0.5,3.1c-0.1,0.4-0.3,0.6-0.4,0.8
				c-0.1,0.2-0.2,0.3-0.2,0.3c0,0.1-0.1,0.1-0.2,0c-0.1,0-0.1-0.1,0-0.2c0,0,0-0.1,0.1-0.3c0.1-0.2,0.2-0.4,0.3-0.8
				c0.2-0.7,0.4-1.7,0.2-2.9c0-0.3-0.1-0.6-0.2-0.9c0-0.1,0-0.2-0.1-0.3c0-0.1-0.1-0.2-0.1-0.2c-0.1-0.2-0.1-0.3-0.2-0.5
				c-0.2-0.7-0.5-1.4-0.7-2.2c-0.2-0.8-0.5-1.6-0.7-2.4c-0.2-0.8-0.5-1.6-0.7-2.4c-0.2-0.8-0.5-1.6-0.7-2.4
				c-0.2-0.8-0.4-1.6-0.7-2.4c-0.4-1.5-0.8-3-1.1-4.2c-0.3-1.2-0.6-2.3-0.7-3c-0.2-0.7-0.3-1.1-0.3-1.1c0-0.1,0-0.2,0.1-0.2
				C42.8,53.2,42.9,53.3,42.9,53.3z"/>
		</g>
	</g>
	<g>
		<path class="st10" d="M12.4,56.3c3-1.3,8.1-1.7,12.1-2.7c6.2-1.5,11.1,10.7,11.7,12.6c0.7,2.3,4.1,15.1-3.1,16.6l-10.8,1.5
			c-5.5,0.5-10.6-12-11.2-14C9.6,65.4,9.7,57.5,12.4,56.3z"/>
	</g>
	<g>
		<g>
			<path class="st5" d="M32.3,83c0,0-2.7,0.5-6.7,1.2c-0.5,0.1-1,0.2-1.6,0.3c-0.3,0-0.5,0.1-0.8,0.1c-0.1,0-0.3,0-0.4,0.1l-0.2,0
				l-0.1,0l-0.1,0c0,0-0.1,0-0.1,0l0,0c-0.1,0-0.3,0-0.4,0c-0.2,0-0.4,0-0.5,0c-0.2,0-0.3-0.1-0.5-0.1c-0.2,0-0.3-0.1-0.5-0.2
				c-0.6-0.2-1.2-0.6-1.8-1c-1.1-0.8-2-1.8-2.8-2.9c-0.8-1.1-1.6-2.3-2.2-3.5c-0.7-1.2-1.3-2.5-1.8-3.7c-0.3-0.6-0.5-1.2-0.8-1.9
				c-0.2-0.6-0.4-1.3-0.6-1.9C10,68.3,9.8,67,9.8,65.8c-0.1-1.2-0.1-2.3,0-3.4c0.1-1,0.2-2,0.4-2.8c0.2-0.8,0.5-1.5,0.8-2.1
				c0.3-0.6,0.7-0.9,0.9-1.1c0.1-0.1,0.1-0.1,0.2-0.1c0.1,0,0.1-0.1,0.1-0.1c0.1,0,0.1-0.1,0.1-0.1c0.1,0,0.2,0,0.2,0.1
				c0,0.1,0,0.2-0.1,0.2l0,0c0,0,0,0-0.1,0.1c0,0-0.1,0-0.1,0.1c0,0-0.1,0.1-0.1,0.1c-0.2,0.2-0.5,0.6-0.7,1.1
				c-0.2,0.5-0.4,1.2-0.6,2c-0.1,0.8-0.2,1.7-0.2,2.7c0,1,0,2.1,0.2,3.2c0.1,1.1,0.3,2.3,0.6,3.5c0.2,0.6,0.3,1.2,0.6,1.8
				c0.2,0.6,0.5,1.2,0.8,1.8c0.5,1.2,1.1,2.4,1.8,3.6c0.6,1.2,1.3,2.3,2.1,3.4c0.8,1,1.6,2,2.6,2.8c0.5,0.4,1,0.7,1.5,0.9
				c0.1,0.1,0.3,0.1,0.4,0.1c0.1,0,0.3,0.1,0.4,0.1c0.1,0,0.2,0,0.4,0c0.1,0,0.3,0,0.4,0c1.1-0.1,2.2-0.3,3.2-0.4
				c4.1-0.5,6.8-0.7,6.8-0.7c0.1,0,0.2,0.1,0.2,0.2C32.5,82.9,32.4,83,32.3,83z"/>
		</g>
	</g>
	<g>
		<path class="st11" d="M14.3,55.6c0,0,0.2-0.1,0.5-0.2c0.3-0.1,0.8-0.3,1.4-0.4c1.2-0.3,3-0.7,5.1-1.2c0.5-0.1,1.1-0.2,1.6-0.4
			c0.6-0.1,1.2-0.3,1.8-0.4c0.2,0,0.3-0.1,0.5-0.1c0.2,0,0.4,0,0.5,0c0.4,0,0.7,0,1.1,0.1c0.7,0.1,1.4,0.4,2,0.8
			c1.2,0.8,2.3,1.8,3.2,2.9c0.9,1.1,1.7,2.4,2.4,3.6c0.7,1.3,1.3,2.6,1.9,3.9c0.3,0.7,0.5,1.3,0.7,2c0.2,0.7,0.3,1.4,0.5,2
			c0.3,1.3,0.5,2.6,0.6,3.9c0.1,1.2,0.1,2.4,0,3.5c-0.1,1.1-0.3,2.1-0.6,2.9c-0.3,0.9-0.7,1.5-1.1,2c-0.4,0.5-0.8,0.8-1.1,1
			c-0.3,0.2-0.4,0.3-0.4,0.3s0.1-0.1,0.4-0.3c0.2-0.2,0.6-0.6,0.9-1.1c0.3-0.5,0.6-1.2,0.8-2c0.2-0.8,0.3-1.8,0.3-2.8
			c0-1.1-0.1-2.2-0.2-3.4c-0.2-1.2-0.4-2.5-0.7-3.7c-0.2-0.6-0.3-1.3-0.5-1.9c-0.1-0.3-0.2-0.6-0.3-0.9c-0.1-0.3-0.2-0.6-0.4-1
			c-0.5-1.3-1.2-2.6-1.8-3.8c-0.7-1.2-1.4-2.4-2.3-3.5c-0.8-1.1-1.8-2-2.8-2.7c-1.1-0.7-2.2-1-3.3-0.8l-0.1,0l-0.1,0c0,0,0,0,0,0
			c0,0,0,0,0,0l-0.2,0c-0.2,0-0.3,0.1-0.4,0.1c-0.3,0.1-0.6,0.1-0.9,0.2c-0.6,0.1-1.1,0.2-1.7,0.3c-2.1,0.3-3.9,0.5-5.1,0.7
			c-0.6,0.1-1.1,0.2-1.4,0.2C14.5,55.6,14.3,55.6,14.3,55.6z"/>
	</g>
	<g>
		<g>
			<path class="st12" d="M30.7,66.1c1.8,4.6,0.5,9-2.6,11c-0.9,0.6-1.6,0.7-1.8,0.8c-3.3,1-6.2-2.3-8-6.9c-1.7-4.4-1.5-8.8,1.2-10.5
				c0.3-0.2,1.4-0.5,1.8-0.6C24.8,58.7,28.9,61.5,30.7,66.1z"/>
		</g>
		<g>
			<path class="st13" d="M29.4,66.7c1.8,4.6,0.7,9.6-2.7,11.1c-3.5,1.6-8-1.2-9.9-6.2c-1.9-5-0.5-10.1,3.1-11.3
				C23.4,59.1,27.6,62,29.4,66.7z"/>
		</g>
		<g>
			<path class="st14" d="M20,75.2c0,0-0.1,0-0.2-0.1c-0.1-0.1-0.3-0.2-0.5-0.4C19,74.3,18.5,73.8,18,73c-0.2-0.4-0.5-0.8-0.7-1.3
				c-0.1-0.1-0.1-0.2-0.2-0.4c0-0.1-0.1-0.2-0.1-0.4c-0.1-0.2-0.2-0.5-0.3-0.8c-0.1-0.3-0.2-0.6-0.2-0.8c0-0.1-0.1-0.3-0.1-0.4
				c0-0.1,0-0.3,0-0.4c0-0.1,0-0.3,0-0.4l0-0.5c0-0.3,0-0.6,0-0.9c0-0.3,0.1-0.6,0.1-0.9c0.1-0.3,0.1-0.6,0.2-0.9
				c0.1-0.1,0.1-0.3,0.2-0.4c0.1-0.1,0.1-0.3,0.2-0.4c0.1-0.3,0.3-0.5,0.4-0.8c0.1-0.1,0.2-0.2,0.3-0.3c0.1-0.1,0.2-0.2,0.3-0.3
				c0.2-0.2,0.4-0.4,0.6-0.5c0.1-0.1,0.2-0.2,0.3-0.2c0.1-0.1,0.2-0.1,0.3-0.2c0.2-0.1,0.4-0.2,0.7-0.3c0.4-0.2,0.8-0.2,1.2-0.2
				c0.4,0,0.7,0,0.9,0.1c0.3,0,0.5,0.1,0.6,0.1c0.1,0,0.2,0.1,0.2,0.1s-0.1,0-0.2,0c-0.1,0-0.3,0-0.6,0c-0.3,0-0.6,0-0.9,0.1
				c-0.3,0.1-0.7,0.1-1.1,0.3c-0.2,0.1-0.4,0.2-0.6,0.3c-0.1,0.1-0.2,0.1-0.3,0.2c-0.1,0.1-0.2,0.2-0.3,0.2c-0.4,0.3-0.7,0.7-1,1.1
				c-0.1,0.2-0.3,0.5-0.4,0.7c-0.1,0.1-0.1,0.2-0.2,0.4c0,0.1-0.1,0.3-0.1,0.4c-0.1,0.3-0.1,0.5-0.2,0.8c0,0.3-0.1,0.6-0.1,0.8
				c0,0.3-0.1,0.6,0,0.8l0,0.4c0,0.1,0,0.3,0,0.4c0,0.1,0,0.3,0,0.4c0,0.1,0,0.3,0.1,0.4c0,0.3,0.1,0.5,0.2,0.8
				c0.1,0.3,0.1,0.5,0.2,0.8c0,0.1,0.1,0.2,0.1,0.4c0,0.1,0.1,0.2,0.1,0.4c0.2,0.5,0.4,0.9,0.6,1.3c0.4,0.8,0.8,1.3,1.2,1.7
				C19.8,75,20,75.2,20,75.2z"/>
		</g>
		<g>
			<path class="st14" d="M24.7,62.2c0,0,0.1,0,0.2,0.1c0.1,0.1,0.4,0.2,0.6,0.4c0.5,0.3,1.2,0.9,1.8,1.7c0.3,0.4,0.6,0.9,0.9,1.4
				c0.1,0.3,0.3,0.5,0.4,0.8c0.1,0.3,0.2,0.6,0.3,0.9c0.2,0.6,0.4,1.3,0.4,2c0.1,0.3,0.1,0.7,0.1,1.1c0,0.4,0,0.7-0.1,1.1
				c-0.1,0.7-0.3,1.4-0.5,2.1c-0.3,0.7-0.6,1.3-1.1,1.8c-0.5,0.5-1,0.9-1.6,1.1l-0.1,0.1c0,0-0.1,0-0.1,0l-0.2,0.1
				c-0.1,0-0.3,0.1-0.4,0.1c-0.3,0.1-0.6,0.1-0.8,0.1c-1.1,0-1.9-0.3-2.5-0.5c-0.3-0.1-0.5-0.3-0.6-0.3c-0.1-0.1-0.2-0.1-0.2-0.1
				s0.1,0,0.2,0.1c0.1,0.1,0.4,0.2,0.6,0.3c0.6,0.2,1.4,0.4,2.4,0.3c0.2,0,0.5-0.1,0.8-0.2c0.1,0,0.2-0.1,0.4-0.1l0.2-0.1
				c0,0,0.1,0,0.1,0l0.1-0.1c0.5-0.2,1-0.6,1.4-1.1c0.1-0.1,0.2-0.2,0.3-0.4c0.1-0.1,0.2-0.3,0.3-0.4c0.1-0.3,0.3-0.6,0.4-0.9
				c0.2-0.6,0.4-1.2,0.5-1.9c0.1-0.3,0-0.7,0.1-1c0-0.3,0-0.7-0.1-1c-0.1-0.7-0.2-1.3-0.4-1.9c-0.1-0.3-0.2-0.6-0.3-0.9
				c-0.1-0.3-0.2-0.6-0.3-0.8c-0.3-0.5-0.5-1-0.8-1.4c-0.3-0.4-0.6-0.8-0.9-1.1c-0.3-0.3-0.5-0.6-0.8-0.8c-0.2-0.2-0.4-0.3-0.5-0.4
				C24.7,62.3,24.7,62.2,24.7,62.2z"/>
		</g>
		<g>
			<path class="st12" d="M26.9,67.6c1.1,2.9,0.3,6.1-1.9,7c-2.2,0.9-5-0.8-6.2-3.8c-1.2-3.1-0.3-6.2,2-7
				C23.1,62.9,25.8,64.7,26.9,67.6z"/>
		</g>
		<g>
			<path class="st15" d="M24.7,68.4c0.5,1.3,0.1,2.7-0.9,3.1c-1,0.4-2.3-0.4-2.8-1.7c-0.5-1.4-0.1-2.8,0.9-3.2
				C23,66.3,24.2,67.1,24.7,68.4z"/>
		</g>
		<g class="st16">
			<g>
				<path class="st17" d="M22.6,70.7c0,0-0.1,0-0.2-0.1c-0.1,0-0.3-0.1-0.4-0.3c-0.2-0.1-0.3-0.4-0.4-0.6c0-0.1-0.1-0.3-0.1-0.4
					c0-0.1,0-0.3,0-0.5c0-0.2,0-0.3,0.1-0.5c0-0.1,0.1-0.3,0.2-0.4c0.2-0.3,0.4-0.4,0.6-0.5c0.2-0.1,0.4-0.1,0.5-0.1
					c0.1,0,0.2,0.1,0.2,0.1s-0.1,0-0.2,0.1c-0.1,0-0.1,0.1-0.2,0.1c-0.1,0-0.1,0.1-0.2,0.2c-0.1,0.1-0.1,0.1-0.2,0.2
					c-0.1,0.1-0.1,0.2-0.1,0.3C22,68.5,22,68.7,22,68.9c0,0.1,0,0.2,0,0.3c0,0.1,0,0.2,0.1,0.3c0,0.2,0.1,0.4,0.2,0.6
					c0.1,0.2,0.2,0.3,0.2,0.4C22.6,70.7,22.6,70.7,22.6,70.7z"/>
			</g>
		</g>
		<g>
			<g>
				<path class="st12" d="M22.7,73.5c0,0,0,0-0.1,0c-0.1,0-0.2,0-0.3-0.1c-0.1,0-0.3-0.1-0.5-0.2c-0.2-0.1-0.4-0.2-0.6-0.4
					c-0.2-0.2-0.4-0.3-0.6-0.6c-0.2-0.2-0.4-0.5-0.6-0.7c-0.2-0.3-0.4-0.6-0.5-0.9l-0.1-0.1l0-0.1l-0.1-0.2
					c-0.1-0.2-0.1-0.3-0.2-0.5c0-0.2-0.1-0.4-0.1-0.5c0-0.2,0-0.4,0-0.5c0-0.4,0-0.7,0.1-1c0-0.3,0.1-0.6,0.3-0.9
					c0.1-0.1,0.1-0.3,0.2-0.4c0.1-0.1,0.1-0.2,0.2-0.4c0.1-0.1,0.2-0.2,0.2-0.3c0.1-0.1,0.2-0.2,0.3-0.2c0.1-0.1,0.2-0.1,0.2-0.2
					c0.1-0.1,0.2-0.1,0.2-0.1c0.1-0.1,0.3-0.1,0.3-0.1c0.1,0,0.1,0,0.1,0s0,0-0.1,0.1c-0.1,0.1-0.2,0.1-0.3,0.2
					c-0.1,0.1-0.2,0.2-0.3,0.4c-0.1,0.2-0.2,0.3-0.3,0.6c0,0.1-0.1,0.2-0.1,0.3c0,0.1-0.1,0.2-0.1,0.4c-0.1,0.3-0.1,0.5-0.1,0.8
					c0,0.3,0,0.6,0,0.9c0,0.2,0,0.3,0.1,0.5c0,0.2,0.1,0.3,0.1,0.5c0,0.2,0.1,0.3,0.1,0.4l0.1,0.2l0,0.1l0,0.1
					c0.1,0.3,0.2,0.6,0.4,0.8c0.1,0.3,0.3,0.5,0.5,0.7c0.2,0.2,0.3,0.4,0.5,0.6c0.3,0.4,0.7,0.6,0.9,0.8c0.1,0.1,0.2,0.1,0.3,0.2
					C22.7,73.5,22.7,73.5,22.7,73.5z"/>
			</g>
		</g>
		<g>
			<g>
				<path class="st12" d="M21.9,64.6c0,0,0.1,0,0.2,0c0.1,0,0.2,0,0.4,0c0.1,0,0.2,0,0.3,0c0.1,0,0.2,0,0.4,0.1
					c0.3,0.1,0.6,0.2,0.8,0.3c0.3,0.2,0.6,0.4,0.9,0.6c0.3,0.3,0.6,0.6,0.8,0.9c0.2,0.3,0.5,0.7,0.6,1.1c0.1,0.2,0.2,0.4,0.2,0.6
					c0.1,0.2,0.1,0.4,0.2,0.7c0.1,0.4,0.1,0.9,0.1,1.3c0,0.4-0.1,0.9-0.2,1.3c-0.1,0.4-0.3,0.8-0.6,1.1c-0.1,0.2-0.3,0.3-0.4,0.4
					c-0.2,0.1-0.3,0.2-0.4,0.3c-0.1,0.1-0.3,0.2-0.4,0.2c-0.1,0-0.1,0.1-0.2,0.1c-0.1,0-0.1,0-0.2,0c-0.3,0-0.5,0-0.7,0
					c-0.2,0-0.3-0.1-0.4-0.1c-0.1,0-0.1,0-0.1,0s0.2,0,0.6,0c0.2,0,0.4-0.1,0.6-0.2c0.1,0,0.1,0,0.2-0.1c0.1,0,0.1-0.1,0.2-0.1
					c0.1-0.1,0.2-0.1,0.3-0.2c0.5-0.4,0.8-1,1-1.7c0.1-0.4,0.1-0.7,0.1-1.1c0-0.4,0-0.8-0.1-1.2c0-0.2-0.1-0.4-0.1-0.6
					c-0.1-0.2-0.1-0.4-0.2-0.6c-0.1-0.4-0.3-0.7-0.5-1c-0.4-0.6-0.9-1.2-1.3-1.5c-0.2-0.2-0.5-0.3-0.7-0.4c-0.1-0.1-0.2-0.1-0.3-0.1
					c-0.1,0-0.2-0.1-0.3-0.1c-0.2,0-0.3-0.1-0.4-0.1C22,64.6,21.9,64.6,21.9,64.6z"/>
			</g>
		</g>
		<g class="st18">
			<g>
				<path class="st19" d="M22.1,65.5c0,0,0,0,0.1,0c0.1,0,0.2,0,0.4,0c0.2,0,0.3,0,0.5,0.1c0.2,0.1,0.4,0.2,0.7,0.3
					c0.5,0.3,0.9,0.7,1.3,1.3c0.2,0.3,0.4,0.6,0.5,0.9c0.1,0.2,0.1,0.3,0.2,0.5c0,0.2,0.1,0.3,0.1,0.5c0.1,0.4,0.1,0.7,0.1,1.1
					c0,0.4-0.1,0.7-0.2,1c-0.1,0.3-0.2,0.6-0.4,0.9c-0.2,0.3-0.4,0.5-0.6,0.6c-0.1,0-0.1,0.1-0.2,0.1c-0.1,0-0.1,0.1-0.2,0.1
					c-0.1,0.1-0.2,0.1-0.3,0.1c-0.2,0-0.4,0-0.6,0c-0.2,0-0.3,0-0.4-0.1c-0.1,0-0.1,0-0.1,0s0.2,0,0.5,0c0.1,0,0.3,0,0.5-0.1
					c0.1,0,0.2-0.1,0.3-0.1c0,0,0.1-0.1,0.2-0.1c0,0,0.1-0.1,0.1-0.1c0.2-0.2,0.4-0.3,0.5-0.6c0.1-0.2,0.3-0.5,0.3-0.8
					c0.1-0.6,0.1-1.3,0-1.9c0-0.2-0.1-0.3-0.1-0.5c-0.1-0.2-0.1-0.3-0.2-0.5c-0.1-0.3-0.3-0.6-0.4-0.9c-0.3-0.5-0.7-1-1.1-1.3
					c-0.2-0.1-0.4-0.3-0.6-0.3c-0.2-0.1-0.4-0.1-0.5-0.2c-0.1,0-0.3,0-0.3,0C22.1,65.5,22.1,65.5,22.1,65.5z"/>
			</g>
		</g>
		<g class="st20">
			<g>
				<path class="st19" d="M22.4,60.1c0,0,0.1,0,0.3-0.1c0.2,0,0.4-0.1,0.7-0.1c0.1,0,0.3,0,0.5,0c0.2,0,0.3,0,0.5,0.1
					c0.2,0,0.4,0.1,0.5,0.2c0.2,0.1,0.4,0.2,0.5,0.3c0.2,0.1,0.3,0.2,0.5,0.3c0.2,0.1,0.3,0.2,0.4,0.4c0.1,0.1,0.2,0.3,0.4,0.4
					c0.1,0.1,0.2,0.3,0.3,0.4c0.2,0.2,0.3,0.5,0.3,0.6c0.1,0.2,0.1,0.2,0.1,0.2s-0.1-0.1-0.2-0.2c-0.1-0.1-0.3-0.3-0.5-0.4
					c-0.1-0.1-0.2-0.2-0.3-0.3c-0.1-0.1-0.3-0.2-0.4-0.3c-0.1-0.1-0.3-0.2-0.4-0.3c-0.1-0.1-0.3-0.2-0.4-0.3
					c-0.2-0.1-0.3-0.2-0.5-0.2c-0.2-0.1-0.3-0.2-0.5-0.2c-0.3-0.1-0.6-0.2-0.8-0.3C22.8,60.1,22.4,60.1,22.4,60.1z"/>
			</g>
		</g>
	</g>
	<g>
		<ellipse transform="matrix(0.9573 -0.2893 0.2893 0.9573 -18.0191 12.6283)" class="st13" cx="33.7" cy="67.3" rx="1" ry="1.6"/>
	</g>
	<g>
		<g>
			<path class="st6" d="M11.8,63.5C11.8,63.5,11.8,63.5,11.8,63.5C11.8,63.5,11.8,63.5,11.8,63.5z"/>
		</g>
		<g>
			<path class="st6" d="M79.8,58.9c0,0-4.7-19.7-6-21.6c-1.3-1.9-3.8-3.2-7.2-3.2c-3.4,0-12.9,1.9-24.9,5.8
				C29.8,43.8,3.3,53.6,3.3,53.6c-2.5,0.8-2.5,3.6-0.7,5.1c1.1,0.9,3.5,2.3,3.3,2.2c0,0-4-3.7-2.4-5.9c0.9-1.3,20.3-3.5,20.3-3.5
				s3.8,0.1,7.3,1.6c3.5,1.5,8.4,6.8,16,6.8c7.7,0,14.8-2.6,21.2-5.5c8-3.7,8-3.7,8-3.7l1.1,5.3c0,0-14.6,7.4-17,9.8
				c-2.2,2.2-8,11.4-9.6,12.7c-0.3,0.2,24.4-12.4,26.6-13.4C81.1,63.5,79.8,58.9,79.8,58.9z"/>
		</g>
	</g>
	<g class="st21">
		<g>
			<path class="st19" d="M77.5,56c0,0-0.1,0.1-0.3,0.2c-0.2,0.1-0.5,0.3-1,0.6c-0.8,0.5-2,1.2-3.5,2.1c-1.4,0.8-3.1,1.8-4.9,2.9
				c-0.9,0.5-1.8,1.1-2.8,1.6c-0.9,0.6-1.9,1.2-2.8,1.8c-0.4,0.3-0.9,0.6-1.3,1c0,0-0.1,0.1-0.1,0.1l-0.1,0.2l-0.3,0.3
				c-0.2,0.2-0.3,0.4-0.5,0.6c-0.7,0.8-1.3,1.7-2,2.5c-0.6,0.8-1.2,1.6-1.8,2.4c-0.6,0.8-1.1,1.5-1.6,2.1c-0.5,0.7-1,1.3-1.4,1.8
				c-0.4,0.5-0.8,1-1.2,1.3c-0.2,0.2-0.3,0.3-0.5,0.5c-0.1,0.1-0.2,0.2-0.4,0.3c-0.2,0.2-0.3,0.2-0.3,0.2s0.1-0.1,0.3-0.3
				c0.2-0.2,0.4-0.5,0.7-0.9c0.3-0.4,0.6-0.9,1-1.5c0.4-0.6,0.8-1.2,1.2-1.9c0.5-0.7,0.9-1.5,1.5-2.3c0.5-0.8,1.1-1.6,1.7-2.5
				c0.6-0.9,1.2-1.8,1.9-2.6c0.2-0.2,0.4-0.4,0.6-0.7l0.3-0.3l0.1-0.2c0.1-0.1,0.1-0.1,0.2-0.2c0.5-0.4,0.9-0.7,1.4-1.1
				c0.9-0.6,1.9-1.2,2.9-1.8c0.5-0.3,0.9-0.6,1.4-0.8c0.5-0.3,0.9-0.5,1.4-0.8c0.9-0.5,1.8-1,2.7-1.4c0.9-0.4,1.7-0.8,2.4-1.2
				c1.5-0.7,2.8-1.3,3.7-1.7C77,56.2,77.5,56,77.5,56z"/>
		</g>
	</g>
	<g>
		<path class="st6" d="M11.8,63.5C11.8,63.5,11.8,63.5,11.8,63.5C11.8,63.5,11.8,63.5,11.8,63.5z"/>
	</g>
	<g>
		<path class="st22" d="M79.8,58.9c0,0-4.7-19.7-6-21.6c-0.1-0.1-0.1-0.2-0.2-0.3L29.1,52.3c0.7,0.2,1.4,0.4,2.1,0.7
			c3.5,1.5,8.4,6.8,16,6.8c7.7,0,14.8-2.6,21.2-5.5c8-3.7,8-3.7,8-3.7l1.1,5.3c0,0-14.6,7.4-17,9.8c-2.2,2.2-8,11.4-9.6,12.7
			c-0.3,0.2,24.4-12.4,26.6-13.4C81.1,63.5,79.8,58.9,79.8,58.9z"/>
	</g>
	<g>
		<path class="st23" d="M49.1,39l-5.5,1.5c-0.7,0.2-1.5-0.2-1.7-1c-0.2-0.7,0.2-1.5,1-1.7l5.5-1.5c0.7-0.2,1.5,0.2,1.7,1
			C50.2,38,49.8,38.8,49.1,39z"/>
	</g>
	<g>
		<path class="st24" d="M50.4,38.9l-7.6,2.3c-0.2,0.1-0.4-0.1-0.5-0.2c-0.1-0.2,0.1-0.4,0.2-0.5l7.6-2.3c0.2-0.1,0.4,0.1,0.5,0.2
			C50.7,38.6,50.6,38.8,50.4,38.9z"/>
	</g>
	<g>
		<path class="st25" d="M50,37.3c-0.2-0.6-0.7-1-1.4-1c0.1,0.1,0.2,0.3,0.2,0.5c0.2,0.7-0.2,1.5-1,1.7L42.4,40c-0.1,0-0.2,0-0.3,0
			c0.3,0.4,0.9,0.6,1.5,0.5l5.5-1.5C49.8,38.8,50.2,38,50,37.3z"/>
	</g>
	<g class="st21">
		<g>
			<path class="st19" d="M5.2,59.9c0,0-0.2-0.1-0.5-0.3c-0.3-0.2-0.8-0.5-1.4-1c-0.3-0.2-0.6-0.5-0.8-0.9c-0.3-0.4-0.5-0.8-0.6-1.4
				c0-0.3,0-0.6,0.1-0.9c0.1-0.3,0.2-0.6,0.4-0.8l0.1-0.2l0.1-0.1c0.1-0.1,0.1-0.1,0.1-0.1c0.1-0.1,0.2-0.1,0.2-0.2
				C2.9,54,3,54,3,54c0.3-0.1,0.6-0.2,0.9-0.3c1.2-0.4,2.6-0.7,4-0.9c1.4-0.3,2.9-0.5,4.5-0.8c1.6-0.2,3.2-0.5,4.8-0.7
				c1.6-0.2,3.3-0.4,5-0.5c0.4,0,0.8-0.1,1.3-0.1c0.4,0,0.9,0,1.3,0c0.9,0.1,1.7,0.2,2.5,0.4c1.7,0.3,3.3,1,4.7,1.8
				c1.4,0.8,2.6,1.7,3.8,2.5c1.2,0.8,2.3,1.5,3.4,2.1c1.1,0.6,2.1,1,3.1,1.4c1,0.3,1.8,0.5,2.5,0.7c0.7,0.1,1.3,0.2,1.7,0.3
				c0.4,0,0.6,0.1,0.6,0.1s-0.2,0-0.6,0c-0.4,0-1,0-1.7-0.1c-1.5-0.2-3.6-0.6-5.9-1.7c-1.2-0.5-2.4-1.2-3.6-2
				c-1.2-0.8-2.5-1.6-3.9-2.3c-0.2-0.1-0.3-0.2-0.5-0.3c-0.2-0.1-0.3-0.2-0.5-0.2c-0.3-0.2-0.7-0.3-1.1-0.4
				c-0.7-0.3-1.5-0.5-2.3-0.6c-0.8-0.2-1.6-0.3-2.4-0.3c-0.4,0-0.8,0-1.2,0c-0.4,0-0.8,0-1.2,0.1c-1.7,0.1-3.3,0.3-5,0.5
				c-1.6,0.2-3.2,0.3-4.8,0.5c-1.6,0.2-3.1,0.4-4.5,0.6c-1.4,0.2-2.8,0.4-4,0.7c-0.3,0.1-0.6,0.2-0.8,0.3c-0.1,0-0.1,0.1-0.2,0.1
				C3,54.6,3,54.7,3,54.7c0,0-0.1,0.1-0.1,0l-0.1,0.1L2.7,55c-0.3,0.4-0.5,0.9-0.5,1.4c0,0.5,0.2,0.9,0.4,1.3
				c0.2,0.4,0.5,0.7,0.7,0.9c0.5,0.5,1,0.9,1.3,1.1C5,59.8,5.2,59.9,5.2,59.9z"/>
		</g>
	</g>
	<g>
		<g>
			<path class="st11" d="M79.4,31.7c-0.1,0.9-0.8,1.5-1.7,1.5c-0.9-0.1-1.5-0.8-1.4-1.7c0.1-0.9,0.8-1.5,1.7-1.5
				C78.8,30,79.4,30.8,79.4,31.7z"/>
		</g>
		<g>
			<path class="st26" d="M78.4,31.2l-0.2,0l0-0.2c0-0.2-0.1-0.4-0.3-0.4c-0.2,0-0.3,0.1-0.4,0.3l0,0.2l-0.2,0
				c-0.2,0-0.4,0.1-0.4,0.3c0,0.2,0.1,0.4,0.3,0.4l0.2,0l0,0.2c0,0.2,0.1,0.4,0.3,0.4c0.2,0,0.3-0.1,0.4-0.3l0-0.2l0.2,0
				c0.2,0,0.3-0.1,0.4-0.3C78.7,31.4,78.6,31.3,78.4,31.2z"/>
		</g>
	</g>
</g>
</svg>
