<?xml version="1.0" encoding="utf-8"?>
<!-- Generator: Adobe Illustrator 19.1.0, SVG Export Plug-In . SVG Version: 6.00 Build 0)  -->
<svg version="1.1" id="Layer_1" xmlns="http://www.w3.org/2000/svg" xmlns:xlink="http://www.w3.org/1999/xlink" x="0px" y="0px"
	 viewBox="0 0 100 100" style="enable-background:new 0 0 100 100;" xml:space="preserve">
<style type="text/css">
	.st0{fill:#D2D4D6;}
	.st1{fill:#DEDEDE;}
	.st2{fill:#79787D;}
	.st3{fill:#A3A3A7;}
	.st4{fill:#B4B6B9;}
	.st5{fill:#CCCED0;}
	.st6{fill:#B6B8BB;}
	.st7{fill:#DBDBDB;}
	.st8{fill:#BFC1C4;}
	.st9{fill:#CFCFCF;}
	.st10{fill:#88878B;}
	.st11{fill:#4A484C;}
	.st12{fill:#3E3B3F;}
	.st13{fill:#8A8A8A;}
	.st14{fill:#A1A1A5;}
	.st15{fill:#1B1C20;}
	.st16{fill:#969599;}
	.st17{fill:#59585D;}
	.st18{fill:#787878;}
	.st19{fill:#B3B3B3;}
	.st20{fill:#4E4159;}
	.st21{opacity:0.61;}
	.st22{fill:#CFD0E8;}
	.st23{fill:#4E4C51;}
	.st24{opacity:0.38;}
	.st25{fill:#FFFFFF;}
	.st26{fill:#F1F2F2;}
	.st27{fill:#A8A8A8;}
</style>
<g>
	<g>
		<path class="st0" d="M82.5,49.4l14.3,2.2c1.2,0.2,2.1,1.3,2.1,2.5l-0.6,28.8c0,0.7-0.7,1.2-1.3,1.1l-17.6-3.5
			c-0.5-0.1-0.8-0.5-1-0.9c-0.7-3.2-3.1-16.1,1.3-28.5C80.1,49.9,81.3,49.2,82.5,49.4z"/>
	</g>
	<g>
		<path class="st1" d="M98.3,82.9l0-0.2l-20-3.7c0,0.2,0.1,0.4,0.1,0.6c0.1,0.5,0.5,0.8,1,0.9L97,84C97.7,84.1,98.3,83.6,98.3,82.9z
			"/>
	</g>
	<g>
		<ellipse class="st2" cx="81.9" cy="77" rx="0.9" ry="1.3"/>
	</g>
	<g>
		<path class="st3" d="M63.8,77.5l0.7,4.7l22.8-7.5c3.4-0.7,4.4-5.3,4.4-5.3c0.1-1.4,0-2.6-0.4-3.5L63.8,77.5z"/>
	</g>
	<g>
		<path class="st4" d="M84.5,61.4c-1-0.1-2,0.1-2.9,0.5l-18.9,8.4l1.1,7.3L91.5,66C90.3,62.4,86.7,61.6,84.5,61.4z"/>
	</g>
	<g>
		<path class="st5" d="M53.7,70.7l0.4,9.6c0.1,2,1.5,3.8,3.4,4.3c1.1,0.3,2.6,0.5,4.5,0.5c1.1,0,2-0.1,2.7-0.3
			c2-0.4,3.5-2.2,3.6-4.2l0.7-9.9c0-0.5-0.2-1-0.7-1.2c-2-1.1-7.9-3.5-14.1,0C54,69.8,53.7,70.2,53.7,70.7z"/>
	</g>
	<g>
		<path class="st6" d="M68.5,69.5c-1.1-0.6-3.4-1.6-6.3-1.8c1.1,0.3,1.9,0.7,2.5,1c0.4,0.2,0.7,0.7,0.7,1.2l-0.7,9.9
			c-0.1,2-1.6,3.8-3.6,4.2c-0.7,0.2-1.6,0.3-2.7,0.3c-0.5,0-1,0-1.4,0c0.2,0.1,0.5,0.2,0.7,0.3c1.1,0.3,2.6,0.5,4.5,0.5
			c1.1,0,2-0.1,2.7-0.3c2-0.4,3.5-2.2,3.6-4.2l0.7-9.9C69.2,70.2,68.9,69.8,68.5,69.5z"/>
	</g>
	<g>
		<path class="st7" d="M54.7,70.1l-0.4-0.5c1.2-1,4.1-1.6,7.3-1.6c3.1,0,6,0.6,7.2,1.6L68.3,70c-1.1-0.9-3.8-1.4-6.8-1.4
			C58.5,68.6,55.8,69.2,54.7,70.1z"/>
	</g>
	<g>
		<path class="st8" d="M54,62.2l0.9,7.2c0.2,1.9,1.8,3.3,3.7,3.4l6,0.2c1.9,0.1,3.5-1.3,3.9-3.1l2.4-13.1L54,62.2z"/>
	</g>
	<g>
		<path class="st9" d="M67.2,57.9l-2.2,12c-0.3,1.5-1.5,2.7-3,3l2.4,0.1c1.9,0.1,3.5-1.3,3.9-3.1l2.4-13.1L67.2,57.9z"/>
	</g>
	<g>
		<ellipse class="st2" cx="91.5" cy="78.5" rx="0.9" ry="1.3"/>
	</g>
	<g>
		<ellipse class="st2" cx="82.9" cy="54.3" rx="0.9" ry="1.3"/>
	</g>
	<g>
		<ellipse class="st2" cx="92.5" cy="55.8" rx="0.9" ry="1.3"/>
	</g>
	<g>
		<path class="st10" d="M52.2,63.3c0.3,0,5.9,1.1,9,1.8c1.3,0.3,2.6,0,3.7-0.8l10.8-8.1c1-0.7,1.5-1.8,1.5-3l-0.1-6L52.2,63.3z"/>
	</g>
	<g>
		<path class="st0" d="M63.3,63.9v-9.1L50.7,63l11,2.2C62.6,65.3,63.3,64.7,63.3,63.9z"/>
	</g>
	<g>
		<path class="st11" d="M65.3,24.9L11,51.8c-0.9,0.5-2,0.3-2.8-0.4l-5.2-5c-1.1-1-1.7-2.3-2-3.8c-0.2-1.2,0.5-2.4,1.6-2.9l62.6-24.6
			V24.9z"/>
	</g>
	<g>
		<path class="st12" d="M83.5,33.3v8.9c0,1.9-1,3.8-2.6,4.8L41,73c-0.9,0.6-2,0.8-3.1,0.5l-15.8-4.1c-1.1-0.3-2.1-0.9-2.8-1.9
			l-3.1-4c-0.4-0.5-0.7-1-0.9-1.6l-5.2-15.5c-0.2-0.6-0.3-1.3-0.1-1.9l0.7-3.8l52.2-21.9l20.7,1.6V33.3z"/>
	</g>
	<g>
		<path class="st13" d="M38.9,73.6c-0.3,0-0.7,0-1-0.1l-15.8-4.1c-1.1-0.3-2.1-0.9-2.8-1.9l-3.1-4c-0.4-0.5-0.7-1-0.9-1.6l-5.2-15.5
			C9.9,45.7,9.8,45,10,44.4l0.7-3.6l0.7,0.1l-0.7,3.6c-0.1,0.5-0.1,1.1,0.1,1.6L16,61.7c0.2,0.5,0.4,1,0.8,1.4l3.1,4
			c0.6,0.8,1.5,1.4,2.4,1.6l15.8,4.1c0.9,0.2,1.8,0.1,2.5-0.4L41,73C40.4,73.4,39.7,73.6,38.9,73.6z"/>
	</g>
	<g>
		<path class="st13" d="M41,73l-0.4-0.6l39.9-25.9c1.4-0.9,2.3-2.5,2.3-4.2V20.9L63,19.4L11.1,41.2l-0.3-0.6l52-21.9l0.1,0l20.6,1.6
			v22c0,2-1,3.7-2.6,4.8L41,73z"/>
	</g>
	<g>
		<path class="st14" d="M15.6,39.8l1.9,20.5c0.1,0.8,0.3,1.5,0.7,2.2l2.4,3.7c0.6,1,1.6,1.7,2.7,2L36,71.7c2,0.6,4.1-0.2,5.2-1.9
			l2.4-3.5L41,44.4L15.6,39.8z"/>
	</g>
	<g>
		<path class="st15" d="M34,66.3l-6.4-1.6c-0.7-0.2-1.5-0.5-2.1-1c-1.8-1.4-5-4.8-5.7-11.1c-0.9-8.7,4.2-9.2,4.2-9.2L34.2,45
			c0,0,4.1,4.7,5.3,11.8c0.7,3.8-1.3,7-2.6,8.6C36.1,66.2,35,66.6,34,66.3z"/>
	</g>
	<g>
		<path class="st16" d="M40.4,73.2l0.9-1.6c1.1-2.2,0.6-4.7-0.1-7.1l-6.6-20.4l48.9-24v21.8c0,2.1-1,4-2.8,5.1L40.4,73.2z"/>
	</g>
	<g>
		<path class="st15" d="M47.5,57.2c0.2,1,0.3,2,0.4,3.1c0.1,1,0.2,2,0.3,3.1c0,1-0.1,2.1-0.4,3.1c-0.3,1-0.8,1.9-1.2,2.9
			c0.1-0.5,0.3-1,0.5-1.5c0.2-0.5,0.3-1,0.5-1.5c0.3-1,0.4-2,0.3-3l-0.2-3.1C47.6,59.3,47.6,58.3,47.5,57.2z"/>
	</g>
	<g>
		<ellipse transform="matrix(0.9501 -0.3119 0.3119 0.9501 -19.1443 10.1051)" class="st17" cx="22" cy="64.9" rx="0.7" ry="1.1"/>
	</g>
	<g>
		
			<ellipse transform="matrix(0.9501 -0.3119 0.3119 0.9501 -19.5427 15.5752)" class="st17" cx="38.9" cy="68.9" rx="0.9" ry="1.3"/>
	</g>
	<g>
		<ellipse transform="matrix(0.9501 -0.3119 0.3119 0.9501 -19.1754 10.1758)" class="st8" cx="22.2" cy="65" rx="0.5" ry="0.9"/>
	</g>
	<g>
		<ellipse transform="matrix(0.9501 -0.312 0.312 0.9501 -19.5751 15.6304)" class="st8" cx="39.1" cy="69" rx="0.7" ry="1.1"/>
	</g>
	<g>
		<g>
			<path class="st12" d="M36.9,51.4c2,5.1,0.6,10.5-3.1,12.1c-3.9,1.7-8.8-1.2-10.9-6.6c-2.1-5.4-0.4-10.9,3.6-12.3
				C30.3,43.3,34.9,46.4,36.9,51.4z"/>
		</g>
		<g>
			<g>
				<g>
					<ellipse transform="matrix(0.9642 -0.265 0.265 0.9642 -11.6457 10.7332)" class="st18" cx="34" cy="48.5" rx="0.7" ry="0.8"/>
				</g>
				<g>
					
						<ellipse transform="matrix(0.9643 -0.265 0.265 0.9643 -11.6499 10.6892)" class="st19" cx="33.8" cy="48.5" rx="0.5" ry="0.6"/>
				</g>
			</g>
			<g>
				<g>
					
						<ellipse transform="matrix(0.9643 -0.265 0.265 0.9643 -11.249 10.0921)" class="st18" cx="31.8" cy="46.7" rx="0.7" ry="0.8"/>
				</g>
				<g>
					
						<ellipse transform="matrix(0.9642 -0.265 0.265 0.9642 -11.2562 10.0517)" class="st19" cx="31.6" cy="46.7" rx="0.5" ry="0.6"/>
				</g>
			</g>
			<g>
				<g>
					
						<ellipse transform="matrix(0.9643 -0.265 0.265 0.9643 -11.0854 9.4387)" class="st18" cx="29.4" cy="45.8" rx="0.7" ry="0.8"/>
				</g>
				<g>
					<ellipse transform="matrix(0.9643 -0.265 0.265 0.9643 -11.091 9.3963)" class="st19" cx="29.3" cy="45.8" rx="0.5" ry="0.6"/>
				</g>
			</g>
			<g>
				<g>
					
						<ellipse transform="matrix(0.9643 -0.265 0.265 0.9643 -11.1731 8.7471)" class="st18" cx="26.8" cy="45.8" rx="0.7" ry="0.8"/>
				</g>
				<g>
					
						<ellipse transform="matrix(0.9643 -0.265 0.265 0.9643 -11.1787 8.7047)" class="st19" cx="26.7" cy="45.8" rx="0.5" ry="0.6"/>
				</g>
			</g>
			<g>
				<g>
					
						<ellipse transform="matrix(0.9642 -0.265 0.265 0.9642 -11.6829 8.2688)" class="st18" cx="24.8" cy="47.4" rx="0.7" ry="0.8"/>
				</g>
				<g>
					
						<ellipse transform="matrix(0.9643 -0.265 0.265 0.9643 -11.6867 8.2248)" class="st19" cx="24.6" cy="47.4" rx="0.5" ry="0.6"/>
				</g>
			</g>
			<g>
				<g>
					
						<ellipse transform="matrix(0.9643 -0.265 0.265 0.9643 -12.3041 8.0206)" class="st18" cx="23.6" cy="49.6" rx="0.7" ry="0.8"/>
				</g>
				<g>
					
						<ellipse transform="matrix(0.9642 -0.265 0.265 0.9642 -12.3111 7.9796)" class="st19" cx="23.4" cy="49.6" rx="0.5" ry="0.6"/>
				</g>
			</g>
			<g>
				<g>
					
						<ellipse transform="matrix(0.9643 -0.265 0.265 0.9643 -12.9921 7.9371)" class="st18" cx="22.9" cy="52.1" rx="0.7" ry="0.8"/>
				</g>
				<g>
					
						<ellipse transform="matrix(0.9643 -0.265 0.265 0.9643 -12.9976 7.8947)" class="st19" cx="22.8" cy="52.1" rx="0.5" ry="0.6"/>
				</g>
			</g>
			<g>
				<g>
					
						<ellipse transform="matrix(0.9643 -0.265 0.265 0.9643 -13.6598 8.1433)" class="st18" cx="23.4" cy="54.7" rx="0.7" ry="0.8"/>
				</g>
				<g>
					<ellipse transform="matrix(0.9643 -0.265 0.265 0.9643 -13.6653 8.101)" class="st19" cx="23.2" cy="54.7" rx="0.5" ry="0.6"/>
				</g>
			</g>
			<g>
				<g>
					
						<ellipse transform="matrix(0.9643 -0.265 0.265 0.9643 -14.2893 8.4201)" class="st18" cx="24.1" cy="57.2" rx="0.7" ry="0.8"/>
				</g>
				<g>
					<ellipse transform="matrix(0.9643 -0.265 0.265 0.9643 -14.295 8.3779)" class="st19" cx="23.9" cy="57.2" rx="0.5" ry="0.6"/>
				</g>
			</g>
			<g>
				<g>
					
						<ellipse transform="matrix(0.9643 -0.265 0.265 0.9643 -14.8201 8.8738)" class="st18" cx="25.5" cy="59.4" rx="0.7" ry="0.8"/>
				</g>
				<g>
					
						<ellipse transform="matrix(0.9643 -0.265 0.265 0.9643 -14.8263 8.8319)" class="st19" cx="25.3" cy="59.4" rx="0.5" ry="0.6"/>
				</g>
			</g>
			<g>
				<g>
					<ellipse transform="matrix(0.9643 -0.265 0.265 0.9643 -15.2276 9.419)" class="st18" cx="27.3" cy="61.1" rx="0.7" ry="0.8"/>
				</g>
				<g>
					
						<ellipse transform="matrix(0.9643 -0.265 0.265 0.9643 -15.2338 9.3772)" class="st19" cx="27.1" cy="61.1" rx="0.5" ry="0.6"/>
				</g>
			</g>
			<g>
				<g>
					
						<ellipse transform="matrix(0.9642 -0.265 0.265 0.9642 -15.5056 10.0624)" class="st18" cx="29.5" cy="62.5" rx="0.7" ry="0.8"/>
				</g>
				<g>
					
						<ellipse transform="matrix(0.9643 -0.265 0.265 0.9643 -15.5094 10.0185)" class="st19" cx="29.4" cy="62.5" rx="0.5" ry="0.6"/>
				</g>
			</g>
			<g>
				<g>
					
						<ellipse transform="matrix(0.9643 -0.265 0.265 0.9643 -15.3923 10.7439)" class="st18" cx="32.1" cy="62.4" rx="0.7" ry="0.8"/>
				</g>
				<g>
					<ellipse transform="matrix(0.9643 -0.265 0.265 0.9643 -15.3979 10.7015)" class="st19" cx="32" cy="62.4" rx="0.5" ry="0.6"/>
				</g>
			</g>
			<g>
				<g>
					
						<ellipse transform="matrix(0.9643 -0.265 0.265 0.9643 -15.0292 11.2924)" class="st18" cx="34.3" cy="61.3" rx="0.7" ry="0.8"/>
				</g>
				<g>
					
						<ellipse transform="matrix(0.9643 -0.265 0.265 0.9643 -15.0342 11.2495)" class="st19" cx="34.2" cy="61.3" rx="0.5" ry="0.6"/>
				</g>
			</g>
			<g>
				<g>
					<ellipse transform="matrix(0.9643 -0.265 0.265 0.9643 -14.4542 11.6566)" class="st18" cx="36" cy="59.4" rx="0.7" ry="0.8"/>
				</g>
				<g>
					
						<ellipse transform="matrix(0.9643 -0.265 0.265 0.9643 -14.4598 11.6144)" class="st19" cx="35.8" cy="59.4" rx="0.5" ry="0.6"/>
				</g>
			</g>
			<g>
				<g>
					
						<ellipse transform="matrix(0.9643 -0.265 0.265 0.9643 -13.709 11.7325)" class="st18" cx="36.6" cy="56.7" rx="0.7" ry="0.8"/>
				</g>
				<g>
					
						<ellipse transform="matrix(0.9643 -0.265 0.265 0.9643 -13.7147 11.6902)" class="st19" cx="36.5" cy="56.7" rx="0.5" ry="0.6"/>
				</g>
			</g>
			<g>
				<g>
					
						<ellipse transform="matrix(0.9643 -0.265 0.265 0.9643 -12.9474 11.594)" class="st18" cx="36.5" cy="53.8" rx="0.7" ry="0.8"/>
				</g>
				<g>
					
						<ellipse transform="matrix(0.9643 -0.265 0.265 0.9643 -12.9529 11.5516)" class="st19" cx="36.3" cy="53.8" rx="0.5" ry="0.6"/>
				</g>
			</g>
			<g>
				<g>
					<ellipse transform="matrix(0.9643 -0.265 0.265 0.9643 -12.2498 11.2245)" class="st18" cx="35.5" cy="51" rx="0.7" ry="0.8"/>
				</g>
				<g>
					<ellipse transform="matrix(0.9643 -0.265 0.265 0.9643 -12.255 11.1816)" class="st19" cx="35.3" cy="51" rx="0.5" ry="0.6"/>
				</g>
			</g>
		</g>
		<g>
			<path class="st15" d="M34.9,52.2c1.4,3.5,0.4,7.3-2.2,8.4c-2.7,1.1-6-0.9-7.5-4.6c-1.4-3.7-0.3-7.5,2.4-8.4
				C30.3,46.6,33.5,48.7,34.9,52.2z"/>
		</g>
		<g>
			<path class="st20" d="M32.3,53.2c0.6,1.6,0.2,3.3-1,3.8c-1.2,0.5-2.7-0.4-3.3-2.1c-0.6-1.6-0.2-3.3,1.1-3.8
				C30.2,50.6,31.6,51.6,32.3,53.2z"/>
		</g>
		<g class="st21">
			<g>
				<path class="st22" d="M29.7,55.9c-0.4-0.1-0.8-0.4-1.1-0.8c-0.3-0.4-0.4-0.9-0.4-1.4c0-0.5,0.2-1,0.6-1.4
					c0.4-0.4,0.9-0.5,1.4-0.3c-0.4,0.1-0.7,0.4-0.9,0.7c-0.2,0.3-0.2,0.7-0.3,1c0,0.4,0.1,0.7,0.2,1.1
					C29.3,55.2,29.4,55.6,29.7,55.9z"/>
			</g>
		</g>
		<g>
			<path class="st23" d="M29.9,59.3c-1.1-0.2-2.1-0.8-2.8-1.7c-0.4-0.4-0.7-0.9-0.9-1.4c-0.3-0.5-0.4-1-0.6-1.6
				c-0.1-0.6-0.2-1.1-0.2-1.7c0-0.6,0.1-1.1,0.3-1.7c0.2-0.5,0.5-1.1,0.8-1.5c0.4-0.4,0.9-0.7,1.4-0.9c-0.9,0.6-1.4,1.6-1.6,2.6
				c-0.2,1-0.1,2,0.1,3c0.2,1,0.6,1.9,1.2,2.8C28.2,58,28.9,58.8,29.9,59.3z"/>
		</g>
		<g>
			<g>
				<path class="st23" d="M28.9,48.6c0.7-0.1,1.4,0,2.1,0.2c0.7,0.3,1.3,0.7,1.8,1.2c1,1,1.7,2.3,2,3.8c0.1,0.7,0.2,1.4,0.1,2.2
					c-0.1,0.7-0.3,1.4-0.7,2.1c-0.4,0.6-1,1.1-1.7,1.4c-0.7,0.3-1.4,0.3-2.1,0c0.7,0,1.3-0.1,1.9-0.4c0.5-0.3,1-0.8,1.2-1.3
					c0.3-0.6,0.4-1.2,0.5-1.8c0.1-0.6,0-1.3-0.1-1.9c-0.2-1.2-0.8-2.4-1.6-3.4c-0.4-0.5-0.9-0.9-1.4-1.3
					C30.2,48.9,29.6,48.7,28.9,48.6z"/>
			</g>
		</g>
		<g class="st24">
			<g>
				<path class="st25" d="M29.1,49.6c0.6-0.1,1.1,0,1.6,0.3c0.5,0.2,1,0.6,1.4,1c0.8,0.8,1.3,1.9,1.5,3c0.2,1.1,0.2,2.3-0.4,3.4
					c-0.3,0.5-0.7,0.9-1.3,1.2c-0.5,0.2-1.1,0.2-1.7,0.1c1.1,0.2,2.2-0.4,2.6-1.4c0.5-0.9,0.5-2.1,0.3-3.1c-0.2-1-0.7-2-1.4-2.9
					c-0.3-0.4-0.7-0.8-1.2-1C30.2,49.8,29.6,49.6,29.1,49.6z"/>
			</g>
		</g>
	</g>
	<g>
		<path class="st0" d="M2.7,39.7l59.5-24.4c1.1-0.4,2.3-0.6,3.5-0.5l16.9,2c3.7,0.4,6.6,3.6,6.7,7.3l0.2,7c0,0.8-0.4,1.5-1.1,1.9
			L43.8,59.4L35,48.8c-1.3-1.6-3.1-2.7-5-3.1L2.7,39.7z"/>
	</g>
	<g>
		<path class="st1" d="M87.3,19.4L32.7,46.8c0.9,0.5,1.6,1.2,2.3,2l8.8,10.6l44.7-26.3c0.7-0.4,1.1-1.1,1.1-1.9l-0.2-7
			C89.2,22.4,88.5,20.7,87.3,19.4z"/>
	</g>
	<g>
		<path class="st26" d="M96.5,53.5c0,0-0.1,0-0.1,0l-15-2.5c-0.4-0.1-0.6-0.4-0.6-0.8s0.4-0.6,0.8-0.6l15,2.5
			c0.4,0.1,0.6,0.4,0.6,0.8C97.1,53.3,96.8,53.5,96.5,53.5z"/>
	</g>
	<g>
		<path class="st10" d="M98.7,53c-0.1-0.3-0.6-0.3-0.7,0.1c-1.3,4.7-2.8,11.5-2.5,19.2c0.2,4.9,1.2,8.9,2.2,11.7
			c0.3-0.2,0.6-0.5,0.6-1l0.6-28.8C99,53.8,98.9,53.4,98.7,53z"/>
	</g>
	<g>
		<path class="st7" d="M61.6,73.5c-3.8,0-7.9-1-7.9-2.8c0-0.4,0.2-0.8,0.6-1.1l0.4,0.5c-0.3,0.2-0.4,0.4-0.4,0.6
			c0,1,3.1,2.1,7.3,2.1c4.2,0,7.3-1.1,7.3-2.1c0-0.3-0.3-0.5-0.5-0.7l0.4-0.5c0.5,0.4,0.7,0.8,0.7,1.2
			C69.5,72.5,65.4,73.5,61.6,73.5z"/>
	</g>
	<g>
		<g>
			<path class="st19" d="M68.3,69.8c0.1,0.1,0.3,0.2,0.3,0.4c0.1,0.2,0,0.4-0.1,0.6c-0.2,0.4-0.5,0.6-0.8,0.8
				c-0.6,0.4-1.3,0.6-2,0.8c-0.7,0.2-1.4,0.3-2.1,0.4c-0.7,0.1-1.4,0.1-2.1,0.1c-0.7,0-1.4,0-2.1-0.1c-0.7-0.1-1.4-0.2-2.1-0.4
				c-0.7-0.2-1.4-0.4-2-0.8c-0.3-0.2-0.6-0.5-0.8-0.9c-0.1-0.2-0.1-0.4,0-0.6c0.1-0.2,0.2-0.3,0.4-0.4c-0.2,0.3-0.4,0.6-0.2,0.9
				c0.2,0.2,0.4,0.4,0.7,0.5c0.6,0.3,1.3,0.4,1.9,0.5c1.3,0.2,2.7,0.3,4.1,0.3c1.4,0,2.7-0.1,4.1-0.3c0.7-0.1,1.3-0.2,1.9-0.5
				c0.3-0.1,0.6-0.3,0.8-0.5c0.1-0.1,0.2-0.2,0.2-0.4C68.5,70.1,68.4,70,68.3,69.8z"/>
		</g>
	</g>
	<g>
		<path class="st27" d="M36.9,51.4c0.5,1.2,1,2.5,1.4,3.8c0.5,1.3,0.9,2.5,1.3,3.8c0.4,1.3,0.8,2.5,1.2,3.8c0.4,1.3,0.8,2.6,1.1,3.8
			l0,0c0.1,0.5,0.1,0.9,0.1,1.4c0,0.5,0,0.9-0.1,1.4c-0.1,0.4-0.2,0.9-0.3,1.3c-0.1,0.4-0.3,0.8-0.6,1.2c0.2-0.4,0.3-0.8,0.4-1.2
			c0.1-0.4,0.1-0.9,0.1-1.3c0-0.4,0-0.9,0-1.3c0-0.4-0.1-0.9-0.2-1.3l0,0c-0.4-1.3-0.9-2.5-1.3-3.8c-0.4-1.3-0.8-2.6-1.2-3.8
			c-0.4-1.3-0.8-2.6-1.1-3.9C37.5,54,37.2,52.7,36.9,51.4z"/>
	</g>
</g>
</svg>
