<?xml version="1.0" encoding="utf-8"?>
<!-- Generator: Adobe Illustrator 19.1.0, SVG Export Plug-In . SVG Version: 6.00 Build 0)  -->
<svg version="1.1" id="Layer_1" xmlns="http://www.w3.org/2000/svg" xmlns:xlink="http://www.w3.org/1999/xlink" x="0px" y="0px"
	 viewBox="0 0 100 100" style="enable-background:new 0 0 100 100;" xml:space="preserve">
<style type="text/css">
	.st0{fill:#2E333A;}
	.st1{fill:#E96300;}
	.st2{fill:#E1E1E1;}
	.st3{fill:#FFACB8;}
	.st4{fill:#F49C00;}
	.st5{fill:url(#SVGID_1_);}
	.st6{fill:#FFE000;}
</style>
<g>
	<g>
		<rect x="22.6" y="10.4" class="st0" width="76" height="78.8"/>
		<g>
			<rect x="22.6" y="55" class="st1" width="18.4" height="13.5"/>
			<rect x="22.6" y="40.1" class="st1" width="37.3" height="13.5"/>
			<rect x="42.4" y="55" class="st1" width="36.3" height="13.5"/>
			<rect x="61.3" y="10.4" class="st1" width="37.3" height="13.5"/>
			<rect x="42.2" y="25.3" class="st1" width="36.3" height="13.5"/>
			<rect x="22.6" y="10.4" class="st1" width="37.3" height="13.5"/>
			<rect x="22.6" y="25.3" class="st1" width="18.2" height="13.5"/>
			<rect x="61.3" y="40.1" class="st1" width="37.3" height="13.5"/>
			<rect x="79.9" y="25.3" class="st1" width="18.7" height="13.5"/>
			<rect x="80.1" y="55" class="st1" width="18.4" height="13.5"/>
			<rect x="22.6" y="69.9" class="st1" width="37.3" height="13.5"/>
			<rect x="61.3" y="69.9" class="st1" width="37.3" height="13.5"/>
		</g>
		<polygon class="st2" points="22.6,10.4 98.6,83.4 98.6,89.2 22.6,89.2 		"/>
		<polygon class="st3" points="61.3,10.4 95.5,13.4 98.6,23.9 98.6,10.4 		"/>
		<polygon class="st3" points="22.6,10.4 56.8,13.4 59.9,23.9 59.9,10.4 		"/>
		<polygon class="st3" points="41.2,25.3 75.4,28.3 78.5,38.8 78.5,25.3 		"/>
		<polygon class="st3" points="61.3,40.1 95.5,43.2 98.6,53.6 98.6,40.1 		"/>
		<polygon class="st3" points="41.3,55 75.5,58 78.6,68.5 78.6,55 		"/>
		<polygon class="st3" points="22.6,40.1 56.8,43.2 59.9,53.6 59.9,40.1 		"/>
		<polygon class="st3" points="61.3,69.9 95.5,72.9 98.6,83.4 98.6,69.9 		"/>
		<polygon class="st3" points="80.1,55 95.5,58 98.6,68.5 98.6,55 		"/>
		<polygon class="st3" points="80.1,25.3 95.5,28.3 98.6,38.8 98.6,25.3 		"/>
		<polygon class="st3" points="41.3,69.9 56.7,72.9 59.7,83.4 59.7,69.9 		"/>
		<polygon class="st3" points="22.5,25.3 37.9,28.3 40.9,38.8 40.9,25.3 		"/>
	</g>
	<g>
		<path class="st4" d="M30.4,89.6c-7.8,0-19.8-2.5-25.6-14c-5.9-11.5-0.8-20-0.8-24.7s-2.5-8.8-2.5-8.8s4.3-1.4,7.7,2
			c3.3,3.3,5.2,9.2,5.2,9.2s-0.1-11.2,5.2-16.5c5.3-5.3,6.6-6.4,8.5-11c0.7-1.6-1.4-5.2-1.4-5.2s6.1,0.9,8.7,4.9
			c4.1,6.3-1,10-0.3,16.9c0.6,5.6,4.1,9.5,4.1,9.5s-0.1-6.1,3.1-10.2c3.9-5,11.4-5,11.4-5s-2.6,5.6-1.5,12
			c1.1,6.4,6.5,14.7,3.1,25.3C50.9,87.1,37.1,89.6,30.4,89.6z"/>
		<path class="st4" d="M41.1,27.3C40.2,29,41.8,35,41.8,35s1.5-2.2,6-3.9c1.7-0.6,1.8-3.5,0.6-6.7c-0.7-1.8-2.4-4.5-2.4-4.5
			s0.3,2.9-1.8,5.1C43.3,26,41.5,26.4,41.1,27.3z"/>
		<path class="st4" d="M14.3,33.9c0.2,1.5-2.4,5.5-2.4,5.5s-0.6-2-3.5-4.4c-1.1-0.9-0.4-3,1.3-5.1c0.9-1.1,2.9-2.8,2.9-2.8
			s-0.9,2.1,0,4.2C13,32.4,14.2,33.1,14.3,33.9z"/>
		<path class="st4" d="M23.7,20.3c0.1,1-1.6,3.6-1.6,3.6s-0.4-1.3-2.3-2.8c-0.7-0.6-0.3-2,0.8-3.3c0.6-0.7,1.9-1.8,1.9-1.8
			s-0.6,1.4,0,2.7C22.9,19.3,23.6,19.8,23.7,20.3z"/>
		<linearGradient id="SVGID_1_" gradientUnits="userSpaceOnUse" x1="28.8288" y1="28.056" x2="28.8288" y2="82.8039">
			<stop  offset="0" style="stop-color:#474747"/>
			<stop  offset="1" style="stop-color:#FFFFFF"/>
		</linearGradient>
		<path class="st5" d="M30.3,89.6c-5.5,0-15.1-2.2-19.2-9.6c-4.1-7.4-3.9-10.7-3.9-13.8s1.8-9.8,1.8-9.8s3.8,4.6,5.3,5.7
			c2.1,1.4,3.9,1.5,3.9,1.5s-0.3-5.4,0.8-9.3c0.9-3.3,3.5-6.1,4.9-7.4c3.5-3.5,3.4-6.5,3.4-6.5s4.1,5.8,4.5,9
			c0.5,3.6,0.1,6.6,1.8,9.7c2.7,4.9,6,5.4,6,5.4s0.1-2.1,1.4-5.3c1.6-3.9,5.9-5.4,5.9-5.4s0.3,6.4,2,10.5c1.6,3.9,2.8,7.9,0.4,14.8
			C46.3,87.4,34.9,89.6,30.3,89.6z"/>
		<path class="st6" d="M29.6,89.6c-3.1,0-8.6-1.2-11-5.5s-2.2-6.1-2.2-7.9s1-5.6,1-5.6s2.2,2.6,3.1,3.3c1.2,0.8,2.2,0.9,2.2,0.9
			s-0.2-3.1,0.4-5.3c0.5-1.9,2-3.5,2.8-4.2c2-2,2-3.7,2-3.7s2.3,3.3,2.6,5.1c0.3,2.1,0,3.7,1,5.5c1.5,2.8,3.4,3.1,3.4,3.1
			s0.1-1.2,0.8-3.1C36.6,69.9,39,69,39,69s0.2,3.6,1.2,6c0.9,2.2,1.6,4.5,0.2,8.4C38.8,88.3,32.3,89.6,29.6,89.6z"/>
	</g>
</g>
</svg>
