<?xml version="1.0" encoding="utf-8"?>
<!-- Generator: Adobe Illustrator 19.1.0, SVG Export Plug-In . SVG Version: 6.00 Build 0)  -->
<svg version="1.1" id="Layer_1" xmlns="http://www.w3.org/2000/svg" xmlns:xlink="http://www.w3.org/1999/xlink" x="0px" y="0px"
	 viewBox="0 0 100 100" style="enable-background:new 0 0 100 100;" xml:space="preserve">
<style type="text/css">
	.st0{enable-background:new    ;}
	.st1{fill:url(#SVGID_1_);}
	.st2{fill:#C0C6C7;}
	.st3{fill:#E9ECED;}
	.st4{fill:url(#SVGID_2_);}
	.st5{fill:url(#SVGID_3_);}
	.st6{fill:#A2ABAD;}
	.st7{fill:#D2D7D8;}
	.st8{fill:#373A3C;}
	.st9{opacity:0.4;fill:#A1AAAD;}
	.st10{fill:#A1AAAD;}
	.st11{fill:#589B2C;}
	.st12{fill:#72C93F;}
	.st13{opacity:0.5;fill:#A2ABAD;}
	.st14{opacity:0.3;fill:#A2ABAD;}
</style>
<g id="_x37_">
	<g>
		<g class="st0">
			<linearGradient id="SVGID_1_" gradientUnits="userSpaceOnUse" x1="72.0625" y1="83.0987" x2="73.1342" y2="84.955">
				<stop  offset="0" style="stop-color:#C0C6C7"/>
				<stop  offset="1" style="stop-color:#B2B9BB"/>
			</linearGradient>
			<path class="st1" d="M63.3,88.3c0,1.6-0.6,2.7-1.5,3.3l20.2-11.7c0.9-0.5,1.5-1.7,1.5-3.3L63.3,88.3z"/>
			<polygon class="st2" points="83.4,41.3 63.2,53 63.3,88.3 83.4,76.5 			"/>
			<g>
				<polygon class="st3" points="16,19.9 36.2,8.2 78.3,32.6 58.2,44.3 				"/>
			</g>
			<linearGradient id="SVGID_2_" gradientUnits="userSpaceOnUse" x1="68.7752" y1="38.0916" x2="73.8639" y2="46.9056">
				<stop  offset="0" style="stop-color:#E9ECED"/>
				<stop  offset="1" style="stop-color:#C0C6C7"/>
			</linearGradient>
			<path class="st4" d="M82.5,37.5c-0.5-1.1-1.2-2.2-2-3.1c-0.7-0.8-1.4-1.4-2.2-1.9L58.2,44.3c0.8,0.5,1.5,1.1,2.2,1.9
				c0.8,0.9,1.5,2,2,3.1c0.6,1.3,0.9,2.6,0.9,3.8l20.2-11.7C83.4,40.1,83.1,38.8,82.5,37.5z"/>
			<linearGradient id="SVGID_3_" gradientUnits="userSpaceOnUse" x1="14.606" y1="52.1735" x2="63.4129" y2="59.8961">
				<stop  offset="0" style="stop-color:#B2B9BB"/>
				<stop  offset="1" style="stop-color:#A1AAAD"/>
			</linearGradient>
			<path class="st5" d="M63.2,53c0-3.2-2.3-7.1-5.1-8.8L16,19.9l0,46.9l42.2,24.3c2.8,1.6,5.1,0.3,5.1-2.9L63.2,53z"/>
		</g>
		<g>
			<path class="st6" d="M81.8,76.4L65.1,86c-0.5,0.3-0.8,0.1-0.8-0.4v-0.3c0-0.5,0.4-1.1,0.8-1.3l16.7-9.6c0.5-0.3,0.8-0.1,0.8,0.4
				v0.3C82.6,75.5,82.2,76.1,81.8,76.4z"/>
			<path class="st7" d="M64.7,85.7c-0.2,0.1-0.3,0.1-0.4,0.1c0.1,0.3,0.4,0.4,0.8,0.2l16.7-9.6c0.5-0.3,0.8-0.9,0.8-1.3v-0.3
				c0-0.3-0.2-0.5-0.4-0.5c0,0.1,0,0.1,0,0.2v0.3c0,0.5-0.4,1.1-0.8,1.3L64.7,85.7z"/>
		</g>
		<g>
			<path class="st6" d="M81.8,44.5l-16.7,9.6c-0.5,0.3-0.8,0.1-0.8-0.4v-0.3c0-0.5,0.4-1.1,0.8-1.3l16.7-9.6
				c0.5-0.3,0.8-0.1,0.8,0.4v0.3C82.6,43.7,82.2,44.2,81.8,44.5z"/>
			<path class="st7" d="M64.7,53.8c-0.2,0.1-0.3,0.1-0.4,0.1c0.1,0.3,0.4,0.4,0.8,0.2l16.7-9.6c0.5-0.3,0.8-0.9,0.8-1.3v-0.3
				c0-0.3-0.2-0.5-0.4-0.5c0,0.1,0,0.1,0,0.2v0.3c0,0.5-0.4,1.1-0.8,1.3L64.7,53.8z"/>
		</g>
		<g>
			<path class="st8" d="M70.4,54.8c1.9-1.1,3.4-0.1,3.4,2.1c0,2.3-1.5,5-3.4,6C68.5,64,67,63,67,60.8C67,58.5,68.5,55.8,70.4,54.8z"
				/>
			<path class="st9" d="M68.4,63.4c3.8,0.9,7.8-8.2,4-9.1C68.6,53.4,64.6,62.5,68.4,63.4z M69.2,55.9l0.1,0.4
				c-1.1,1.1-1.9,2.8-1.9,4.3l-0.4,0.2C67.1,59,68,57.1,69.2,55.9z M70.1,59.7L70,60.2c-0.4,0-0.6-0.2-0.7-0.6l0.4-0.2
				C69.8,59.5,69.9,59.7,70.1,59.7z M70,60.4l-0.1,0.5c-0.6,0.1-1-0.4-1.1-1l0.4-0.2C69.2,60.2,69.5,60.5,70,60.4z M69.8,61.2
				l-0.1,0.5c-0.9,0.2-1.4-0.5-1.5-1.4l0.4-0.2C68.6,60.8,69.1,61.3,69.8,61.2z M69.6,61.9l-0.1,0.5c-1.2,0.2-1.8-0.6-1.9-1.8
				l0.4-0.2C68.1,61.4,68.6,62.1,69.6,61.9z M69.9,57.1l-0.1-0.4c0.7-0.6,1.6-1.1,2.3-0.5l-0.3,0.5C71.2,56.2,70.4,56.6,69.9,57.1z
				 M70.1,57.6L70,57.3c0.5-0.4,1.2-0.8,1.7-0.4l-0.3,0.5C70.9,57.1,70.4,57.3,70.1,57.6z M70.3,58.1l-0.1-0.4
				c0.3-0.3,0.7-0.5,1-0.2L70.9,58C70.7,57.9,70.4,58,70.3,58.1z M69.8,57.4l0.1,0.4c-0.4,0.4-0.7,1.1-0.7,1.7l-0.4,0.2
				C68.8,58.9,69.2,58,69.8,57.4z M68.6,59.8L68.2,60c0-1.1,0.6-2.3,1.4-3.1l0.1,0.4C69.1,57.9,68.6,58.9,68.6,59.8z M69.5,56.7
				C68.7,57.6,68,59,68,60.2l-0.4,0.2c0-1.3,0.7-2.9,1.8-4L69.5,56.7z M69.9,59.2l0.3-0.2l-0.1,0.4C70,59.4,70,59.4,69.9,59.2z
				 M69.4,59.4c0-0.5,0.3-1,0.6-1.4l0.1,0.4c-0.2,0.2-0.3,0.5-0.4,0.8L69.4,59.4z M70.3,58.3c0.1-0.1,0.3-0.1,0.4-0.1l-0.3,0.4
				L70.3,58.3z M70.8,58.3c0.1,0.1,0.1,0.3,0,0.5l-0.3-0.1L70.8,58.3z M71,58.1l0.3-0.5c0.2,0.3,0.2,0.7,0,1.2L71,58.8
				C71.1,58.5,71.1,58.3,71,58.1z M71.4,57.4l0.3-0.5c0.3,0.4,0.4,1.2,0,2l-0.3-0.1C71.7,58.3,71.7,57.7,71.4,57.4z M71.9,56.8
				l0.3-0.5c0.5,0.5,0.5,1.6,0.1,2.8l-0.3-0.1C72.3,58.1,72.3,57.2,71.9,56.8z M72.3,56.1l0.3-0.5c0.6,0.7,0.7,2.1,0.1,3.6l-0.3-0.1
				C72.9,57.9,72.9,56.7,72.3,56.1z M72.2,56c-0.7-0.6-1.8-0.1-2.5,0.6l-0.1-0.4c0.8-0.8,2.1-1.4,3-0.7L72.2,56z M67.1,61l0.4-0.2
				c0.1,1.3,0.8,2.2,2,1.9l-0.1,0.5C68,63.4,67.1,62.4,67.1,61z M73.1,59.6c-0.8,1.8-2.3,3.2-3.5,3.5l0.1-0.5
				c1.1-0.3,2.4-1.5,3.1-3.1L73.1,59.6z M72.6,59.5c-0.7,1.5-1.9,2.6-2.9,2.9l0.1-0.5c0.9-0.3,1.9-1.2,2.5-2.5L72.6,59.5z
				 M72.1,59.4c-0.5,1.2-1.4,2-2.3,2.3l0.1-0.5c0.7-0.2,1.4-0.9,1.9-1.8L72.1,59.4z M71.7,59.3c-0.4,0.8-1,1.5-1.6,1.6l0.1-0.5
				c0.4-0.1,0.9-0.6,1.2-1.2L71.7,59.3z M71.2,59.1c-0.3,0.5-0.6,0.9-1,1l0.1-0.5c0.2-0.1,0.4-0.3,0.6-0.6L71.2,59.1z M70.7,59
				c-0.1,0.2-0.2,0.3-0.4,0.4l0.1-0.4L70.7,59z M69.9,59c0-0.2,0.1-0.4,0.2-0.5l0.1,0.3L69.9,59z M73.2,59.3l-0.3-0.1
				c0.7-1.6,0.6-3.1-0.1-3.8l0.3-0.5C73.9,55.8,74,57.5,73.2,59.3z M72.7,55.3c-0.9-0.8-2.3-0.1-3.2,0.7l-0.1-0.4
				c1-1,2.6-1.7,3.6-0.8L72.7,55.3z"/>
			<path class="st10" d="M70.4,53.8c-2.3,1.3-4.1,4.6-4.2,7.4c0,2.8,1.8,3.9,4.1,2.6c2.3-1.3,4.1-4.6,4.2-7.4
				C74.5,53.7,72.7,52.5,70.4,53.8z M70.3,62.9C68.5,64,67,63,67,60.8c0-2.3,1.5-5,3.4-6c1.9-1.1,3.4-0.1,3.4,2.1
				C73.7,59.1,72.2,61.8,70.3,62.9z"/>
		</g>
		<g>
			<path class="st8" d="M70.4,68.2c1.9-1.1,3.4-0.1,3.4,2.1c0,2.3-1.5,5-3.4,6c-1.9,1.1-3.4,0.1-3.4-2.1C67,72,68.5,69.3,70.4,68.2z
				"/>
			<path class="st9" d="M68.4,76.8c3.8,0.9,7.8-8.2,4-9.1C68.6,66.8,64.6,75.9,68.4,76.8z M69.2,69.3l0.1,0.4
				c-1.1,1.1-1.9,2.8-1.9,4.3l-0.4,0.2C67.1,72.5,68,70.5,69.2,69.3z M70.1,73.1L70,73.6c-0.4,0-0.6-0.2-0.7-0.6l0.4-0.2
				C69.8,73,69.9,73.1,70.1,73.1z M70,73.9l-0.1,0.5c-0.6,0.1-1-0.4-1.1-1l0.4-0.2C69.2,73.6,69.5,73.9,70,73.9z M69.8,74.6
				l-0.1,0.5c-0.9,0.2-1.4-0.5-1.5-1.4l0.4-0.2C68.6,74.2,69.1,74.7,69.8,74.6z M69.6,75.3l-0.1,0.5c-1.2,0.2-1.8-0.6-1.9-1.8
				l0.4-0.2C68.1,74.8,68.6,75.5,69.6,75.3z M69.9,70.5l-0.1-0.4c0.7-0.6,1.6-1.1,2.3-0.5l-0.3,0.5C71.2,69.6,70.4,70,69.9,70.5z
				 M70.1,71L70,70.7c0.5-0.4,1.2-0.8,1.7-0.4l-0.3,0.5C70.9,70.5,70.4,70.7,70.1,71z M70.3,71.6l-0.1-0.4c0.3-0.3,0.7-0.5,1-0.2
				l-0.3,0.5C70.7,71.3,70.4,71.4,70.3,71.6z M69.8,70.9l0.1,0.4c-0.4,0.4-0.7,1.1-0.7,1.7l-0.4,0.2C68.8,72.3,69.2,71.4,69.8,70.9z
				 M68.6,73.2l-0.4,0.2c0-1.1,0.6-2.3,1.4-3.1l0.1,0.4C69.1,71.4,68.6,72.3,68.6,73.2z M69.5,70.2C68.7,71,68,72.4,68,73.6
				l-0.4,0.2c0-1.3,0.7-2.9,1.8-4L69.5,70.2z M69.9,72.6l0.3-0.2l-0.1,0.4C70,72.9,70,72.8,69.9,72.6z M69.4,72.8
				c0-0.5,0.3-1,0.6-1.4l0.1,0.4c-0.2,0.2-0.3,0.5-0.4,0.8L69.4,72.8z M70.3,71.7c0.1-0.1,0.3-0.1,0.4-0.1L70.4,72L70.3,71.7z
				 M70.8,71.8c0.1,0.1,0.1,0.3,0,0.5l-0.3-0.1L70.8,71.8z M71,71.5l0.3-0.5c0.2,0.3,0.2,0.7,0,1.2L71,72.3
				C71.1,72,71.1,71.7,71,71.5z M71.4,70.9l0.3-0.5c0.3,0.4,0.4,1.2,0,2l-0.3-0.1C71.7,71.7,71.7,71.2,71.4,70.9z M71.9,70.2
				l0.3-0.5c0.5,0.5,0.5,1.6,0.1,2.8l-0.3-0.1C72.3,71.5,72.3,70.6,71.9,70.2z M72.3,69.5l0.3-0.5c0.6,0.7,0.7,2.1,0.1,3.6l-0.3-0.1
				C72.9,71.3,72.9,70.1,72.3,69.5z M72.2,69.4c-0.7-0.6-1.8-0.1-2.5,0.6l-0.1-0.4c0.8-0.8,2.1-1.4,3-0.7L72.2,69.4z M67.1,74.4
				l0.4-0.2c0.1,1.3,0.8,2.2,2,1.9l-0.1,0.5C68,76.8,67.1,75.9,67.1,74.4z M73.1,73c-0.8,1.8-2.3,3.2-3.5,3.5l0.1-0.5
				c1.1-0.3,2.4-1.5,3.1-3.1L73.1,73z M72.6,72.9c-0.7,1.5-1.9,2.6-2.9,2.9l0.1-0.5c0.9-0.3,1.9-1.2,2.5-2.5L72.6,72.9z M72.1,72.8
				c-0.5,1.2-1.4,2-2.3,2.3l0.1-0.5c0.7-0.2,1.4-0.9,1.9-1.8L72.1,72.8z M71.7,72.7c-0.4,0.8-1,1.5-1.6,1.6l0.1-0.5
				c0.4-0.1,0.9-0.6,1.2-1.2L71.7,72.7z M71.2,72.6c-0.3,0.5-0.6,0.9-1,1l0.1-0.5c0.2-0.1,0.4-0.3,0.6-0.6L71.2,72.6z M70.7,72.5
				c-0.1,0.2-0.2,0.3-0.4,0.4l0.1-0.4L70.7,72.5z M69.9,72.4c0-0.2,0.1-0.4,0.2-0.5l0.1,0.3L69.9,72.4z M73.2,72.8l-0.3-0.1
				c0.7-1.6,0.6-3.1-0.1-3.8l0.3-0.5C73.9,69.2,74,70.9,73.2,72.8z M72.7,68.7c-0.9-0.8-2.3-0.1-3.2,0.7l-0.1-0.4
				c1-1,2.6-1.7,3.6-0.8L72.7,68.7z"/>
			<path class="st10" d="M70.4,67.3c-2.3,1.3-4.1,4.6-4.2,7.4c0,2.8,1.8,3.9,4.1,2.6c2.3-1.3,4.1-4.6,4.2-7.4
				C74.5,67.1,72.7,65.9,70.4,67.3z M70.3,76.3c-1.9,1.1-3.4,0.1-3.4-2.1c0-2.3,1.5-5,3.4-6c1.9-1.1,3.4-0.1,3.4,2.1
				C73.7,72.6,72.2,75.3,70.3,76.3z"/>
		</g>
		<polygon class="st6" points="77.2,50.4 77.2,74.2 81.8,71.6 81.8,47.7 		"/>
		<polygon class="st7" points="81.2,48.1 81.2,71.3 77.2,73.6 77.2,74.2 81.8,71.6 81.8,47.7 		"/>
		<g>
			<g>
				<g>
					<polygon class="st2" points="79.4,51.3 78.2,52 77.8,52.7 77.8,53.4 78,53.5 79.5,52.7 79.8,52.3 79.8,51.6 					"/>
					<polygon class="st2" points="78.2,54.1 77.8,54.8 77.8,55.5 78,55.6 79.5,54.8 79.8,54.4 79.8,53.7 79.4,53.4 					"/>
					<polygon class="st2" points="78.2,56.2 77.8,56.9 77.8,57.6 78,57.7 79.5,56.9 79.8,56.5 79.8,55.8 79.4,55.5 					"/>
					<polygon class="st2" points="78.2,58.4 77.8,59 77.8,59.8 78,59.9 79.5,59 79.8,58.6 79.8,57.9 79.4,57.6 					"/>
				</g>
				<g>
					<polygon class="st8" points="79.4,52.5 79.5,52.3 79.6,51.8 79.3,51.6 78.3,52.2 78,52.7 78,53.2 78.1,53.2 					"/>
					<polygon class="st8" points="78.3,54.3 78,54.8 78,55.3 78.1,55.3 79.4,54.6 79.5,54.4 79.6,53.9 79.3,53.7 					"/>
					<polygon class="st8" points="78.3,56.4 78,56.9 78,57.4 78.1,57.5 79.4,56.7 79.5,56.5 79.6,56 79.3,55.8 					"/>
					<polygon class="st8" points="78.3,58.5 78,59 78,59.5 78.1,59.6 79.4,58.8 79.5,58.6 79.6,58.1 79.3,57.9 					"/>
				</g>
			</g>
			<g>
				<path class="st8" d="M80.8,51.3c0-0.1-0.1-0.2-0.2-0.2c-0.1,0-0.2,0-0.2,0.1c-0.2,0.1-0.2,0.4-0.2,0.5c0,0.1,0.1,0.2,0.2,0.2
					c0.1,0,0.2,0,0.2-0.1C80.8,51.7,80.8,51.5,80.8,51.3z"/>
				<path class="st11" d="M80.3,51.3c-0.1,0.1-0.2,0.3-0.2,0.5c0,0.1,0.2,0.1,0.3,0c0.1-0.1,0.2-0.3,0.2-0.5
					C80.6,51.2,80.5,51.2,80.3,51.3z"/>
			</g>
			<g>
				<path class="st8" d="M80.8,53.4c0-0.1-0.1-0.2-0.2-0.2c-0.1,0-0.2,0-0.2,0.1c-0.2,0.1-0.2,0.4-0.2,0.5c0,0.1,0.1,0.2,0.2,0.2
					c0.1,0,0.2,0,0.2-0.1C80.8,53.8,80.8,53.5,80.8,53.4z"/>
				<path class="st12" d="M80.3,53.4c-0.1,0.1-0.2,0.3-0.2,0.5c0,0.1,0.2,0.1,0.3,0c0.1-0.1,0.2-0.3,0.2-0.5
					C80.6,53.2,80.5,53.2,80.3,53.4z"/>
			</g>
			<g>
				<path class="st8" d="M80.8,55.5c0-0.1-0.1-0.2-0.2-0.2c-0.1,0-0.2,0-0.2,0.1c-0.2,0.1-0.2,0.4-0.2,0.5c0,0.1,0.1,0.2,0.2,0.2
					c0.1,0,0.2,0,0.2-0.1C80.8,55.8,80.8,55.6,80.8,55.5z"/>
				<path class="st12" d="M80.3,55.4c-0.1,0.1-0.2,0.3-0.2,0.5c0,0.1,0.2,0.1,0.3,0c0.1-0.1,0.2-0.3,0.2-0.5
					C80.6,55.3,80.5,55.3,80.3,55.4z"/>
			</g>
			<g>
				<path class="st8" d="M80.8,57.5c0-0.1-0.1-0.2-0.2-0.2c-0.1,0-0.2,0-0.2,0.1c-0.2,0.1-0.2,0.4-0.2,0.5c0,0.1,0.1,0.2,0.2,0.2
					c0.1,0,0.2,0,0.2-0.1C80.8,57.9,80.8,57.7,80.8,57.5z"/>
				<path class="st11" d="M80.3,57.5c-0.1,0.1-0.2,0.3-0.2,0.5c0,0.1,0.2,0.1,0.3,0c0.1-0.1,0.2-0.3,0.2-0.5
					C80.6,57.4,80.5,57.4,80.3,57.5z"/>
			</g>
		</g>
		<g>
			<g>
				<g>
					<polygon class="st2" points="79.4,62.1 78.2,62.8 77.8,63.5 77.8,64.2 78,64.3 79.5,63.5 79.8,63.1 79.8,62.4 					"/>
					<polygon class="st2" points="78.2,65 77.8,65.6 77.8,66.3 78,66.4 79.5,65.6 79.8,65.2 79.8,64.5 79.4,64.2 					"/>
					<polygon class="st2" points="78.2,67.1 77.8,67.7 77.8,68.5 78,68.6 79.5,67.7 79.8,67.3 79.8,66.6 79.4,66.3 					"/>
					<polygon class="st2" points="78.2,69.2 77.8,69.8 77.8,70.6 78,70.7 79.5,69.8 79.8,69.4 79.8,68.7 79.4,68.4 					"/>
				</g>
				<g>
					<polygon class="st8" points="79.4,63.3 79.5,63.1 79.6,62.6 79.3,62.4 78.3,63 78,63.5 78,64 78.1,64 					"/>
					<polygon class="st8" points="78.3,65.1 78,65.6 78,66.1 78.1,66.2 79.4,65.4 79.5,65.2 79.6,64.7 79.3,64.5 					"/>
					<polygon class="st8" points="78.3,67.2 78,67.7 78,68.2 78.1,68.3 79.4,67.5 79.5,67.3 79.6,66.8 79.3,66.6 					"/>
					<polygon class="st8" points="78.3,69.3 78,69.8 78,70.4 78.1,70.4 79.4,69.7 79.5,69.5 79.6,68.9 79.3,68.7 					"/>
				</g>
			</g>
			<g>
				<path class="st8" d="M80.8,62.1c0-0.1-0.1-0.2-0.2-0.2c-0.1,0-0.2,0-0.2,0.1c-0.2,0.1-0.2,0.4-0.2,0.5c0,0.1,0.1,0.2,0.2,0.2
					c0.1,0,0.2,0,0.2-0.1C80.8,62.5,80.8,62.3,80.8,62.1z"/>
				<path class="st12" d="M80.3,62.1c-0.1,0.1-0.2,0.3-0.2,0.5c0,0.1,0.2,0.1,0.3,0c0.1-0.1,0.2-0.3,0.2-0.5
					C80.6,62,80.5,62,80.3,62.1z"/>
			</g>
			<g>
				<path class="st8" d="M80.8,64.2c0-0.1-0.1-0.2-0.2-0.2c-0.1,0-0.2,0-0.2,0.1c-0.2,0.1-0.2,0.4-0.2,0.5c0,0.1,0.1,0.2,0.2,0.2
					c0.1,0,0.2,0,0.2-0.1C80.8,64.6,80.8,64.4,80.8,64.2z"/>
				<path class="st11" d="M80.3,64.2c-0.1,0.1-0.2,0.3-0.2,0.5c0,0.1,0.2,0.1,0.3,0c0.1-0.1,0.2-0.3,0.2-0.5
					C80.6,64,80.5,64,80.3,64.2z"/>
			</g>
			<g>
				<path class="st8" d="M80.8,66.3c0-0.1-0.1-0.2-0.2-0.2c-0.1,0-0.2,0-0.2,0.1c-0.2,0.1-0.2,0.4-0.2,0.5c0,0.1,0.1,0.2,0.2,0.2
					c0.1,0,0.2,0,0.2-0.1C80.8,66.7,80.8,66.4,80.8,66.3z"/>
				<path class="st11" d="M80.3,66.2c-0.1,0.1-0.2,0.3-0.2,0.5c0,0.1,0.2,0.1,0.3,0c0.1-0.1,0.2-0.3,0.2-0.5
					C80.6,66.1,80.5,66.1,80.3,66.2z"/>
			</g>
			<g>
				<path class="st8" d="M80.8,68.3c0-0.1-0.1-0.2-0.2-0.2c-0.1,0-0.2,0-0.2,0.1c-0.2,0.1-0.2,0.4-0.2,0.5c0,0.1,0.1,0.2,0.2,0.2
					c0.1,0,0.2,0,0.2-0.1C80.8,68.7,80.8,68.5,80.8,68.3z"/>
				<path class="st11" d="M80.3,68.3c-0.1,0.1-0.2,0.3-0.2,0.5c0,0.1,0.2,0.1,0.3,0c0.1-0.1,0.2-0.3,0.2-0.5
					C80.6,68.2,80.5,68.2,80.3,68.3z"/>
			</g>
		</g>
	</g>
	<path class="st7" d="M70.9,33.6l-10.4,6c-0.9,0.5-2.3,0.5-3.1,0L23.7,20.2c-0.9-0.5-0.9-1.3,0-1.8l10.4-6c0.9-0.5,2.3-0.5,3.1,0
		l33.7,19.5C71.8,32.3,71.8,33.1,70.9,33.6z"/>
	<path class="st13" d="M23.7,19.6l10.4-6c0.9-0.5,2.3-0.5,3.1,0L70.9,33c0.2,0.1,0.3,0.2,0.4,0.3c0.5-0.5,0.4-1.1-0.4-1.5L37.2,12.3
		c-0.9-0.5-2.3-0.5-3.1,0l-10.4,6c-0.7,0.4-0.8,1-0.4,1.5C23.4,19.8,23.5,19.7,23.7,19.6z"/>
	<g>
		<path class="st14" d="M53.6,68.9L20.9,50c-1.3-0.7-2.3-2.4-2.3-3.7v-19c0-1.3,1-1.7,2.3-1l32.8,18.9c1.3,0.7,2.3,2.4,2.3,3.7v19
			C56,69.2,54.9,69.7,53.6,68.9z M56,85.1v-8.8c0-1.3-1-2.9-2.3-3.7L20.9,53.7c-1.3-0.7-2.3-0.3-2.3,1v8.8c0,1.3,1,2.9,2.3,3.7
			l32.8,18.9C54.9,86.8,56,86.4,56,85.1z"/>
		<path class="st14" d="M18.5,46.3v-19c0-0.8,0.4-1.3,1.1-1.3c-0.2,0.2-0.3,0.5-0.3,0.9v19c0,1.3,1,2.9,2.3,3.7l32.8,18.9
			c0.5,0.3,0.9,0.4,1.3,0.4c-0.4,0.5-1.2,0.6-2,0.1L20.9,50C19.6,49.3,18.5,47.6,18.5,46.3z M54.4,85.7L21.6,66.8
			c-1.3-0.7-2.3-2.4-2.3-3.7v-8.8c0-0.4,0.1-0.7,0.3-0.9c-0.6,0-1.1,0.5-1.1,1.3v8.8c0,1.3,1,2.9,2.3,3.7l32.8,18.9
			c0.9,0.5,1.6,0.4,2-0.1C55.3,86.1,54.9,85.9,54.4,85.7z"/>
	</g>
</g>
</svg>
