<?xml version="1.0" encoding="utf-8"?>
<!-- Generator: Adobe Illustrator 19.1.0, SVG Export Plug-In . SVG Version: 6.00 Build 0)  -->
<svg version="1.1" id="Layer_1" xmlns="http://www.w3.org/2000/svg" xmlns:xlink="http://www.w3.org/1999/xlink" x="0px" y="0px"
	 viewBox="0 0 100 100" style="enable-background:new 0 0 100 100;" xml:space="preserve">
<style type="text/css">
	.st0{fill:#D6DCDD;}
	.st1{opacity:0.5;fill:#B2B9BB;}
	.st2{fill:#E9ECED;}
	.st3{fill:#B2B9BB;}
	.st4{fill:url(#SVGID_1_);}
	.st5{opacity:0.9;fill:#A8AEAF;}
	.st6{fill:#FFFFFF;}
	.st7{clip-path:url(#SVGID_3_);fill:#E9ECED;}
	.st8{fill:#4F80BA;}
</style>
<g id="_x31_2">
	<g id="_x31__1_">
		<g>
			<path class="st0" d="M61,67.3l-5.1-2.9c-0.9-0.5-2.4-0.5-3.3,0l-15.6,9c-0.5,0.3-0.7,0.6-0.7,1c0,0.1,0,0.5,0,0.7
				c0,0.4,0.2,0.7,0.7,1l5.1,2.9c0.9,0.5,2.4,0.5,3.3,0l15.6-9c0.5-0.3,0.7-0.6,0.7-1c0-0.1,0-0.6,0-0.7C61.7,68,61.4,67.6,61,67.3z
				"/>
			<path class="st1" d="M45.4,68.6L37,73.4c-0.5,0.3-0.7,0.6-0.7,1c0,0.1,0,0.5,0,0.7c0,0.4,0.2,0.7,0.7,1l5.1,2.9
				c0.9,0.5,2.4,0.5,3.3,0l0,0V68.6z"/>
			<path class="st1" d="M42.1,70.5L37,73.4c-0.5,0.3-0.7,0.6-0.7,1c0,0.1,0,0.5,0,0.7c0,0.4,0.2,0.7,0.7,1l5.1,2.9c0,0,0,0,0,0
				L42.1,70.5z"/>
			<path class="st2" d="M61,69.3l-15.6,9c-0.9,0.5-2.4,0.5-3.3,0L37,75.3c-0.9-0.5-0.9-1.4,0-1.9l15.6-9c0.9-0.5,2.4-0.5,3.3,0
				l5.1,2.9C61.9,67.9,61.9,68.7,61,69.3z"/>
		</g>
		<polygon class="st1" points="48,67 37.7,73 45.4,73 		"/>
		<g>
			<polygon class="st0" points="52.6,68.8 45.4,73 45.4,58.4 52.6,54.2 			"/>
			<polygon class="st1" points="52.6,61.3 45.4,65.5 45.4,60.5 52.6,56.4 			"/>
			<polygon class="st3" points="45.4,73 43,71.6 43,57 45.4,58.4 			"/>
			<polygon class="st1" points="43,68.6 43,57 45.4,58.4 45.4,65.5 			"/>
		</g>
		<g>
			<polygon class="st3" points="17.3,80.3 16.1,79.6 16,39.4 17.2,40.1 			"/>
			<polygon class="st2" points="17.2,40.1 16,39.4 75.6,5.1 76.7,5.7 			"/>
			<polygon class="st0" points="76.7,5.7 76.8,45.9 17.3,80.3 17.2,40.1 			"/>
			<linearGradient id="SVGID_1_" gradientUnits="userSpaceOnUse" x1="75.1965" y1="8.6101" x2="24.4412" y2="68.995">
				<stop  offset="0" style="stop-color:#1E2121"/>
				<stop  offset="0.8979" style="stop-color:#232627"/>
				<stop  offset="1" style="stop-color:#242728"/>
			</linearGradient>
			<polygon class="st4" points="18,40.6 75.9,7.1 75.9,43.9 18,77.3 			"/>
		</g>
	</g>
	<g>
		<path class="st0" d="M82,75.8l-9.6-5.6c-0.3-0.1-0.7-0.1-0.9,0l-30,17.3c-0.1,0.1-0.2,0.2-0.2,0.3l0,1.2c0,0.1,0.1,0.2,0.2,0.3
			l9.6,5.6c0.3,0.1,0.7,0.1,0.9,0l30-17.3c0.1-0.1,0.2-0.2,0.2-0.3V76C82.2,75.9,82.1,75.8,82,75.8z"/>
		<path class="st1" d="M51.9,81.5l-10.5,6.1c-0.1,0.1-0.2,0.2-0.2,0.3l0,1.2c0,0.1,0.1,0.2,0.2,0.3l9.6,5.6c0.2,0.1,0.6,0.1,0.9,0
			V81.5z"/>
		<path class="st1" d="M51,82l-9.6,5.6c-0.1,0.1-0.2,0.2-0.2,0.3l0,1.2c0,0.1,0.1,0.2,0.2,0.3l9.6,5.6V82z"/>
		<g>
			<path class="st2" d="M82,76.3l-30,17.3c-0.3,0.1-0.7,0.1-0.9,0l-9.6-5.6c-0.3-0.1-0.3-0.4,0-0.5l30-17.3c0.3-0.1,0.7-0.1,0.9,0
				l9.6,5.6C82.3,75.9,82.3,76.2,82,76.3z"/>
			<path class="st5" d="M45.3,88L44,88.7c-0.1,0.1-0.3,0.1-0.5,0l-1.1-0.6c-0.1-0.1-0.1-0.2,0-0.3l1.3-0.7c0.1-0.1,0.3-0.1,0.5,0
				l1.1,0.6C45.5,87.8,45.5,87.9,45.3,88z M47.4,86.5l-1.1-0.6c-0.1-0.1-0.3-0.1-0.5,0l-1.3,0.7c-0.1,0.1-0.1,0.2,0,0.3l1.1,0.6
				c0.1,0.1,0.3,0.1,0.5,0l1.3-0.7C47.6,86.7,47.6,86.6,47.4,86.5z M49.5,85.3l-1.1-0.6c-0.1-0.1-0.3-0.1-0.5,0l-1.3,0.7
				c-0.1,0.1-0.1,0.2,0,0.3l1.1,0.6c0.1,0.1,0.3,0.1,0.5,0l1.3-0.7C49.7,85.5,49.7,85.4,49.5,85.3z M51.6,84.1l-1.1-0.6
				c-0.1-0.1-0.3-0.1-0.5,0l-1.3,0.7c-0.1,0.1-0.1,0.2,0,0.3l1.1,0.6c0.1,0.1,0.3,0.1,0.5,0l1.3-0.7C51.8,84.3,51.8,84.2,51.6,84.1z
				 M53.7,82.9l-1.1-0.6c-0.1-0.1-0.3-0.1-0.5,0L50.9,83c-0.1,0.1-0.1,0.2,0,0.3l1.1,0.6c0.1,0.1,0.3,0.1,0.5,0l1.3-0.7
				C53.9,83.1,53.9,83,53.7,82.9z M55.8,81.7L54.7,81c-0.1-0.1-0.3-0.1-0.5,0L53,81.8c-0.1,0.1-0.1,0.2,0,0.3l1.1,0.6
				c0.1,0.1,0.3,0.1,0.5,0l1.3-0.7C55.9,81.9,55.9,81.7,55.8,81.7z M57.9,80.5l-1.1-0.6c-0.1-0.1-0.3-0.1-0.5,0l-1.3,0.7
				c-0.1,0.1-0.1,0.2,0,0.3l1.1,0.6c0.1,0.1,0.3,0.1,0.5,0l1.3-0.7C58,80.7,58,80.5,57.9,80.5z M60,79.3l-1.1-0.6
				c-0.1-0.1-0.3-0.1-0.5,0l-1.3,0.7c-0.1,0.1-0.1,0.2,0,0.3l1.1,0.6c0.1,0.1,0.3,0.1,0.5,0l1.3-0.7C60.1,79.4,60.1,79.3,60,79.3z
				 M62.1,78L61,77.4c-0.1-0.1-0.3-0.1-0.5,0l-1.3,0.7c-0.1,0.1-0.1,0.2,0,0.3l1.1,0.6c0.1,0.1,0.3,0.1,0.5,0l1.3-0.7
				C62.2,78.2,62.2,78.1,62.1,78z M64.9,76.4l-1.1-0.6c-0.1-0.1-0.3-0.1-0.5,0l-2,1.1c-0.1,0.1-0.1,0.2,0,0.3l1.1,0.6
				c0.1,0.1,0.3,0.1,0.5,0l2-1.1C65,76.6,65,76.5,64.9,76.4z M73.9,77.9l-1.1-0.6c-0.1-0.1-0.3-0.1-0.5,0L71,78
				c-0.1,0.1-0.1,0.2,0,0.3l1.1,0.6c0.1,0.1,0.3,0.1,0.5,0l1.3-0.7C74,78.1,74,78,73.9,77.9z M76,76.7L74.9,76
				c-0.1-0.1-0.3-0.1-0.5,0l-1.3,0.7c-0.1,0.1-0.1,0.2,0,0.3l1.1,0.6c0.1,0.1,0.3,0.1,0.5,0l1.3-0.7C76.1,76.9,76.1,76.7,76,76.7z
				 M78.1,75.5L77,74.8c-0.1-0.1-0.3-0.1-0.5,0l-1.3,0.7c-0.1,0.1-0.1,0.2,0,0.3l1.1,0.6c0.1,0.1,0.3,0.1,0.5,0l1.3-0.7
				C78.2,75.7,78.2,75.5,78.1,75.5z M75.8,79l-1.1-0.6c-0.1-0.1-0.3-0.1-0.5,0L73,79.1c-0.1,0.1-0.1,0.2,0,0.3l1.1,0.6
				c0.1,0.1,0.3,0.1,0.5,0l1.3-0.7C75.9,79.2,75.9,79.1,75.8,79z M77.9,77.8l-1.1-0.6c-0.1-0.1-0.3-0.1-0.5,0l-1.3,0.7
				c-0.1,0.1-0.1,0.2,0,0.3l1.1,0.6c0.1,0.1,0.3,0.1,0.5,0l1.3-0.7C78,78,78,77.9,77.9,77.8z M80,76.6l-1.1-0.6
				c-0.1-0.1-0.3-0.1-0.5,0l-1.3,0.7c-0.1,0.1-0.1,0.2,0,0.3l1.1,0.6c0.1,0.1,0.3,0.1,0.5,0l1.3-0.7C80.1,76.8,80.1,76.6,80,76.6z
				 M48,88.4l-1.1-0.6c-0.1-0.1-0.3-0.1-0.5,0l-2,1.1c-0.1,0.1-0.1,0.2,0,0.3l1.1,0.6c0.1,0.1,0.3,0.1,0.5,0l2-1.1
				C48.1,88.6,48.1,88.5,48,88.4z M50.1,87.2L49,86.6c-0.1-0.1-0.3-0.1-0.5,0l-1.3,0.7c-0.1,0.1-0.1,0.2,0,0.3l1.1,0.6
				c0.1,0.1,0.3,0.1,0.5,0l1.3-0.7C50.2,87.4,50.2,87.3,50.1,87.2z M52.2,86l-1.1-0.6c-0.1-0.1-0.3-0.1-0.5,0l-1.3,0.7
				c-0.1,0.1-0.1,0.2,0,0.3l1.1,0.6c0.1,0.1,0.3,0.1,0.5,0l1.3-0.7C52.3,86.2,52.3,86.1,52.2,86z M54.3,84.8l-1.1-0.6
				c-0.1-0.1-0.3-0.1-0.5,0l-1.3,0.7c-0.1,0.1-0.1,0.2,0,0.3l1.1,0.6c0.1,0.1,0.3,0.1,0.5,0l1.3-0.7C54.4,85,54.4,84.9,54.3,84.8z
				 M56.4,83.6L55.3,83c-0.1-0.1-0.3-0.1-0.5,0l-1.3,0.7c-0.1,0.1-0.1,0.2,0,0.3l1.1,0.6c0.1,0.1,0.3,0.1,0.5,0l1.3-0.7
				C56.5,83.8,56.5,83.7,56.4,83.6z M58.5,82.4l-1.1-0.6c-0.1-0.1-0.3-0.1-0.5,0l-1.3,0.7c-0.1,0.1-0.1,0.2,0,0.3l1.1,0.6
				c0.1,0.1,0.3,0.1,0.5,0l1.3-0.7C58.6,82.6,58.6,82.4,58.5,82.4z M60.5,81.2l-1.1-0.6c-0.1-0.1-0.3-0.1-0.5,0l-1.3,0.7
				c-0.1,0.1-0.1,0.2,0,0.3l1.1,0.6c0.1,0.1,0.3,0.1,0.5,0l1.3-0.7C60.7,81.4,60.7,81.2,60.5,81.2z M62.6,80l-1.1-0.6
				c-0.1-0.1-0.3-0.1-0.5,0l-1.3,0.7c-0.1,0.1-0.1,0.2,0,0.3l1.1,0.6c0.1,0.1,0.3,0.1,0.5,0l1.3-0.7C62.8,80.1,62.8,80,62.6,80z
				 M64.7,78.7l-1.1-0.6c-0.1-0.1-0.3-0.1-0.5,0l-1.3,0.7c-0.1,0.1-0.1,0.2,0,0.3l1.1,0.6c0.1,0.1,0.3,0.1,0.5,0l1.3-0.7
				C64.9,78.9,64.9,78.8,64.7,78.7z M66.8,77.5l-1.1-0.6c-0.1-0.1-0.3-0.1-0.5,0L64,77.7c-0.1,0.1-0.1,0.2,0,0.3l1.1,0.6
				c0.1,0.1,0.3,0.1,0.5,0l1.3-0.7C67,77.7,67,77.6,66.8,77.5z M49.1,89.9l-1.1-0.6c-0.1-0.1-0.3-0.1-0.5,0L46.3,90
				c-0.1,0.1-0.1,0.2,0,0.3l1.1,0.6c0.1,0.1,0.3,0.1,0.5,0l1.3-0.7C49.3,90.1,49.3,90,49.1,89.9z M51.2,88.7l-1.1-0.6
				c-0.1-0.1-0.3-0.1-0.5,0l-1.3,0.7c-0.1,0.1-0.1,0.2,0,0.3l1.1,0.6c0.1,0.1,0.3,0.1,0.5,0l1.3-0.7C51.4,88.9,51.4,88.8,51.2,88.7z
				 M53.3,87.5l-1.1-0.6c-0.1-0.1-0.3-0.1-0.5,0l-1.3,0.7c-0.1,0.1-0.1,0.2,0,0.3l1.1,0.6c0.1,0.1,0.3,0.1,0.5,0l1.3-0.7
				C53.5,87.7,53.5,87.6,53.3,87.5z M55.4,86.3l-1.1-0.6c-0.1-0.1-0.3-0.1-0.5,0l-1.3,0.7c-0.1,0.1-0.1,0.2,0,0.3l1.1,0.6
				c0.1,0.1,0.3,0.1,0.5,0l1.3-0.7C55.6,86.5,55.6,86.4,55.4,86.3z M53,92.1l-1.1-0.6c-0.1-0.1-0.3-0.1-0.5,0l-1.3,0.7
				c-0.1,0.1-0.1,0.2,0,0.3l1.1,0.6c0.1,0.1,0.3,0.1,0.5,0l1.3-0.7C53.1,92.3,53.1,92.2,53,92.1z M55,90.9L54,90.3
				c-0.1-0.1-0.3-0.1-0.5,0L52.2,91c-0.1,0.1-0.1,0.2,0,0.3l1.1,0.6c0.1,0.1,0.3,0.1,0.5,0l1.3-0.7C55.2,91.1,55.2,91,55,90.9z
				 M57.1,89.7l-1.1-0.6c-0.1-0.1-0.3-0.1-0.5,0l-1.3,0.7c-0.1,0.1-0.1,0.2,0,0.3l1.1,0.6c0.1,0.1,0.3,0.1,0.5,0l1.3-0.7
				C57.3,89.9,57.3,89.8,57.1,89.7z M59.2,88.5l-1.1-0.6c-0.1-0.1-0.3-0.1-0.5,0l-1.3,0.7c-0.1,0.1-0.1,0.2,0,0.3l1.1,0.6
				c0.1,0.1,0.3,0.1,0.5,0l1.3-0.7C59.4,88.7,59.4,88.6,59.2,88.5z M72.5,80.8l-1.1-0.6c-0.1-0.1-0.3-0.1-0.5,0l-2,1.1
				c-0.1,0.1-0.1,0.2,0,0.3l1.1,0.6c0.1,0.1,0.3,0.1,0.5,0l2-1.1C72.6,81,72.6,80.9,72.5,80.8z M57.5,85.1l-1.1-0.6
				c-0.1-0.1-0.3-0.1-0.5,0l-1.3,0.7c-0.1,0.1-0.1,0.2,0,0.3l1.1,0.6c0.1,0.1,0.3,0.1,0.5,0l1.3-0.7C57.7,85.3,57.7,85.2,57.5,85.1z
				 M59.6,83.9l-1.1-0.6c-0.1-0.1-0.3-0.1-0.5,0L56.8,84c-0.1,0.1-0.1,0.2,0,0.3l1.1,0.6c0.1,0.1,0.3,0.1,0.5,0l1.3-0.7
				C59.8,84.1,59.8,83.9,59.6,83.9z M61.7,82.7L60.6,82c-0.1-0.1-0.3-0.1-0.5,0l-1.3,0.7c-0.1,0.1-0.1,0.2,0,0.3l1.1,0.6
				c0.1,0.1,0.3,0.1,0.5,0l1.3-0.7C61.9,82.9,61.9,82.7,61.7,82.7z M63.8,81.5l-1.1-0.6c-0.1-0.1-0.3-0.1-0.5,0L61,81.6
				c-0.1,0.1-0.1,0.2,0,0.3l1.1,0.6c0.1,0.1,0.3,0.1,0.5,0l1.3-0.7C64,81.6,64,81.5,63.8,81.5z M65.9,80.2l-1.1-0.6
				c-0.1-0.1-0.3-0.1-0.5,0l-1.3,0.7c-0.1,0.1-0.1,0.2,0,0.3l1.1,0.6c0.1,0.1,0.3,0.1,0.5,0l1.3-0.7C66.1,80.4,66.1,80.3,65.9,80.2z
				 M68.7,78.6L67.6,78c-0.1-0.1-0.3-0.1-0.5,0l-2,1.1c-0.1,0.1-0.1,0.2,0,0.3l1.1,0.6c0.1,0.1,0.3,0.1,0.5,0l2-1.1
				C68.8,78.8,68.8,78.7,68.7,78.6z M51.8,90.6L50.7,90c-0.1-0.1-0.3-0.1-0.5,0l-2,1.1c-0.1,0.1-0.1,0.2,0,0.3l1.1,0.6
				c0.1,0.1,0.3,0.1,0.5,0l2-1.1C51.9,90.8,51.9,90.7,51.8,90.6z M53.9,89.4l-1.1-0.6c-0.1-0.1-0.3-0.1-0.5,0L51,89.5
				c-0.1,0.1-0.1,0.2,0,0.3l1.1,0.6c0.1,0.1,0.3,0.1,0.5,0l1.3-0.7C54,89.6,54,89.5,53.9,89.4z M56,88.2l-1.1-0.6
				c-0.1-0.1-0.3-0.1-0.5,0l-1.3,0.7c-0.1,0.1-0.1,0.2,0,0.3l1.1,0.6c0.1,0.1,0.3,0.1,0.5,0l1.3-0.7C56.1,88.4,56.1,88.3,56,88.2z
				 M58.1,87L57,86.4c-0.1-0.1-0.3-0.1-0.5,0l-1.3,0.7c-0.1,0.1-0.1,0.2,0,0.3l1.1,0.6c0.1,0.1,0.3,0.1,0.5,0l1.3-0.7
				C58.2,87.2,58.2,87.1,58.1,87z M60.2,85.8l-1.1-0.6c-0.1-0.1-0.3-0.1-0.5,0l-1.3,0.7c-0.1,0.1-0.1,0.2,0,0.3l1.1,0.6
				c0.1,0.1,0.3,0.1,0.5,0l1.3-0.7C60.3,86,60.3,85.9,60.2,85.8z M69.8,82.4l-1.1-0.6c-0.1-0.1-0.3-0.1-0.5,0l-9.7,5.6
				c-0.1,0.1-0.1,0.2,0,0.3l1.1,0.6c0.1,0.1,0.3,0.1,0.5,0l9.7-5.6C69.9,82.6,69.9,82.5,69.8,82.4z M62.3,84.6l-1.1-0.6
				c-0.1-0.1-0.3-0.1-0.5,0l-1.3,0.7c-0.1,0.1-0.1,0.2,0,0.3l1.1,0.6c0.1,0.1,0.3,0.1,0.5,0l1.3-0.7C62.4,84.8,62.4,84.6,62.3,84.6z
				 M64.4,83.4l-1.1-0.6c-0.1-0.1-0.3-0.1-0.5,0l-1.3,0.7c-0.1,0.1-0.1,0.2,0,0.3l1.1,0.6c0.1,0.1,0.3,0.1,0.5,0l1.3-0.7
				C64.5,83.6,64.5,83.4,64.4,83.4z M66.5,82.2l-1.1-0.6c-0.1-0.1-0.3-0.1-0.5,0l-1.3,0.7c-0.1,0.1-0.1,0.2,0,0.3l1.1,0.6
				c0.1,0.1,0.3,0.1,0.5,0l1.3-0.7C66.6,82.3,66.6,82.2,66.5,82.2z M68.6,80.9l-1.1-0.6c-0.1-0.1-0.3-0.1-0.5,0l-1.3,0.7
				c-0.1,0.1-0.1,0.2,0,0.3l1.1,0.6c0.1,0.1,0.3,0.1,0.5,0l1.3-0.7C68.7,81.1,68.7,81,68.6,80.9z M70.7,79.7l-1.1-0.6
				c-0.1-0.1-0.3-0.1-0.5,0l-1.3,0.7c-0.1,0.1-0.1,0.2,0,0.3l1.1,0.6c0.1,0.1,0.3,0.1,0.5,0l1.3-0.7C70.8,79.9,70.8,79.8,70.7,79.7z
				 M68.2,74.6l-1.1-0.6c-0.1-0.1-0.3-0.1-0.5,0l-1.3,0.7c-0.1,0.1-0.1,0.2,0,0.3l1.1,0.6c0.1,0.1,0.3,0.1,0.5,0l1.3-0.7
				C68.3,74.8,68.3,74.6,68.2,74.6z M70.2,73.4l-1.1-0.6c-0.1-0.1-0.3-0.1-0.5,0l-1.3,0.7c-0.1,0.1-0.1,0.2,0,0.3l1.1,0.6
				c0.1,0.1,0.3,0.1,0.5,0l1.3-0.7C70.4,73.5,70.4,73.4,70.2,73.4z M72.3,72.1l-1.1-0.6c-0.1-0.1-0.3-0.1-0.5,0l-1.3,0.7
				c-0.1,0.1-0.1,0.2,0,0.3l1.1,0.6c0.1,0.1,0.3,0.1,0.5,0l1.3-0.7C72.5,72.3,72.5,72.2,72.3,72.1z M74.3,73.2l-1.1-0.6
				c-0.1-0.1-0.3-0.1-0.5,0l-1.3,0.7c-0.1,0.1-0.1,0.2,0,0.3l1.1,0.6c0.1,0.1,0.3,0.1,0.5,0l1.3-0.7C74.4,73.4,74.4,73.3,74.3,73.2z
				 M76.1,74.3L75,73.7c-0.1-0.1-0.3-0.1-0.4,0l-1.8,1c-0.1,0.1-0.2,0.1-0.3,0l-1.4-0.8c-0.2-0.1-0.4-0.1-0.6,0l-3.3,1.9
				c-0.2,0.1-0.2,0.2,0,0.3l2.9,1.7c0.2,0.1,0.4,0.1,0.6,0l5.5-3.2C76.3,74.5,76.3,74.4,76.1,74.3z"/>
			<path class="st6" d="M45.3,87.8L44,88.5c-0.1,0.1-0.3,0.1-0.5,0l-1.1-0.6c-0.1-0.1-0.1-0.2,0-0.3l1.3-0.7c0.1-0.1,0.3-0.1,0.5,0
				l1.1,0.6C45.5,87.6,45.5,87.7,45.3,87.8z M47.4,86.3l-1.1-0.6c-0.1-0.1-0.3-0.1-0.5,0l-1.3,0.7c-0.1,0.1-0.1,0.2,0,0.3l1.1,0.6
				c0.1,0.1,0.3,0.1,0.5,0l1.3-0.7C47.6,86.5,47.6,86.4,47.4,86.3z M49.5,85.1l-1.1-0.6c-0.1-0.1-0.3-0.1-0.5,0l-1.3,0.7
				c-0.1,0.1-0.1,0.2,0,0.3l1.1,0.6c0.1,0.1,0.3,0.1,0.5,0l1.3-0.7C49.7,85.3,49.7,85.2,49.5,85.1z M51.6,83.9l-1.1-0.6
				c-0.1-0.1-0.3-0.1-0.5,0L48.8,84c-0.1,0.1-0.1,0.2,0,0.3l1.1,0.6c0.1,0.1,0.3,0.1,0.5,0l1.3-0.7C51.8,84.1,51.8,84,51.6,83.9z
				 M53.7,82.7l-1.1-0.6c-0.1-0.1-0.3-0.1-0.5,0l-1.3,0.7c-0.1,0.1-0.1,0.2,0,0.3l1.1,0.6c0.1,0.1,0.3,0.1,0.5,0l1.3-0.7
				C53.9,82.9,53.9,82.8,53.7,82.7z M55.8,81.5l-1.1-0.6c-0.1-0.1-0.3-0.1-0.5,0L53,81.6c-0.1,0.1-0.1,0.2,0,0.3l1.1,0.6
				c0.1,0.1,0.3,0.1,0.5,0l1.3-0.7C55.9,81.7,55.9,81.6,55.8,81.5z M57.9,80.3l-1.1-0.6c-0.1-0.1-0.3-0.1-0.5,0l-1.3,0.7
				c-0.1,0.1-0.1,0.2,0,0.3l1.1,0.6c0.1,0.1,0.3,0.1,0.5,0l1.3-0.7C58,80.5,58,80.3,57.9,80.3z M60,79.1l-1.1-0.6
				c-0.1-0.1-0.3-0.1-0.5,0l-1.3,0.7c-0.1,0.1-0.1,0.2,0,0.3l1.1,0.6c0.1,0.1,0.3,0.1,0.5,0l1.3-0.7C60.1,79.3,60.1,79.1,60,79.1z
				 M62.1,77.8L61,77.2c-0.1-0.1-0.3-0.1-0.5,0L59.3,78c-0.1,0.1-0.1,0.2,0,0.3l1.1,0.6c0.1,0.1,0.3,0.1,0.5,0l1.3-0.7
				C62.2,78,62.2,77.9,62.1,77.8z M64.9,76.2l-1.1-0.6c-0.1-0.1-0.3-0.1-0.5,0l-2,1.1c-0.1,0.1-0.1,0.2,0,0.3l1.1,0.6
				c0.1,0.1,0.3,0.1,0.5,0l2-1.1C65,76.4,65,76.3,64.9,76.2z M73.9,77.7l-1.1-0.6c-0.1-0.1-0.3-0.1-0.5,0L71,77.8
				c-0.1,0.1-0.1,0.2,0,0.3l1.1,0.6c0.1,0.1,0.3,0.1,0.5,0l1.3-0.7C74,77.9,74,77.8,73.9,77.7z M76,76.5l-1.1-0.6
				c-0.1-0.1-0.3-0.1-0.5,0l-1.3,0.7c-0.1,0.1-0.1,0.2,0,0.3l1.1,0.6c0.1,0.1,0.3,0.1,0.5,0l1.3-0.7C76.1,76.7,76.1,76.6,76,76.5z
				 M78.1,75.3L77,74.6c-0.1-0.1-0.3-0.1-0.5,0l-1.3,0.7c-0.1,0.1-0.1,0.2,0,0.3l1.1,0.6c0.1,0.1,0.3,0.1,0.5,0l1.3-0.7
				C78.2,75.5,78.2,75.3,78.1,75.3z M75.8,78.8l-1.1-0.6c-0.1-0.1-0.3-0.1-0.5,0L73,78.9c-0.1,0.1-0.1,0.2,0,0.3l1.1,0.6
				c0.1,0.1,0.3,0.1,0.5,0l1.3-0.7C75.9,79,75.9,78.9,75.8,78.8z M77.9,77.6L76.8,77c-0.1-0.1-0.3-0.1-0.5,0l-1.3,0.7
				c-0.1,0.1-0.1,0.2,0,0.3l1.1,0.6c0.1,0.1,0.3,0.1,0.5,0l1.3-0.7C78,77.8,78,77.7,77.9,77.6z M80,76.4l-1.1-0.6
				c-0.1-0.1-0.3-0.1-0.5,0l-1.3,0.7c-0.1,0.1-0.1,0.2,0,0.3l1.1,0.6c0.1,0.1,0.3,0.1,0.5,0l1.3-0.7C80.1,76.6,80.1,76.4,80,76.4z
				 M48,88.2l-1.1-0.6c-0.1-0.1-0.3-0.1-0.5,0l-2,1.1c-0.1,0.1-0.1,0.2,0,0.3l1.1,0.6c0.1,0.1,0.3,0.1,0.5,0l2-1.1
				C48.1,88.4,48.1,88.3,48,88.2z M50.1,87L49,86.4c-0.1-0.1-0.3-0.1-0.5,0l-1.3,0.7c-0.1,0.1-0.1,0.2,0,0.3l1.1,0.6
				c0.1,0.1,0.3,0.1,0.5,0l1.3-0.7C50.2,87.2,50.2,87.1,50.1,87z M52.2,85.8l-1.1-0.6c-0.1-0.1-0.3-0.1-0.5,0l-1.3,0.7
				c-0.1,0.1-0.1,0.2,0,0.3l1.1,0.6c0.1,0.1,0.3,0.1,0.5,0l1.3-0.7C52.3,86,52.3,85.9,52.2,85.8z M54.3,84.6L53.2,84
				c-0.1-0.1-0.3-0.1-0.5,0l-1.3,0.7c-0.1,0.1-0.1,0.2,0,0.3l1.1,0.6c0.1,0.1,0.3,0.1,0.5,0l1.3-0.7C54.4,84.8,54.4,84.7,54.3,84.6z
				 M56.4,83.4l-1.1-0.6c-0.1-0.1-0.3-0.1-0.5,0l-1.3,0.7c-0.1,0.1-0.1,0.2,0,0.3l1.1,0.6c0.1,0.1,0.3,0.1,0.5,0l1.3-0.7
				C56.5,83.6,56.5,83.5,56.4,83.4z M58.5,82.2l-1.1-0.6c-0.1-0.1-0.3-0.1-0.5,0l-1.3,0.7c-0.1,0.1-0.1,0.2,0,0.3l1.1,0.6
				c0.1,0.1,0.3,0.1,0.5,0l1.3-0.7C58.6,82.4,58.6,82.3,58.5,82.2z M60.5,81l-1.1-0.6c-0.1-0.1-0.3-0.1-0.5,0l-1.3,0.7
				c-0.1,0.1-0.1,0.2,0,0.3l1.1,0.6c0.1,0.1,0.3,0.1,0.5,0l1.3-0.7C60.7,81.2,60.7,81,60.5,81z M62.6,79.8l-1.1-0.6
				c-0.1-0.1-0.3-0.1-0.5,0l-1.3,0.7c-0.1,0.1-0.1,0.2,0,0.3l1.1,0.6c0.1,0.1,0.3,0.1,0.5,0l1.3-0.7C62.8,80,62.8,79.8,62.6,79.8z
				 M64.7,78.6l-1.1-0.6c-0.1-0.1-0.3-0.1-0.5,0l-1.3,0.7c-0.1,0.1-0.1,0.2,0,0.3l1.1,0.6c0.1,0.1,0.3,0.1,0.5,0l1.3-0.7
				C64.9,78.7,64.9,78.6,64.7,78.6z M66.8,77.3l-1.1-0.6c-0.1-0.1-0.3-0.1-0.5,0L64,77.5c-0.1,0.1-0.1,0.2,0,0.3l1.1,0.6
				c0.1,0.1,0.3,0.1,0.5,0l1.3-0.7C67,77.5,67,77.4,66.8,77.3z M49.1,89.7l-1.1-0.6c-0.1-0.1-0.3-0.1-0.5,0l-1.3,0.7
				c-0.1,0.1-0.1,0.2,0,0.3l1.1,0.6c0.1,0.1,0.3,0.1,0.5,0l1.3-0.7C49.3,89.9,49.3,89.8,49.1,89.7z M51.2,88.5l-1.1-0.6
				c-0.1-0.1-0.3-0.1-0.5,0l-1.3,0.7c-0.1,0.1-0.1,0.2,0,0.3l1.1,0.6c0.1,0.1,0.3,0.1,0.5,0l1.3-0.7C51.4,88.7,51.4,88.6,51.2,88.5z
				 M53.3,87.3l-1.1-0.6c-0.1-0.1-0.3-0.1-0.5,0l-1.3,0.7c-0.1,0.1-0.1,0.2,0,0.3l1.1,0.6c0.1,0.1,0.3,0.1,0.5,0l1.3-0.7
				C53.5,87.5,53.5,87.4,53.3,87.3z M55.4,86.1l-1.1-0.6c-0.1-0.1-0.3-0.1-0.5,0l-1.3,0.7c-0.1,0.1-0.1,0.2,0,0.3l1.1,0.6
				c0.1,0.1,0.3,0.1,0.5,0l1.3-0.7C55.6,86.3,55.6,86.2,55.4,86.1z M53,91.9l-1.1-0.6c-0.1-0.1-0.3-0.1-0.5,0L50.1,92
				c-0.1,0.1-0.1,0.2,0,0.3l1.1,0.6c0.1,0.1,0.3,0.1,0.5,0l1.3-0.7C53.1,92.1,53.1,92,53,91.9z M55,90.7L54,90.1
				c-0.1-0.1-0.3-0.1-0.5,0l-1.3,0.7c-0.1,0.1-0.1,0.2,0,0.3l1.1,0.6c0.1,0.1,0.3,0.1,0.5,0L55,91C55.2,90.9,55.2,90.8,55,90.7z
				 M57.1,89.5l-1.1-0.6c-0.1-0.1-0.3-0.1-0.5,0l-1.3,0.7c-0.1,0.1-0.1,0.2,0,0.3l1.1,0.6c0.1,0.1,0.3,0.1,0.5,0l1.3-0.7
				C57.3,89.7,57.3,89.6,57.1,89.5z M59.2,88.3l-1.1-0.6c-0.1-0.1-0.3-0.1-0.5,0l-1.3,0.7c-0.1,0.1-0.1,0.2,0,0.3l1.1,0.6
				c0.1,0.1,0.3,0.1,0.5,0l1.3-0.7C59.4,88.5,59.4,88.4,59.2,88.3z M72.5,80.7L71.4,80c-0.1-0.1-0.3-0.1-0.5,0l-2,1.1
				c-0.1,0.1-0.1,0.2,0,0.3l1.1,0.6c0.1,0.1,0.3,0.1,0.5,0l2-1.1C72.6,80.8,72.6,80.7,72.5,80.7z M57.5,84.9l-1.1-0.6
				c-0.1-0.1-0.3-0.1-0.5,0L54.7,85c-0.1,0.1-0.1,0.2,0,0.3l1.1,0.6c0.1,0.1,0.3,0.1,0.5,0l1.3-0.7C57.7,85.1,57.7,85,57.5,84.9z
				 M59.6,83.7l-1.1-0.6c-0.1-0.1-0.3-0.1-0.5,0l-1.3,0.7c-0.1,0.1-0.1,0.2,0,0.3l1.1,0.6c0.1,0.1,0.3,0.1,0.5,0l1.3-0.7
				C59.8,83.9,59.8,83.8,59.6,83.7z M61.7,82.5l-1.1-0.6c-0.1-0.1-0.3-0.1-0.5,0l-1.3,0.7c-0.1,0.1-0.1,0.2,0,0.3l1.1,0.6
				c0.1,0.1,0.3,0.1,0.5,0l1.3-0.7C61.9,82.7,61.9,82.5,61.7,82.5z M63.8,81.3l-1.1-0.6c-0.1-0.1-0.3-0.1-0.5,0L61,81.4
				c-0.1,0.1-0.1,0.2,0,0.3l1.1,0.6c0.1,0.1,0.3,0.1,0.5,0l1.3-0.7C64,81.5,64,81.3,63.8,81.3z M65.9,80l-1.1-0.6
				c-0.1-0.1-0.3-0.1-0.5,0l-1.3,0.7c-0.1,0.1-0.1,0.2,0,0.3l1.1,0.6c0.1,0.1,0.3,0.1,0.5,0l1.3-0.7C66.1,80.2,66.1,80.1,65.9,80z
				 M68.7,78.4l-1.1-0.6c-0.1-0.1-0.3-0.1-0.5,0l-2,1.1c-0.1,0.1-0.1,0.2,0,0.3l1.1,0.6c0.1,0.1,0.3,0.1,0.5,0l2-1.1
				C68.8,78.6,68.8,78.5,68.7,78.4z M51.8,90.4l-1.1-0.6c-0.1-0.1-0.3-0.1-0.5,0l-2,1.1c-0.1,0.1-0.1,0.2,0,0.3l1.1,0.6
				c0.1,0.1,0.3,0.1,0.5,0l2-1.1C51.9,90.6,51.9,90.5,51.8,90.4z M53.9,89.2l-1.1-0.6c-0.1-0.1-0.3-0.1-0.5,0L51,89.3
				c-0.1,0.1-0.1,0.2,0,0.3l1.1,0.6c0.1,0.1,0.3,0.1,0.5,0l1.3-0.7C54,89.4,54,89.3,53.9,89.2z M56,88l-1.1-0.6
				c-0.1-0.1-0.3-0.1-0.5,0l-1.3,0.7c-0.1,0.1-0.1,0.2,0,0.3l1.1,0.6c0.1,0.1,0.3,0.1,0.5,0l1.3-0.7C56.1,88.2,56.1,88.1,56,88z
				 M58.1,86.8L57,86.2c-0.1-0.1-0.3-0.1-0.5,0l-1.3,0.7c-0.1,0.1-0.1,0.2,0,0.3l1.1,0.6c0.1,0.1,0.3,0.1,0.5,0l1.3-0.7
				C58.2,87,58.2,86.9,58.1,86.8z M60.2,85.6L59.1,85c-0.1-0.1-0.3-0.1-0.5,0l-1.3,0.7c-0.1,0.1-0.1,0.2,0,0.3l1.1,0.6
				c0.1,0.1,0.3,0.1,0.5,0l1.3-0.7C60.3,85.8,60.3,85.7,60.2,85.6z M69.8,82.2l-1.1-0.6c-0.1-0.1-0.3-0.1-0.5,0l-9.7,5.6
				c-0.1,0.1-0.1,0.2,0,0.3l1.1,0.6c0.1,0.1,0.3,0.1,0.5,0l9.7-5.6C69.9,82.4,69.9,82.3,69.8,82.2z M62.3,84.4l-1.1-0.6
				c-0.1-0.1-0.3-0.1-0.5,0l-1.3,0.7c-0.1,0.1-0.1,0.2,0,0.3l1.1,0.6c0.1,0.1,0.3,0.1,0.5,0l1.3-0.7C62.4,84.6,62.4,84.5,62.3,84.4z
				 M64.4,83.2l-1.1-0.6c-0.1-0.1-0.3-0.1-0.5,0l-1.3,0.7c-0.1,0.1-0.1,0.2,0,0.3l1.1,0.6c0.1,0.1,0.3,0.1,0.5,0l1.3-0.7
				C64.5,83.4,64.5,83.2,64.4,83.2z M66.5,82l-1.1-0.6c-0.1-0.1-0.3-0.1-0.5,0l-1.3,0.7c-0.1,0.1-0.1,0.2,0,0.3l1.1,0.6
				c0.1,0.1,0.3,0.1,0.5,0l1.3-0.7C66.6,82.2,66.6,82,66.5,82z M68.6,80.8l-1.1-0.6c-0.1-0.1-0.3-0.1-0.5,0l-1.3,0.7
				c-0.1,0.1-0.1,0.2,0,0.3l1.1,0.6c0.1,0.1,0.3,0.1,0.5,0l1.3-0.7C68.7,80.9,68.7,80.8,68.6,80.8z M70.7,79.5l-1.1-0.6
				c-0.1-0.1-0.3-0.1-0.5,0l-1.3,0.7c-0.1,0.1-0.1,0.2,0,0.3l1.1,0.6c0.1,0.1,0.3,0.1,0.5,0l1.3-0.7C70.8,79.7,70.8,79.6,70.7,79.5z
				 M68.2,74.4l-1.1-0.6c-0.1-0.1-0.3-0.1-0.5,0l-1.3,0.7c-0.1,0.1-0.1,0.2,0,0.3l1.1,0.6c0.1,0.1,0.3,0.1,0.5,0l1.3-0.7
				C68.3,74.6,68.3,74.4,68.2,74.4z M70.2,73.2l-1.1-0.6c-0.1-0.1-0.3-0.1-0.5,0l-1.3,0.7c-0.1,0.1-0.1,0.2,0,0.3l1.1,0.6
				c0.1,0.1,0.3,0.1,0.5,0l1.3-0.7C70.4,73.4,70.4,73.2,70.2,73.2z M72.3,72l-1.1-0.6c-0.1-0.1-0.3-0.1-0.5,0l-1.3,0.7
				c-0.1,0.1-0.1,0.2,0,0.3l1.1,0.6c0.1,0.1,0.3,0.1,0.5,0l1.3-0.7C72.5,72.1,72.5,72,72.3,72z M74.3,73.1l-1.1-0.6
				c-0.1-0.1-0.3-0.1-0.5,0l-1.3,0.7c-0.1,0.1-0.1,0.2,0,0.3l1.1,0.6c0.1,0.1,0.3,0.1,0.5,0l1.3-0.7C74.4,73.2,74.4,73.1,74.3,73.1z
				 M76.1,74.1L75,73.5c-0.1-0.1-0.3-0.1-0.4,0l-1.8,1c-0.1,0.1-0.2,0.1-0.3,0l-1.4-0.8c-0.2-0.1-0.4-0.1-0.6,0l-3.3,1.9
				c-0.2,0.1-0.2,0.2,0,0.3l2.9,1.7c0.2,0.1,0.4,0.1,0.6,0l5.5-3.2C76.3,74.3,76.3,74.2,76.1,74.1z"/>
		</g>
	</g>
	<g>
		<g>
			<defs>
				<polygon id="SVGID_2_" points="18,42 75.9,8.6 75.9,42.5 18,75.9 				"/>
			</defs>
			<use xlink:href="#SVGID_2_"  style="overflow:visible;fill:#4F80BA;"/>
			<clipPath id="SVGID_3_">
				<use xlink:href="#SVGID_2_"  style="overflow:visible;"/>
			</clipPath>
			<path class="st7" d="M60.1,30.2c-0.9,0.5-1.7,1.2-2.5,1.9c-0.6-1-2.1-1.2-3.7-0.2c-0.2,0.1-0.3,0.2-0.5,0.3
				c-0.2-2.5-2.4-3.4-5.1-1.8c-2.5,1.5-4.7,4.5-5.1,7.2c-0.6,0.1-1.3,0.4-2.1,0.8c-2.9,1.6-5.2,5.2-5.4,8.1
				c-0.6,0.1-1.2,0.3-1.9,0.7c-2.8,1.6-5.1,5.3-5.1,8.1s2.3,3.8,5.1,2.2l26.2-15.1c3.4-1.9,6.1-6.2,6.1-9.6
				C66.2,29.4,63.5,28.2,60.1,30.2z"/>
		</g>
		<g>
			<path class="st3" d="M39,47.4v3.9l16.8-9.7v-3.9L39,47.4z M55.4,41.5l-16.1,9.3v-3.2l16.1-9.3V41.5z"/>
			<polygon class="st8" points="51.4,41 51.4,43.2 39.8,49.9 39.8,47.7 			"/>
		</g>
		<path class="st8" d="M40.1,44.8l1.3-0.7v0.3l-1.6,0.9v-3l0.3-0.2V44.8z M43.4,42.1L43.4,42.1c0,0.7-0.3,1.3-0.9,1.6
			c-0.6,0.4-0.9,0-0.9-0.5v-0.1c0-0.6,0.3-1.2,0.9-1.5C43.1,41.2,43.4,41.5,43.4,42.1z M43.1,42.2c0-0.5-0.2-0.7-0.6-0.4
			c-0.4,0.2-0.6,0.7-0.6,1.1V43c0,0.5,0.2,0.7,0.6,0.4C42.9,43.2,43.1,42.8,43.1,42.2L43.1,42.2z M45.3,41.5l0,0.6l-0.2,0.1l0-0.3
			c-0.1,0.3-0.4,0.5-0.7,0.8c-0.4,0.2-0.6,0.1-0.6-0.2v0c0-0.4,0.3-0.8,0.7-1l0.6-0.5v-0.1c0-0.4-0.1-0.5-0.5-0.3
			c-0.4,0.2-0.5,0.5-0.5,0.8l-0.3,0.2v0c0-0.3,0.1-0.8,0.7-1.1c0.6-0.3,0.7-0.1,0.7,0.3V41.5z M45.1,41.1l-0.6,0.4
			C44.2,41.8,44,42,44,42.2v0c0,0.2,0.1,0.3,0.4,0.1c0.4-0.2,0.6-0.5,0.6-0.7V41.1z M47.4,40.3l0,0.6L47.2,41l0-0.3
			c-0.1,0.2-0.3,0.5-0.6,0.7c-0.6,0.3-0.8,0-0.8-0.6v-0.1c0-0.6,0.2-1.2,0.8-1.5c0.3-0.2,0.5-0.1,0.6-0.1v-1.3l0.3-0.2V40.3z
			 M47.2,39.5c-0.1-0.1-0.2-0.2-0.5,0c-0.4,0.2-0.6,0.6-0.6,1.1v0.1c0,0.5,0.2,0.7,0.6,0.5c0.3-0.2,0.4-0.4,0.5-0.6V39.5z M47.9,38
			l0.4-0.2v-0.4l-0.4,0.2V38z M48,40.5l0.3-0.2v-2.1L48,38.5V40.5z M49.7,37.4c-0.4,0.2-0.6,0.5-0.7,0.7l0-0.3L48.8,38l0,0.6v1.5
			l0.3-0.2v-1.5c0.1-0.2,0.2-0.5,0.6-0.6c0.3-0.2,0.4-0.1,0.4,0.2v1.4l0.3-0.2v-1.4C50.3,37.3,50.1,37.2,49.7,37.4z M52.2,36
			l0.2-0.1l0,0.6V38c0,0.5-0.2,0.9-0.8,1.3c-0.6,0.3-0.8,0.1-0.8-0.3v-0.1l0.3-0.2c0,0.4,0.1,0.5,0.5,0.3c0.4-0.2,0.5-0.5,0.5-0.9
			v-0.4c-0.1,0.2-0.3,0.4-0.6,0.6c-0.6,0.3-0.8,0-0.8-0.5v-0.1c0-0.5,0.2-1.1,0.8-1.4c0.3-0.2,0.5-0.1,0.6,0L52.2,36z M52.1,36.6
			c-0.1-0.1-0.2-0.2-0.5,0c-0.4,0.2-0.6,0.6-0.6,1v0.1c0,0.4,0.2,0.6,0.6,0.4c0.3-0.2,0.4-0.4,0.5-0.6V36.6z M52.9,37.7l0.4-0.2
			v-0.4l-0.4,0.2V37.7z M53.8,37.2l0.4-0.2v-0.4l-0.4,0.2V37.2z M54.6,36.3v0.4l0.4-0.2v-0.4L54.6,36.3z"/>
	</g>
</g>
</svg>
