<?xml version="1.0" encoding="utf-8"?>
<!-- Generator: Adobe Illustrator 19.1.0, SVG Export Plug-In . SVG Version: 6.00 Build 0)  -->
<svg version="1.1" id="Layer_1" xmlns="http://www.w3.org/2000/svg" xmlns:xlink="http://www.w3.org/1999/xlink" x="0px" y="0px"
	 viewBox="0 0 100 100" style="enable-background:new 0 0 100 100;" xml:space="preserve">
<style type="text/css">
	.st0{fill:#2A2C2D;}
	.st1{opacity:0.7;}
	.st2{opacity:0;fill:#FFFFFF;}
	.st3{opacity:0.1667;fill:#FFFFFF;}
	.st4{opacity:0.3333;fill:#FFFFFF;}
	.st5{opacity:0.5;fill:#FFFFFF;}
	.st6{opacity:0.6667;fill:#FFFFFF;}
	.st7{opacity:0.8333;fill:#FFFFFF;}
	.st8{fill:#FFFFFF;}
	.st9{enable-background:new    ;}
	.st10{fill:#313436;}
	.st11{fill:#434749;}
	.st12{fill:#AD8C49;}
	.st13{fill:#E9ECED;}
	.st14{fill:#C0C6C7;}
	.st15{opacity:0.4;}
	.st16{fill:url(#SVGID_1_);}
	.st17{fill:#20252B;}
	.st18{opacity:0.5;fill:#72C93F;}
	.st19{fill:#72C93F;}
	.st20{opacity:0.5;fill:#EDB23B;}
	.st21{fill:#EDB23B;}
</style>
<g id="_x33_">
	<g>
		<g>
			<g>
				<path class="st0" d="M48.5,50.6c0-0.4-0.7-46.2-0.7-46.5l0,0c0-0.6-0.5-1.2-1.2-1.3c0,0,0,0,0,0c-0.4,0-0.7,0.1-0.6,0.1
					c-0.3,0.1-0.5,0.3-0.4,0.3c-0.3,0.2-0.4,0.6-0.4,0.9v0v0l-1,46.5C44.1,52.3,48.5,52.2,48.5,50.6z"/>
				<g class="st1">
					<circle class="st2" cx="46.8" cy="3.7" r="0.6"/>
					<circle class="st3" cx="46.8" cy="3.7" r="0.5"/>
					<circle class="st4" cx="46.8" cy="3.7" r="0.5"/>
					<ellipse class="st5" cx="46.8" cy="3.7" rx="0.4" ry="0.4"/>
					<ellipse class="st6" cx="46.8" cy="3.7" rx="0.3" ry="0.3"/>
					<ellipse class="st7" cx="46.8" cy="3.7" rx="0.2" ry="0.2"/>
					<ellipse class="st8" cx="46.8" cy="3.7" rx="0.2" ry="0.2"/>
				</g>
			</g>
			<g class="st9">
				<g>
					<polygon class="st10" points="57.1,48.1 57.1,53 53.9,54.8 53.9,49.9 					"/>
				</g>
				<g>
					<polygon class="st10" points="53.9,49.9 53.9,54.8 45.2,49.8 45.2,44.9 					"/>
				</g>
				<g>
					<path class="st11" d="M57.1,48.1l-3.2,1.8l-8.7-5c0.8,0,1.6-0.2,2.2-0.6c0.6-0.4,0.9-0.8,1-1.3L57.1,48.1z"/>
				</g>
			</g>
		</g>
		<path class="st12" d="M46.7,48c0,0.3-0.2,0.3-0.5,0.2c-0.3-0.1-0.5-0.5-0.5-0.7c0-0.3,0.2-0.3,0.5-0.2
			C46.5,47.4,46.7,47.8,46.7,48z"/>
	</g>
	<g>
		<g>
			<g>
				<path class="st0" d="M13.9,70.6c0-0.4-0.7-46.2-0.7-46.5l0,0c0-0.6-0.5-1.2-1.2-1.3c0,0,0,0,0,0c-0.4,0-0.7,0.1-0.6,0.1
					c-0.3,0.1-0.5,0.3-0.4,0.3c-0.3,0.2-0.4,0.6-0.4,0.9v0v0l-1,46.5C9.5,72.4,13.9,72.3,13.9,70.6z"/>
				<g class="st1">
					<circle class="st2" cx="12.2" cy="23.8" r="0.6"/>
					<circle class="st3" cx="12.2" cy="23.8" r="0.5"/>
					<circle class="st4" cx="12.2" cy="23.8" r="0.5"/>
					<ellipse class="st5" cx="12.2" cy="23.8" rx="0.4" ry="0.4"/>
					<ellipse class="st6" cx="12.2" cy="23.8" rx="0.3" ry="0.3"/>
					<ellipse class="st7" cx="12.2" cy="23.8" rx="0.2" ry="0.2"/>
					<ellipse class="st8" cx="12.2" cy="23.8" rx="0.2" ry="0.2"/>
				</g>
			</g>
			<g class="st9">
				<g>
					<polygon class="st10" points="22.5,68.2 22.5,73.1 19.3,74.9 19.3,70 					"/>
				</g>
				<g>
					<polygon class="st10" points="19.3,70 19.3,74.9 10.6,69.9 10.6,65 					"/>
				</g>
				<g>
					<path class="st11" d="M22.5,68.2L19.3,70l-8.7-5c0.8,0,1.6-0.2,2.2-0.6c0.6-0.4,0.9-0.8,1-1.3L22.5,68.2z"/>
				</g>
			</g>
		</g>
		<path class="st12" d="M12.1,68.1c0,0.3-0.2,0.3-0.5,0.2c-0.3-0.1-0.5-0.5-0.5-0.7c0-0.3,0.2-0.3,0.5-0.2
			C11.9,67.5,12.1,67.8,12.1,68.1z"/>
	</g>
	<g class="st9">
		<g>
			<polygon class="st13" points="11.8,69.1 56.4,43.1 76.3,54.6 31.7,80.6 			"/>
		</g>
		<g>
			<polygon class="st14" points="45.3,91.4 89.9,65.5 89.9,72.1 45.2,98.1 			"/>
		</g>
		<g>
			<polygon class="st13" points="31.7,80.6 76.3,54.6 89.9,65.5 45.3,91.4 			"/>
		</g>
		<g class="st15">
			<polygon class="st14" points="31.7,80.6 76.3,54.6 89.9,65.5 45.3,91.4 			"/>
		</g>
		<g>
			<linearGradient id="SVGID_1_" gradientUnits="userSpaceOnUse" x1="11.7455" y1="83.5677" x2="45.2663" y2="83.5677">
				<stop  offset="0" style="stop-color:#B2B9BB"/>
				<stop  offset="1" style="stop-color:#A1AAAD"/>
			</linearGradient>
			<polygon class="st16" points="31.7,80.6 45.3,91.4 45.2,98.1 11.7,78.7 11.8,69.1 			"/>
		</g>
		<polygon class="st17" points="46.7,92.1 46.7,95.7 60.1,88 60.1,84.3 		"/>
		<g>
			<path class="st18" d="M49.5,92.1c-0.1-0.2-0.2-0.3-0.4-0.3c-0.2,0-0.3,0.1-0.5,0.2c-0.3,0.3-0.5,0.8-0.4,1.1
				c0.1,0.2,0.2,0.3,0.4,0.3c0.2,0,0.3-0.1,0.5-0.2C49.5,92.9,49.6,92.5,49.5,92.1z"/>
			<path class="st19" d="M48.6,92.1c-0.3,0.3-0.4,0.7-0.4,0.9c0.1,0.3,0.4,0.3,0.6,0c0.3-0.3,0.4-0.7,0.4-0.9
				C49.1,91.8,48.9,91.8,48.6,92.1z"/>
			<path class="st18" d="M52.5,90.4c-0.1-0.2-0.2-0.3-0.4-0.3c-0.2,0-0.3,0.1-0.5,0.2c-0.3,0.3-0.5,0.8-0.4,1.1
				c0.1,0.2,0.2,0.3,0.4,0.3c0.2,0,0.3-0.1,0.5-0.2C52.4,91.2,52.6,90.7,52.5,90.4z"/>
			<path class="st19" d="M51.6,90.3c-0.3,0.3-0.4,0.7-0.4,0.9c0.1,0.3,0.4,0.3,0.6,0c0.3-0.3,0.4-0.7,0.4-0.9
				C52.1,90.1,51.8,90.1,51.6,90.3z"/>
			<path class="st18" d="M55.5,88.7c-0.1-0.2-0.2-0.3-0.4-0.3c-0.2,0-0.3,0.1-0.5,0.2c-0.3,0.3-0.5,0.8-0.4,1.1
				c0.1,0.2,0.2,0.3,0.4,0.3c0.2,0,0.3-0.1,0.5-0.2C55.4,89.5,55.6,89,55.5,88.7z"/>
			<path class="st19" d="M54.5,88.6c-0.3,0.3-0.4,0.7-0.4,0.9c0.1,0.3,0.4,0.3,0.6,0c0.3-0.3,0.4-0.7,0.4-0.9
				C55.1,88.4,54.8,88.3,54.5,88.6z"/>
			<path class="st20" d="M58.5,86.9c-0.1-0.2-0.2-0.3-0.4-0.3c-0.2,0-0.3,0.1-0.5,0.2c-0.3,0.3-0.5,0.8-0.4,1.1
				c0.1,0.2,0.2,0.3,0.4,0.3c0.2,0,0.3-0.1,0.5-0.2C58.4,87.7,58.6,87.2,58.5,86.9z"/>
			<path class="st21" d="M57.5,86.9c-0.3,0.3-0.4,0.7-0.4,0.9c0.1,0.3,0.4,0.3,0.6,0c0.3-0.3,0.4-0.7,0.4-0.9
				C58.1,86.6,57.8,86.6,57.5,86.9z"/>
		</g>
		<polygon class="st17" points="69.4,78.9 69.4,82.5 87.6,72 87.6,68.3 		"/>
	</g>
</g>
</svg>
