<?xml version="1.0" encoding="utf-8"?>
<!-- Generator: Adobe Illustrator 19.1.0, SVG Export Plug-In . SVG Version: 6.00 Build 0)  -->
<svg version="1.1" id="Layer_1" xmlns="http://www.w3.org/2000/svg" xmlns:xlink="http://www.w3.org/1999/xlink" x="0px" y="0px"
	 viewBox="0 0 100 100" style="enable-background:new 0 0 100 100;" xml:space="preserve">
<style type="text/css">
	.st0{enable-background:new    ;}
	.st1{fill:#B2B9BB;}
	.st2{fill:#E9ECED;}
	.st3{fill:#C0C6C7;}
	.st4{opacity:0.2;fill:#B2B9BB;}
	.st5{opacity:0.3;fill:#B2B9BB;}
	.st6{opacity:0.3;fill:#C0C6C7;}
	.st7{fill:#252728;}
	.st8{fill:#575C5F;}
	.st9{fill:#35383A;}
	.st10{fill:#292B2D;}
	.st11{clip-path:url(#SVGID_2_);}
	.st12{fill:#4C5053;}
	.st13{fill:#9C6161;}
	.st14{fill:#935757;}
	.st15{fill:#5E3B3B;}
	.st16{clip-path:url(#SVGID_4_);fill:#B2B9BB;}
</style>
<g id="_x36_">
	<g>
		<g class="st0">
			<polygon class="st1" points="40.3,70 1.6,47.5 1.6,59.8 40.4,82.3 			"/>
			<g>
				<polygon class="st2" points="40.3,70 1.6,47.5 56.4,15.9 95.1,38.4 				"/>
			</g>
			<polygon class="st3" points="95.1,38.4 40.3,70 40.4,82.3 95.1,50.7 			"/>
		</g>
		<g>
			<path class="st4" d="M40,75L3.7,54v-1.8l36.3,21V75z M40,77.3l-36.3-21v1.8L40,79V77.3z"/>
			<path class="st5" d="M40,75L3.7,54v-1.8L4,52.4v1.5l36,20.8V75z M40,78.7L4,57.9v-1.5l-0.3-0.2v1.8L40,79V78.7z"/>
		</g>
		<path class="st6" d="M82.3,40.6L46,61.5c-0.5,0.3-1.2,0.3-1.7,0l-11.7-6.8c-0.5-0.3-0.5-0.7,0-1l36.2-20.9c0.5-0.3,1.2-0.3,1.7,0
			l11.7,6.8C82.7,39.9,82.7,40.3,82.3,40.6z M57,33.9l-11.7-6.8c-0.5-0.3-1.2-0.3-1.7,0l-20.9,12c-0.5,0.3-0.5,0.7,0,1l11.7,6.8
			c0.5,0.3,1.2,0.3,1.7,0l20.9-12C57.4,34.6,57.4,34.2,57,33.9z"/>
		<path class="st1" d="M32.7,53.8l36.2-20.9c0.5-0.3,1.2-0.3,1.7,0l11.7,6.8c0.4,0.3,0.4,0.7,0,0.9c0,0,0,0,0,0l-11.7-6.8
			c-0.5-0.3-1.2-0.3-1.7,0L32.7,54.7c0,0,0,0,0,0C32.2,54.5,32.3,54.1,32.7,53.8z M22.7,40.1C22.7,40.1,22.7,40.1,22.7,40.1L43.6,28
			c0.5-0.3,1.2-0.3,1.7,0L57,34.8c0,0,0,0,0,0c0.4-0.3,0.4-0.7,0-0.9l-11.7-6.8c-0.5-0.3-1.2-0.3-1.7,0l-20.9,12
			C22.3,39.4,22.3,39.8,22.7,40.1z"/>
	</g>
	<g class="st0">
		<polygon class="st7" points="39.1,70.1 39.1,83.4 40.4,84.1 40.4,70.8 		"/>
		<polygon class="st8" points="97.1,36.6 39.1,70.1 40.4,70.8 98.4,37.4 		"/>
		<polygon class="st9" points="40.4,70.8 40.4,84.1 98.4,50.6 98.4,37.4 		"/>
		<polygon class="st10" points="40.9,71.2 97.8,38.3 97.8,50.3 40.9,83.2 		"/>
	</g>
	<g>
		<defs>
			<polygon id="SVGID_1_" points="40.9,71.2 97.8,38.3 97.8,50.3 40.9,83.2 			"/>
		</defs>
		<clipPath id="SVGID_2_">
			<use xlink:href="#SVGID_1_"  style="overflow:visible;"/>
		</clipPath>
		<g class="st11">
			<g>
				<g>
					<g>
						<polygon class="st10" points="95.2,51.7 93.4,50.6 93.3,38.6 95.2,39.6 						"/>
						<polygon class="st12" points="95.2,39.6 93.3,38.6 95.2,37.5 97.1,38.6 						"/>
						<polygon class="st9" points="97.1,38.6 97.1,50.6 95.2,51.7 95.2,39.6 						"/>
					</g>
					<g>
						<polygon class="st12" points="96.8,50.5 95.6,51.2 95.5,40.7 96.8,40 						"/>
						<polygon class="st10" points="95.8,48.1 95.8,50.8 96.6,50.4 96.6,47.7 						"/>
					</g>
					<g>
						<g class="st0">
							<g>
								<polygon class="st13" points="96.1,48.3 96.7,47.9 97,49.1 96.4,49.5 								"/>
							</g>
							<g>
								<polygon class="st14" points="95.9,48.2 96.5,47.8 96.7,47.9 96.1,48.3 								"/>
							</g>
							<g>
								<polygon class="st15" points="96.1,48.3 96.4,49.5 95.9,49.4 95.9,48.2 								"/>
							</g>
						</g>
					</g>
					<polygon class="st10" points="95.3,41.3 97,40.4 97,39 95.3,40 					"/>
					<polygon class="st3" points="95.5,40 96.8,39.2 96.8,40.3 95.5,41.1 					"/>
					<polygon class="st13" points="95.5,40.5 96.8,39.7 96.8,39.2 95.5,40 					"/>
					<g>
						<polygon class="st9" points="95.9,40.3 95.9,40.4 95.7,40.5 95.8,40.5 95.9,40.4 95.9,40.7 95.8,40.8 95.8,40.8 96,40.7 
							96,40.6 95.9,40.7 						"/>
						<polygon class="st9" points="96,40.3 96.1,40.2 96.1,40.6 96.2,40.6 96.2,40.2 96.3,40.2 96.3,40.1 96,40.3 						"/>
						<path class="st9" d="M96.5,40.2c0,0,0.1-0.1,0.1-0.1v0c0-0.1-0.1-0.1-0.1,0l-0.1,0.1v0.4l0.1-0.1
							C96.5,40.4,96.6,40.3,96.5,40.2L96.5,40.2C96.6,40.2,96.5,40.2,96.5,40.2z M96.4,40.1L96.4,40.1c0.1-0.1,0.1-0.1,0.1,0v0
							c0,0,0,0.1-0.1,0.1l-0.1,0V40.1z M96.5,40.3c0,0.1,0,0.1-0.1,0.1l-0.1,0v-0.2L96.5,40.3C96.5,40.2,96.5,40.2,96.5,40.3
							L96.5,40.3z"/>
					</g>
				</g>
				<g>
					<g>
						<polygon class="st10" points="92.5,53.2 90.7,52.1 90.7,40.1 92.5,41.2 						"/>
						<polygon class="st12" points="92.5,41.2 90.7,40.1 92.5,39 94.4,40.1 						"/>
						<polygon class="st9" points="94.4,40.1 94.4,52.1 92.5,53.2 92.5,41.2 						"/>
					</g>
					<g>
						<polygon class="st12" points="94.1,52 92.9,52.7 92.9,42.2 94.1,41.5 						"/>
						<polygon class="st10" points="93.1,49.7 93.1,52.3 93.9,51.9 93.9,49.2 						"/>
					</g>
					<g>
						<g class="st0">
							<g>
								<polygon class="st13" points="93.4,49.8 94,49.5 94.3,50.7 93.7,51 								"/>
							</g>
							<g>
								<polygon class="st14" points="93.2,49.7 93.8,49.4 94,49.5 93.4,49.8 								"/>
							</g>
							<g>
								<polygon class="st15" points="93.4,49.8 93.7,51 93.2,51 93.2,49.7 								"/>
							</g>
						</g>
					</g>
					<polygon class="st10" points="92.6,42.9 94.3,41.9 94.3,40.6 92.6,41.5 					"/>
					<polygon class="st3" points="92.8,41.6 94.2,40.8 94.2,41.9 92.8,42.7 					"/>
					<polygon class="st13" points="92.8,42 94.2,41.2 94.2,40.8 92.8,41.6 					"/>
					<g>
						<polygon class="st9" points="93.2,41.9 93.2,41.9 93.1,42.1 93.1,42.1 93.2,41.9 93.2,42.3 93.1,42.3 93.1,42.4 93.3,42.2 
							93.3,42.2 93.2,42.2 						"/>
						<polygon class="st9" points="93.4,41.8 93.5,41.8 93.5,42.1 93.5,42.1 93.5,41.8 93.6,41.7 93.6,41.7 93.4,41.8 						"/>
						<path class="st9" d="M93.8,41.7c0,0,0.1-0.1,0.1-0.1v0c0-0.1-0.1-0.1-0.1,0l-0.1,0.1V42l0.1-0.1
							C93.8,41.9,93.9,41.9,93.8,41.7L93.8,41.7C93.9,41.7,93.9,41.7,93.8,41.7z M93.7,41.6L93.7,41.6c0.1-0.1,0.1-0.1,0.1,0v0
							c0,0,0,0.1-0.1,0.1l-0.1,0V41.6z M93.8,41.8c0,0.1,0,0.1-0.1,0.1l-0.1,0v-0.2L93.8,41.8C93.8,41.8,93.8,41.7,93.8,41.8
							L93.8,41.8z"/>
					</g>
				</g>
				<g>
					<g>
						<polygon class="st10" points="89.9,54.8 88,53.7 88,41.6 89.8,42.7 						"/>
						<polygon class="st12" points="89.8,42.7 88,41.6 89.9,40.6 91.7,41.6 						"/>
						<polygon class="st9" points="91.7,41.6 91.7,53.7 89.9,54.8 89.8,42.7 						"/>
					</g>
					<g>
						<polygon class="st12" points="91.4,53.6 90.2,54.3 90.2,43.8 91.4,43 						"/>
						<polygon class="st10" points="90.4,51.2 90.4,53.9 91.2,53.4 91.2,50.8 						"/>
					</g>
					<g>
						<g class="st0">
							<g>
								<polygon class="st13" points="90.7,51.4 91.3,51 91.6,52.2 91,52.6 								"/>
							</g>
							<g>
								<polygon class="st14" points="90.5,51.3 91.1,50.9 91.3,51 90.7,51.4 								"/>
							</g>
							<g>
								<polygon class="st15" points="90.7,51.4 91,52.6 90.5,52.5 90.5,51.3 								"/>
							</g>
						</g>
					</g>
					<polygon class="st10" points="89.9,44.4 91.6,43.5 91.6,42.1 89.9,43.1 					"/>
					<polygon class="st3" points="90.1,43.1 91.5,42.3 91.5,43.4 90.1,44.2 					"/>
					<polygon class="st13" points="90.1,43.6 91.5,42.8 91.5,42.3 90.1,43.1 					"/>
					<g>
						<polygon class="st9" points="90.5,43.4 90.5,43.4 90.4,43.6 90.4,43.6 90.5,43.5 90.5,43.8 90.4,43.9 90.4,43.9 90.6,43.8 
							90.6,43.7 90.5,43.8 						"/>
						<polygon class="st9" points="90.7,43.4 90.8,43.3 90.8,43.7 90.8,43.7 90.8,43.3 90.9,43.2 90.9,43.2 90.7,43.3 						"/>
						<path class="st9" d="M91.1,43.3c0,0,0.1-0.1,0.1-0.1v0c0-0.1-0.1-0.1-0.1,0L91,43.2v0.4l0.1-0.1
							C91.1,43.5,91.2,43.4,91.1,43.3L91.1,43.3C91.2,43.3,91.2,43.3,91.1,43.3z M91,43.2L91,43.2c0.1-0.1,0.1-0.1,0.1,0v0
							c0,0,0,0.1-0.1,0.1l-0.1,0V43.2z M91.2,43.4c0,0.1,0,0.1-0.1,0.1l-0.1,0v-0.2L91.2,43.4C91.1,43.3,91.2,43.3,91.2,43.4
							L91.2,43.4z"/>
					</g>
				</g>
				<g>
					<g>
						<polygon class="st10" points="87.2,56.3 85.3,55.2 85.3,43.2 87.2,44.3 						"/>
						<polygon class="st12" points="87.2,44.3 85.3,43.2 87.2,42.1 89,43.2 						"/>
						<polygon class="st9" points="89,43.2 89,55.2 87.2,56.3 87.2,44.3 						"/>
					</g>
					<g>
						<polygon class="st12" points="88.7,55.1 87.5,55.8 87.5,45.3 88.7,44.6 						"/>
						<polygon class="st10" points="87.8,52.8 87.8,55.4 88.5,55 88.5,52.3 						"/>
					</g>
					<g>
						<g class="st0">
							<g>
								<polygon class="st13" points="88,52.9 88.6,52.6 88.9,53.8 88.3,54.1 								"/>
							</g>
							<g>
								<polygon class="st14" points="87.8,52.8 88.4,52.4 88.6,52.6 88,52.9 								"/>
							</g>
							<g>
								<polygon class="st15" points="88,52.9 88.3,54.1 87.8,54.1 87.8,52.8 								"/>
							</g>
						</g>
					</g>
					<polygon class="st10" points="87.3,46 88.9,45 88.9,43.6 87.3,44.6 					"/>
					<polygon class="st3" points="87.4,44.7 88.8,43.9 88.8,44.9 87.4,45.7 					"/>
					<polygon class="st13" points="87.4,45.1 88.8,44.3 88.8,43.9 87.4,44.7 					"/>
					<g>
						<polygon class="st9" points="87.8,45 87.8,45 87.7,45.1 87.7,45.1 87.8,45 87.8,45.4 87.7,45.4 87.7,45.4 88,45.3 88,45.3 
							87.8,45.3 						"/>
						<polygon class="st9" points="88,44.9 88.1,44.9 88.1,45.2 88.1,45.2 88.1,44.8 88.2,44.8 88.2,44.7 88,44.9 						"/>
						<path class="st9" d="M88.4,44.8c0,0,0.1-0.1,0.1-0.1v0c0-0.1-0.1-0.1-0.1,0l-0.1,0.1v0.4l0.1-0.1C88.5,45,88.5,44.9,88.4,44.8
							L88.4,44.8C88.5,44.8,88.5,44.8,88.4,44.8z M88.3,44.7L88.3,44.7c0.1-0.1,0.1-0.1,0.1,0v0c0,0,0,0.1-0.1,0.1l-0.1,0V44.7z
							 M88.5,44.9c0,0.1,0,0.1-0.1,0.1l-0.1,0v-0.2L88.5,44.9C88.4,44.8,88.5,44.8,88.5,44.9L88.5,44.9z"/>
					</g>
				</g>
				<g>
					<g>
						<polygon class="st10" points="84.5,57.8 82.6,56.7 82.6,44.7 84.5,45.8 						"/>
						<polygon class="st12" points="84.5,45.8 82.6,44.7 84.5,43.6 86.4,44.7 						"/>
						<polygon class="st9" points="86.4,44.7 86.4,56.7 84.5,57.8 84.5,45.8 						"/>
					</g>
					<g>
						<polygon class="st12" points="86,56.6 84.8,57.4 84.8,46.8 86,46.1 						"/>
						<polygon class="st10" points="85.1,54.3 85.1,57 85.8,56.5 85.8,53.9 						"/>
					</g>
					<g>
						<g class="st0">
							<g>
								<polygon class="st13" points="85.3,54.5 86,54.1 86.3,55.3 85.6,55.7 								"/>
							</g>
							<g>
								<polygon class="st14" points="85.2,54.3 85.8,54 86,54.1 85.3,54.5 								"/>
							</g>
							<g>
								<polygon class="st15" points="85.3,54.5 85.6,55.7 85.1,55.6 85.2,54.3 								"/>
							</g>
						</g>
					</g>
					<polygon class="st10" points="84.6,47.5 86.2,46.5 86.3,45.2 84.6,46.1 					"/>
					<polygon class="st3" points="84.7,46.2 86.1,45.4 86.1,46.5 84.7,47.3 					"/>
					<polygon class="st13" points="84.7,46.6 86.1,45.8 86.1,45.4 84.7,46.2 					"/>
					<g>
						<polygon class="st9" points="85.2,46.5 85.1,46.5 85,46.7 85,46.7 85.1,46.6 85.1,46.9 85,47 85,47 85.3,46.8 85.3,46.8 
							85.2,46.9 						"/>
						<polygon class="st9" points="85.3,46.5 85.4,46.4 85.4,46.8 85.4,46.7 85.4,46.4 85.5,46.3 85.5,46.3 85.3,46.4 						"/>
						<path class="st9" d="M85.8,46.4c0,0,0.1-0.1,0.1-0.1v0c0-0.1-0.1-0.1-0.1,0l-0.1,0.1v0.4l0.1-0.1
							C85.8,46.6,85.8,46.5,85.8,46.4L85.8,46.4C85.8,46.4,85.8,46.3,85.8,46.4z M85.6,46.3L85.6,46.3c0.1-0.1,0.1-0.1,0.1,0v0
							c0,0,0,0.1-0.1,0.1l-0.1,0V46.3z M85.8,46.4c0,0.1,0,0.1-0.1,0.1l-0.1,0v-0.2L85.8,46.4C85.8,46.4,85.8,46.4,85.8,46.4
							L85.8,46.4z"/>
					</g>
				</g>
				<g>
					<g>
						<polygon class="st10" points="81.8,59.4 79.9,58.3 79.9,46.3 81.8,47.4 						"/>
						<polygon class="st12" points="81.8,47.4 79.9,46.3 81.8,45.2 83.7,46.3 						"/>
						<polygon class="st9" points="83.7,46.3 83.7,58.3 81.8,59.4 81.8,47.4 						"/>
					</g>
					<g>
						<polygon class="st12" points="83.4,58.2 82.1,58.9 82.1,48.4 83.3,47.7 						"/>
						<polygon class="st10" points="82.4,55.8 82.4,58.5 83.1,58.1 83.1,55.4 						"/>
					</g>
					<g>
						<g class="st0">
							<g>
								<polygon class="st13" points="82.7,56 83.3,55.6 83.6,56.8 83,57.2 								"/>
							</g>
							<g>
								<polygon class="st14" points="82.5,55.9 83.1,55.5 83.3,55.6 82.7,56 								"/>
							</g>
							<g>
								<polygon class="st15" points="82.7,56 83,57.2 82.5,57.1 82.5,55.9 								"/>
							</g>
						</g>
					</g>
					<polygon class="st10" points="81.9,49.1 83.6,48.1 83.6,46.7 81.9,47.7 					"/>
					<polygon class="st3" points="82,47.8 83.4,46.9 83.4,48 82,48.8 					"/>
					<polygon class="st13" points="82,48.2 83.4,47.4 83.4,46.9 82,47.8 					"/>
					<g>
						<polygon class="st9" points="82.5,48 82.5,48.1 82.3,48.2 82.3,48.2 82.4,48.1 82.4,48.4 82.3,48.5 82.3,48.5 82.6,48.4 
							82.6,48.4 82.5,48.4 						"/>
						<polygon class="st9" points="82.6,48 82.7,47.9 82.7,48.3 82.8,48.3 82.8,47.9 82.9,47.9 82.9,47.8 82.6,48 						"/>
						<path class="st9" d="M83.1,47.9c0,0,0.1-0.1,0.1-0.1v0c0-0.1-0.1-0.1-0.1,0l-0.1,0.1v0.4l0.1-0.1C83.1,48.1,83.1,48,83.1,47.9
							L83.1,47.9C83.1,47.9,83.1,47.9,83.1,47.9z M82.9,47.8L82.9,47.8c0.1-0.1,0.1-0.1,0.1,0v0c0,0,0,0.1-0.1,0.1l-0.1,0V47.8z
							 M83.1,48c0,0.1,0,0.1-0.1,0.1l-0.1,0V48L83.1,48C83.1,47.9,83.1,47.9,83.1,48L83.1,48z"/>
					</g>
				</g>
				<g>
					<g>
						<polygon class="st10" points="79.1,60.9 77.3,59.8 77.2,47.8 79.1,48.9 						"/>
						<polygon class="st12" points="79.1,48.9 77.2,47.8 79.1,46.7 81,47.8 						"/>
						<polygon class="st9" points="81,47.8 81,59.8 79.1,60.9 79.1,48.9 						"/>
					</g>
					<g>
						<polygon class="st12" points="80.7,59.7 79.4,60.4 79.4,49.9 80.7,49.2 						"/>
						<polygon class="st10" points="79.7,57.4 79.7,60 80.5,59.6 80.5,56.9 						"/>
					</g>
					<g>
						<g class="st0">
							<g>
								<polygon class="st13" points="80,57.5 80.6,57.2 80.9,58.4 80.3,58.7 								"/>
							</g>
							<g>
								<polygon class="st14" points="79.8,57.4 80.4,57.1 80.6,57.2 80,57.5 								"/>
							</g>
							<g>
								<polygon class="st15" points="80,57.5 80.3,58.7 79.8,58.7 79.8,57.4 								"/>
							</g>
						</g>
					</g>
					<polygon class="st10" points="79.2,50.6 80.9,49.6 80.9,48.3 79.2,49.2 					"/>
					<polygon class="st3" points="79.4,49.3 80.7,48.5 80.7,49.6 79.4,50.4 					"/>
					<polygon class="st13" points="79.4,49.7 80.7,48.9 80.7,48.5 79.4,49.3 					"/>
					<g>
						<polygon class="st9" points="79.8,49.6 79.8,49.6 79.6,49.8 79.7,49.8 79.8,49.7 79.8,50 79.7,50 79.7,50.1 79.9,49.9 
							79.9,49.9 79.8,50 						"/>
						<polygon class="st9" points="79.9,49.5 80,49.5 80,49.8 80.1,49.8 80.1,49.5 80.2,49.4 80.2,49.4 79.9,49.5 						"/>
						<path class="st9" d="M80.4,49.4c0,0,0.1-0.1,0.1-0.1v0c0-0.1-0.1-0.1-0.1,0l-0.1,0.1v0.4l0.1-0.1
							C80.4,49.6,80.5,49.6,80.4,49.4L80.4,49.4C80.5,49.4,80.4,49.4,80.4,49.4z M80.3,49.3L80.3,49.3c0.1-0.1,0.1-0.1,0.1,0v0
							c0,0,0,0.1-0.1,0.1l-0.1,0V49.3z M80.4,49.5c0,0.1,0,0.1-0.1,0.1l-0.1,0v-0.2L80.4,49.5C80.4,49.5,80.4,49.5,80.4,49.5
							L80.4,49.5z"/>
					</g>
				</g>
				<g>
					<g>
						<polygon class="st10" points="76.4,62.5 74.6,61.4 74.6,49.4 76.4,50.4 						"/>
						<polygon class="st12" points="76.4,50.4 74.6,49.4 76.4,48.3 78.3,49.4 						"/>
						<polygon class="st9" points="78.3,49.4 78.3,61.4 76.4,62.5 76.4,50.4 						"/>
					</g>
					<g>
						<polygon class="st12" points="78,61.3 76.8,62 76.7,51.5 78,50.8 						"/>
						<polygon class="st10" points="77,58.9 77,61.6 77.8,61.1 77.8,58.5 						"/>
					</g>
					<g>
						<g class="st0">
							<g>
								<polygon class="st13" points="77.3,59.1 77.9,58.7 78.2,59.9 77.6,60.3 								"/>
							</g>
							<g>
								<polygon class="st14" points="77.1,59 77.7,58.6 77.9,58.7 77.3,59.1 								"/>
							</g>
							<g>
								<polygon class="st15" points="77.3,59.1 77.6,60.3 77.1,60.2 77.1,59 								"/>
							</g>
						</g>
					</g>
					<polygon class="st10" points="76.5,52.1 78.2,51.2 78.2,49.8 76.5,50.8 					"/>
					<polygon class="st3" points="76.7,50.8 78.1,50 78.1,51.1 76.7,51.9 					"/>
					<polygon class="st13" points="76.7,51.3 78.1,50.5 78.1,50 76.7,50.8 					"/>
					<g>
						<polygon class="st9" points="77.1,51.1 77.1,51.1 77,51.3 77,51.3 77.1,51.2 77.1,51.5 77,51.6 77,51.6 77.2,51.5 77.2,51.4 
							77.1,51.5 						"/>
						<polygon class="st9" points="77.3,51.1 77.4,51 77.4,51.4 77.4,51.4 77.4,51 77.5,50.9 77.5,50.9 77.3,51 						"/>
						<path class="st9" d="M77.7,51c0,0,0.1-0.1,0.1-0.1v0c0-0.1-0.1-0.1-0.1,0l-0.1,0.1v0.4l0.1-0.1C77.7,51.2,77.8,51.1,77.7,51
							L77.7,51C77.8,51,77.7,51,77.7,51z M77.6,50.9L77.6,50.9c0.1-0.1,0.1-0.1,0.1,0v0c0,0,0,0.1-0.1,0.1l-0.1,0V50.9z M77.7,51.1
							c0,0.1,0,0.1-0.1,0.1l-0.1,0v-0.2L77.7,51.1C77.7,51,77.7,51,77.7,51.1L77.7,51.1z"/>
					</g>
				</g>
				<g>
					<g>
						<polygon class="st10" points="73.7,64 71.9,62.9 71.9,50.9 73.7,52 						"/>
						<polygon class="st12" points="73.7,52 71.9,50.9 73.8,49.8 75.6,50.9 						"/>
						<polygon class="st9" points="75.6,50.9 75.6,62.9 73.7,64 73.7,52 						"/>
					</g>
					<g>
						<polygon class="st12" points="75.3,62.8 74.1,63.5 74.1,53 75.3,52.3 						"/>
						<polygon class="st10" points="74.3,60.5 74.3,63.1 75.1,62.7 75.1,60 						"/>
					</g>
					<g>
						<g class="st0">
							<g>
								<polygon class="st13" points="74.6,60.6 75.2,60.3 75.5,61.5 74.9,61.8 								"/>
							</g>
							<g>
								<polygon class="st14" points="74.4,60.5 75,60.2 75.2,60.3 74.6,60.6 								"/>
							</g>
							<g>
								<polygon class="st15" points="74.6,60.6 74.9,61.8 74.4,61.8 74.4,60.5 								"/>
							</g>
						</g>
					</g>
					<polygon class="st10" points="73.8,53.7 75.5,52.7 75.5,51.3 73.8,52.3 					"/>
					<polygon class="st3" points="74,52.4 75.4,51.6 75.4,52.6 74,53.4 					"/>
					<polygon class="st13" points="74,52.8 75.4,52 75.4,51.6 74,52.4 					"/>
					<g>
						<polygon class="st9" points="74.4,52.7 74.4,52.7 74.3,52.8 74.3,52.9 74.4,52.7 74.4,53.1 74.3,53.1 74.3,53.2 74.5,53 
							74.5,53 74.4,53 						"/>
						<polygon class="st9" points="74.6,52.6 74.7,52.6 74.7,52.9 74.7,52.9 74.7,52.5 74.8,52.5 74.8,52.4 74.6,52.6 						"/>
						<path class="st9" d="M75,52.5c0,0,0.1-0.1,0.1-0.1v0c0-0.1-0.1-0.1-0.1,0l-0.1,0.1v0.4l0.1-0.1C75,52.7,75.1,52.7,75,52.5
							L75,52.5C75.1,52.5,75.1,52.5,75,52.5z M74.9,52.4L74.9,52.4c0.1-0.1,0.1-0.1,0.1,0v0c0,0,0,0.1-0.1,0.1l-0.1,0V52.4z
							 M75.1,52.6c0,0.1,0,0.1-0.1,0.1l-0.1,0v-0.2L75.1,52.6C75,52.5,75.1,52.5,75.1,52.6L75.1,52.6z"/>
					</g>
				</g>
			</g>
			<g>
				<g>
					<g>
						<polygon class="st10" points="71.1,65.6 69.2,64.5 69.2,52.5 71.1,53.6 						"/>
						<polygon class="st12" points="71.1,53.6 69.2,52.5 71.1,51.4 73,52.5 						"/>
						<polygon class="st9" points="73,52.5 73,64.5 71.1,65.6 71.1,53.6 						"/>
					</g>
					<g>
						<polygon class="st12" points="72.7,64.4 71.4,65.1 71.4,54.6 72.6,53.9 						"/>
						<polygon class="st10" points="71.7,62 71.7,64.7 72.4,64.3 72.4,61.6 						"/>
					</g>
					<g>
						<g class="st0">
							<g>
								<polygon class="st13" points="72,62.2 72.6,61.8 72.9,63 72.3,63.4 								"/>
							</g>
							<g>
								<polygon class="st14" points="71.8,62.1 72.4,61.7 72.6,61.8 72,62.2 								"/>
							</g>
							<g>
								<polygon class="st15" points="72,62.2 72.3,63.4 71.8,63.3 71.8,62.1 								"/>
							</g>
						</g>
					</g>
					<polygon class="st10" points="71.2,55.2 72.9,54.3 72.9,52.9 71.2,53.9 					"/>
					<polygon class="st3" points="71.3,53.9 72.7,53.1 72.7,54.2 71.3,55 					"/>
					<polygon class="st13" points="71.3,54.4 72.7,53.6 72.7,53.1 71.3,53.9 					"/>
					<g>
						<polygon class="st9" points="71.8,54.2 71.7,54.3 71.6,54.4 71.6,54.4 71.7,54.3 71.7,54.6 71.6,54.7 71.6,54.7 71.9,54.6 
							71.9,54.6 71.8,54.6 						"/>
						<polygon class="st9" points="71.9,54.2 72,54.1 72,54.5 72.1,54.5 72.1,54.1 72.2,54.1 72.2,54 71.9,54.2 						"/>
						<path class="st9" d="M72.4,54.1c0,0,0.1-0.1,0.1-0.1v0c0-0.1-0.1-0.1-0.1,0L72.2,54v0.4l0.1-0.1
							C72.4,54.3,72.4,54.2,72.4,54.1L72.4,54.1C72.4,54.1,72.4,54.1,72.4,54.1z M72.2,54L72.2,54c0.1-0.1,0.1-0.1,0.1,0v0
							c0,0,0,0.1-0.1,0.1l-0.1,0V54z M72.4,54.2c0,0.1,0,0.1-0.1,0.1l-0.1,0v-0.2L72.4,54.2C72.4,54.1,72.4,54.1,72.4,54.2
							L72.4,54.2z"/>
					</g>
				</g>
				<g>
					<g>
						<polygon class="st10" points="68.4,67.1 66.5,66 66.5,54 68.4,55.1 						"/>
						<polygon class="st12" points="68.4,55.1 66.5,54 68.4,52.9 70.3,54 						"/>
						<polygon class="st9" points="70.3,54 70.3,66 68.4,67.1 68.4,55.1 						"/>
					</g>
					<g>
						<polygon class="st12" points="70,65.9 68.7,66.6 68.7,56.1 70,55.4 						"/>
						<polygon class="st10" points="69,63.6 69,66.2 69.8,65.8 69.8,63.1 						"/>
					</g>
					<g>
						<g class="st0">
							<g>
								<polygon class="st13" points="69.3,63.7 69.9,63.4 70.2,64.6 69.6,64.9 								"/>
							</g>
							<g>
								<polygon class="st14" points="69.1,63.6 69.7,63.3 69.9,63.4 69.3,63.7 								"/>
							</g>
							<g>
								<polygon class="st15" points="69.3,63.7 69.6,64.9 69.1,64.9 69.1,63.6 								"/>
							</g>
						</g>
					</g>
					<polygon class="st10" points="68.5,56.8 70.2,55.8 70.2,54.5 68.5,55.4 					"/>
					<polygon class="st3" points="68.6,55.5 70,54.7 70,55.8 68.6,56.6 					"/>
					<polygon class="st13" points="68.6,55.9 70,55.1 70,54.7 68.6,55.5 					"/>
					<g>
						<polygon class="st9" points="69.1,55.8 69.1,55.8 68.9,56 69,56 69.1,55.9 69.1,56.2 68.9,56.2 68.9,56.3 69.2,56.1 
							69.2,56.1 69.1,56.2 						"/>
						<polygon class="st9" points="69.2,55.7 69.3,55.7 69.3,56 69.4,56 69.4,55.7 69.5,55.6 69.5,55.6 69.2,55.7 						"/>
						<path class="st9" d="M69.7,55.6c0,0,0.1-0.1,0.1-0.1v0c0-0.1-0.1-0.1-0.1,0l-0.1,0.1v0.4l0.1-0.1
							C69.7,55.8,69.8,55.8,69.7,55.6L69.7,55.6C69.8,55.6,69.7,55.6,69.7,55.6z M69.6,55.5L69.6,55.5c0.1-0.1,0.1-0.1,0.1,0v0
							c0,0,0,0.1-0.1,0.1l-0.1,0V55.5z M69.7,55.7c0,0.1,0,0.1-0.1,0.1l-0.1,0v-0.2L69.7,55.7C69.7,55.7,69.7,55.7,69.7,55.7
							L69.7,55.7z"/>
					</g>
				</g>
				<g>
					<g>
						<polygon class="st10" points="65.7,68.7 63.9,67.6 63.9,55.6 65.7,56.6 						"/>
						<polygon class="st12" points="65.7,56.6 63.9,55.6 65.7,54.5 67.6,55.6 						"/>
						<polygon class="st9" points="67.6,55.6 67.6,67.6 65.7,68.7 65.7,56.6 						"/>
					</g>
					<g>
						<polygon class="st12" points="67.3,67.5 66.1,68.2 66,57.7 67.3,57 						"/>
						<polygon class="st10" points="66.3,65.1 66.3,67.8 67.1,67.3 67.1,64.7 						"/>
					</g>
					<g>
						<g class="st0">
							<g>
								<polygon class="st13" points="66.6,65.3 67.2,64.9 67.5,66.1 66.9,66.5 								"/>
							</g>
							<g>
								<polygon class="st14" points="66.4,65.2 67,64.8 67.2,64.9 66.6,65.3 								"/>
							</g>
							<g>
								<polygon class="st15" points="66.6,65.3 66.9,66.5 66.4,66.4 66.4,65.2 								"/>
							</g>
						</g>
					</g>
					<polygon class="st10" points="65.8,58.3 67.5,57.4 67.5,56 65.8,57 					"/>
					<polygon class="st3" points="66,57 67.4,56.2 67.4,57.3 66,58.1 					"/>
					<polygon class="st13" points="66,57.5 67.4,56.7 67.4,56.2 66,57 					"/>
					<g>
						<polygon class="st9" points="66.4,57.3 66.4,57.3 66.3,57.5 66.3,57.5 66.4,57.4 66.4,57.7 66.3,57.8 66.3,57.8 66.5,57.7 
							66.5,57.6 66.4,57.7 						"/>
						<polygon class="st9" points="66.5,57.3 66.6,57.2 66.6,57.6 66.7,57.6 66.7,57.2 66.8,57.1 66.8,57.1 66.5,57.2 						"/>
						<path class="st9" d="M67,57.2c0,0,0.1-0.1,0.1-0.1v0c0-0.1-0.1-0.1-0.1,0l-0.1,0.1v0.4l0.1-0.1C67,57.4,67.1,57.3,67,57.2
							L67,57.2C67.1,57.2,67,57.2,67,57.2z M66.9,57.1L66.9,57.1C67,57,67,57,67,57.1v0c0,0,0,0.1-0.1,0.1l-0.1,0V57.1z M67,57.3
							c0,0.1,0,0.1-0.1,0.1l-0.1,0v-0.2L67,57.3C67,57.2,67,57.2,67,57.3L67,57.3z"/>
					</g>
				</g>
				<g>
					<g>
						<polygon class="st10" points="63,70.2 61.2,69.1 61.2,57.1 63,58.2 						"/>
						<polygon class="st12" points="63,58.2 61.2,57.1 63,56 64.9,57.1 						"/>
						<polygon class="st9" points="64.9,57.1 64.9,69.1 63,70.2 63,58.2 						"/>
					</g>
					<g>
						<polygon class="st12" points="64.6,69 63.4,69.7 63.4,59.2 64.6,58.5 						"/>
						<polygon class="st10" points="63.6,66.7 63.6,69.3 64.4,68.9 64.4,66.2 						"/>
					</g>
					<g>
						<g class="st0">
							<g>
								<polygon class="st13" points="63.9,66.8 64.5,66.5 64.8,67.7 64.2,68 								"/>
							</g>
							<g>
								<polygon class="st14" points="63.7,66.7 64.3,66.4 64.5,66.5 63.9,66.8 								"/>
							</g>
							<g>
								<polygon class="st15" points="63.9,66.8 64.2,68 63.7,68 63.7,66.7 								"/>
							</g>
						</g>
					</g>
					<polygon class="st10" points="63.1,59.9 64.8,58.9 64.8,57.5 63.1,58.5 					"/>
					<polygon class="st3" points="63.3,58.6 64.7,57.8 64.7,58.8 63.3,59.6 					"/>
					<polygon class="st13" points="63.3,59 64.7,58.2 64.7,57.8 63.3,58.6 					"/>
					<g>
						<polygon class="st9" points="63.7,58.9 63.7,58.9 63.6,59 63.6,59.1 63.7,58.9 63.7,59.3 63.6,59.3 63.6,59.3 63.8,59.2 
							63.8,59.2 63.7,59.2 						"/>
						<polygon class="st9" points="63.9,58.8 64,58.8 64,59.1 64,59.1 64,58.7 64.1,58.7 64.1,58.6 63.9,58.8 						"/>
						<path class="st9" d="M64.3,58.7c0,0,0.1-0.1,0.1-0.1v0c0-0.1-0.1-0.1-0.1,0l-0.1,0.1V59l0.1-0.1
							C64.3,58.9,64.4,58.9,64.3,58.7L64.3,58.7C64.4,58.7,64.4,58.7,64.3,58.7z M64.2,58.6L64.2,58.6c0.1-0.1,0.1-0.1,0.1,0v0
							c0,0,0,0.1-0.1,0.1l-0.1,0V58.6z M64.4,58.8c0,0.1,0,0.1-0.1,0.1l-0.1,0v-0.2L64.4,58.8C64.3,58.7,64.4,58.7,64.4,58.8
							L64.4,58.8z"/>
					</g>
				</g>
				<g>
					<g>
						<polygon class="st10" points="60.4,71.7 58.5,70.7 58.5,58.6 60.4,59.7 						"/>
						<polygon class="st12" points="60.4,59.7 58.5,58.6 60.4,57.5 62.2,58.6 						"/>
						<polygon class="st9" points="62.2,58.6 62.2,70.7 60.4,71.7 60.4,59.7 						"/>
					</g>
					<g>
						<polygon class="st12" points="61.9,70.5 60.7,71.3 60.7,60.7 61.9,60 						"/>
						<polygon class="st10" points="60.9,68.2 60.9,70.9 61.7,70.4 61.7,67.8 						"/>
					</g>
					<g>
						<g class="st0">
							<g>
								<polygon class="st13" points="61.2,68.4 61.8,68 62.1,69.2 61.5,69.6 								"/>
							</g>
							<g>
								<polygon class="st14" points="61,68.2 61.6,67.9 61.8,68 61.2,68.4 								"/>
							</g>
							<g>
								<polygon class="st15" points="61.2,68.4 61.5,69.6 61,69.5 61,68.2 								"/>
							</g>
						</g>
					</g>
					<polygon class="st10" points="60.4,61.4 62.1,60.4 62.1,59.1 60.4,60 					"/>
					<polygon class="st3" points="60.6,60.1 62,59.3 62,60.4 60.6,61.2 					"/>
					<polygon class="st13" points="60.6,60.6 62,59.8 62,59.3 60.6,60.1 					"/>
					<g>
						<polygon class="st9" points="61,60.4 61,60.4 60.9,60.6 60.9,60.6 61,60.5 61,60.8 60.9,60.9 60.9,60.9 61.1,60.7 61.1,60.7 
							61,60.8 						"/>
						<polygon class="st9" points="61.2,60.4 61.3,60.3 61.3,60.7 61.3,60.6 61.3,60.3 61.4,60.2 61.4,60.2 61.2,60.3 						"/>
						<path class="st9" d="M61.6,60.3c0,0,0.1-0.1,0.1-0.1v0c0-0.1-0.1-0.1-0.1,0l-0.1,0.1v0.4l0.1-0.1
							C61.6,60.5,61.7,60.4,61.6,60.3L61.6,60.3C61.7,60.3,61.7,60.2,61.6,60.3z M61.5,60.2L61.5,60.2c0.1-0.1,0.1-0.1,0.1,0v0
							c0,0,0,0.1-0.1,0.1l-0.1,0V60.2z M61.7,60.3c0,0.1,0,0.1-0.1,0.1l-0.1,0v-0.2L61.7,60.3C61.6,60.3,61.7,60.3,61.7,60.3
							L61.7,60.3z"/>
					</g>
				</g>
				<g>
					<g>
						<polygon class="st10" points="57.7,73.3 55.8,72.2 55.8,60.2 57.7,61.3 						"/>
						<polygon class="st12" points="57.7,61.3 55.8,60.2 57.7,59.1 59.5,60.2 						"/>
						<polygon class="st9" points="59.5,60.2 59.6,72.2 57.7,73.3 57.7,61.3 						"/>
					</g>
					<g>
						<polygon class="st12" points="59.2,72.1 58,72.8 58,62.3 59.2,61.6 						"/>
						<polygon class="st10" points="58.3,69.7 58.3,72.4 59,72 59,69.3 						"/>
					</g>
					<g>
						<g class="st0">
							<g>
								<polygon class="st13" points="58.5,69.9 59.1,69.5 59.4,70.7 58.8,71.1 								"/>
							</g>
							<g>
								<polygon class="st14" points="58.3,69.8 59,69.4 59.1,69.5 58.5,69.9 								"/>
							</g>
							<g>
								<polygon class="st15" points="58.5,69.9 58.8,71.1 58.3,71 58.3,69.8 								"/>
							</g>
						</g>
					</g>
					<polygon class="st10" points="57.8,63 59.4,62 59.4,60.6 57.8,61.6 					"/>
					<polygon class="st3" points="57.9,61.7 59.3,60.9 59.3,61.9 57.9,62.7 					"/>
					<polygon class="st13" points="57.9,62.1 59.3,61.3 59.3,60.9 57.9,61.7 					"/>
					<g>
						<polygon class="st9" points="58.4,61.9 58.3,62 58.2,62.1 58.2,62.1 58.3,62 58.3,62.3 58.2,62.4 58.2,62.4 58.5,62.3 
							58.5,62.3 58.4,62.3 						"/>
						<polygon class="st9" points="58.5,61.9 58.6,61.8 58.6,62.2 58.6,62.2 58.6,61.8 58.7,61.8 58.7,61.7 58.5,61.9 						"/>
						<path class="st9" d="M58.9,61.8c0,0,0.1-0.1,0.1-0.1v0c0-0.1-0.1-0.1-0.1,0l-0.1,0.1v0.4l0.1-0.1C59,62,59,61.9,58.9,61.8
							L58.9,61.8C59,61.8,59,61.8,58.9,61.8z M58.8,61.7L58.8,61.7c0.1-0.1,0.1-0.1,0.1,0v0c0,0,0,0.1-0.1,0.1l-0.1,0V61.7z
							 M59,61.9c0,0.1,0,0.1-0.1,0.1l-0.1,0v-0.2L59,61.9C58.9,61.8,59,61.8,59,61.9L59,61.9z"/>
					</g>
				</g>
				<g>
					<g>
						<polygon class="st10" points="55,74.8 53.1,73.7 53.1,61.7 55,62.8 						"/>
						<polygon class="st12" points="55,62.8 53.1,61.7 55,60.6 56.9,61.7 						"/>
						<polygon class="st9" points="56.9,61.7 56.9,73.7 55,74.8 55,62.8 						"/>
					</g>
					<g>
						<polygon class="st12" points="56.5,73.6 55.3,74.3 55.3,63.8 56.5,63.1 						"/>
						<polygon class="st10" points="55.6,71.3 55.6,73.9 56.3,73.5 56.3,70.8 						"/>
					</g>
					<g>
						<g class="st0">
							<g>
								<polygon class="st13" points="55.8,71.4 56.5,71.1 56.8,72.3 56.1,72.6 								"/>
							</g>
							<g>
								<polygon class="st14" points="55.7,71.3 56.3,71 56.5,71.1 55.8,71.4 								"/>
							</g>
							<g>
								<polygon class="st15" points="55.8,71.4 56.1,72.6 55.7,72.6 55.7,71.3 								"/>
							</g>
						</g>
					</g>
					<polygon class="st10" points="55.1,64.5 56.8,63.5 56.8,62.2 55.1,63.1 					"/>
					<polygon class="st3" points="55.2,63.2 56.6,62.4 56.6,63.5 55.2,64.3 					"/>
					<polygon class="st13" points="55.2,63.6 56.6,62.8 56.6,62.4 55.2,63.2 					"/>
					<g>
						<polygon class="st9" points="55.7,63.5 55.6,63.5 55.5,63.7 55.5,63.7 55.6,63.6 55.6,63.9 55.5,63.9 55.5,64 55.8,63.8 
							55.8,63.8 55.7,63.9 						"/>
						<polygon class="st9" points="55.8,63.4 55.9,63.4 55.9,63.7 55.9,63.7 55.9,63.4 56.1,63.3 56.1,63.3 55.8,63.4 						"/>
						<path class="st9" d="M56.3,63.3c0,0,0.1-0.1,0.1-0.1v0c0-0.1-0.1-0.1-0.1,0l-0.1,0.1v0.4l0.1-0.1
							C56.3,63.5,56.3,63.5,56.3,63.3L56.3,63.3C56.3,63.3,56.3,63.3,56.3,63.3z M56.1,63.2L56.1,63.2c0.1-0.1,0.1-0.1,0.1,0v0
							c0,0,0,0.1-0.1,0.1l-0.1,0V63.2z M56.3,63.4c0,0.1,0,0.1-0.1,0.1l-0.1,0v-0.2L56.3,63.4C56.3,63.4,56.3,63.4,56.3,63.4
							L56.3,63.4z"/>
					</g>
				</g>
				<g>
					<g>
						<polygon class="st10" points="52.3,76.4 50.4,75.3 50.4,63.3 52.3,64.3 						"/>
						<polygon class="st12" points="52.3,64.3 50.4,63.3 52.3,62.2 54.2,63.3 						"/>
						<polygon class="st9" points="54.2,63.3 54.2,75.3 52.3,76.4 52.3,64.3 						"/>
					</g>
					<g>
						<polygon class="st12" points="53.9,75.2 52.6,75.9 52.6,65.4 53.8,64.7 						"/>
						<polygon class="st10" points="52.9,72.8 52.9,75.5 53.6,75 53.6,72.4 						"/>
					</g>
					<g>
						<g class="st0">
							<g>
								<polygon class="st13" points="53.2,73 53.8,72.6 54.1,73.8 53.5,74.2 								"/>
							</g>
							<g>
								<polygon class="st14" points="53,72.9 53.6,72.5 53.8,72.6 53.2,73 								"/>
							</g>
							<g>
								<polygon class="st15" points="53.2,73 53.5,74.2 53,74.1 53,72.9 								"/>
							</g>
						</g>
					</g>
					<polygon class="st10" points="52.4,66 54.1,65.1 54.1,63.7 52.4,64.7 					"/>
					<polygon class="st3" points="52.5,64.7 53.9,63.9 53.9,65 52.5,65.8 					"/>
					<polygon class="st13" points="52.5,65.2 53.9,64.4 53.9,63.9 52.5,64.7 					"/>
					<g>
						<polygon class="st9" points="53,65 53,65 52.8,65.2 52.9,65.2 52.9,65.1 52.9,65.4 52.8,65.5 52.8,65.5 53.1,65.4 53.1,65.3 
							53,65.4 						"/>
						<polygon class="st9" points="53.1,65 53.2,64.9 53.2,65.3 53.3,65.3 53.3,64.9 53.4,64.8 53.4,64.8 53.1,64.9 						"/>
						<path class="st9" d="M53.6,64.9c0,0,0.1-0.1,0.1-0.1v0c0-0.1-0.1-0.1-0.1,0l-0.1,0.1v0.4l0.1-0.1C53.6,65.1,53.7,65,53.6,64.9
							L53.6,64.9C53.7,64.9,53.6,64.9,53.6,64.9z M53.5,64.8L53.5,64.8c0.1-0.1,0.1-0.1,0.1,0v0c0,0,0,0.1-0.1,0.1l-0.1,0V64.8z
							 M53.6,65c0,0.1,0,0.1-0.1,0.1l-0.1,0V65L53.6,65C53.6,64.9,53.6,64.9,53.6,65L53.6,65z"/>
					</g>
				</g>
				<g>
					<g>
						<polygon class="st10" points="49.6,77.9 47.8,76.8 47.7,64.8 49.6,65.9 						"/>
						<polygon class="st12" points="49.6,65.9 47.7,64.8 49.6,63.7 51.5,64.8 						"/>
						<polygon class="st9" points="51.5,64.8 51.5,76.8 49.6,77.9 49.6,65.9 						"/>
					</g>
					<g>
						<polygon class="st12" points="51.2,76.7 50,77.4 49.9,66.9 51.2,66.2 						"/>
						<polygon class="st10" points="50.2,74.4 50.2,77 51,76.6 51,73.9 						"/>
					</g>
					<g>
						<g class="st0">
							<g>
								<polygon class="st13" points="50.5,74.5 51.1,74.2 51.4,75.4 50.8,75.7 								"/>
							</g>
							<g>
								<polygon class="st14" points="50.3,74.4 50.9,74.1 51.1,74.2 50.5,74.5 								"/>
							</g>
							<g>
								<polygon class="st15" points="50.5,74.5 50.8,75.7 50.3,75.7 50.3,74.4 								"/>
							</g>
						</g>
					</g>
					<polygon class="st10" points="49.7,67.6 51.4,66.6 51.4,65.2 49.7,66.2 					"/>
					<polygon class="st3" points="49.9,66.3 51.2,65.5 51.2,66.5 49.9,67.3 					"/>
					<polygon class="st13" points="49.9,66.7 51.2,65.9 51.2,65.5 49.9,66.3 					"/>
					<g>
						<polygon class="st9" points="50.3,66.6 50.3,66.6 50.1,66.7 50.2,66.8 50.3,66.6 50.3,67 50.2,67 50.2,67.1 50.4,66.9 
							50.4,66.9 50.3,66.9 						"/>
						<polygon class="st9" points="50.4,66.5 50.5,66.5 50.5,66.8 50.6,66.8 50.6,66.4 50.7,66.4 50.7,66.3 50.4,66.5 						"/>
						<path class="st9" d="M50.9,66.4c0,0,0.1-0.1,0.1-0.1v0c0-0.1-0.1-0.1-0.1,0l-0.1,0.1v0.4l0.1-0.1C50.9,66.6,51,66.6,50.9,66.4
							L50.9,66.4C51,66.4,50.9,66.4,50.9,66.4z M50.8,66.3L50.8,66.3c0.1-0.1,0.1-0.1,0.1,0v0c0,0,0,0.1-0.1,0.1l-0.1,0V66.3z
							 M50.9,66.5c0,0.1,0,0.1-0.1,0.1l-0.1,0v-0.2L50.9,66.5C50.9,66.4,50.9,66.4,50.9,66.5L50.9,66.5z"/>
					</g>
				</g>
			</g>
			<g>
				<g>
					<polygon class="st10" points="46.9,79.5 45.1,78.4 45,66.4 46.9,67.5 					"/>
					<polygon class="st12" points="46.9,67.5 45,66.4 46.9,65.3 48.8,66.4 					"/>
					<polygon class="st9" points="48.8,66.4 48.8,78.4 46.9,79.5 46.9,67.5 					"/>
				</g>
				<g>
					<polygon class="st12" points="48.5,78.3 47.2,79 47.2,68.5 48.5,67.8 					"/>
					<polygon class="st10" points="47.5,75.9 47.5,78.6 48.3,78.2 48.3,75.5 					"/>
				</g>
				<g>
					<g class="st0">
						<g>
							<polygon class="st13" points="47.8,76.1 48.4,75.7 48.7,76.9 48.1,77.3 							"/>
						</g>
						<g>
							<polygon class="st14" points="47.6,76 48.2,75.6 48.4,75.7 47.8,76.1 							"/>
						</g>
						<g>
							<polygon class="st15" points="47.8,76.1 48.1,77.3 47.6,77.3 47.6,76 							"/>
						</g>
					</g>
				</g>
				<polygon class="st10" points="47,69.2 48.7,68.2 48.7,66.8 47,67.8 				"/>
				<polygon class="st3" points="47.2,67.9 48.5,67.1 48.5,68.1 47.2,68.9 				"/>
				<polygon class="st13" points="47.2,68.3 48.5,67.5 48.5,67.1 47.2,67.9 				"/>
				<g>
					<polygon class="st9" points="47.6,68.2 47.6,68.2 47.4,68.3 47.5,68.3 47.6,68.2 47.6,68.5 47.5,68.6 47.5,68.6 47.7,68.5 
						47.7,68.5 47.6,68.5 					"/>
					<polygon class="st9" points="47.7,68.1 47.8,68 47.8,68.4 47.9,68.4 47.9,68 48,68 48,67.9 47.7,68.1 					"/>
					<path class="st9" d="M48.2,68c0,0,0.1-0.1,0.1-0.1v0c0-0.1-0.1-0.1-0.1,0L48,67.9v0.4l0.1-0.1C48.2,68.2,48.3,68.1,48.2,68
						L48.2,68C48.3,68,48.2,68,48.2,68z M48.1,67.9L48.1,67.9c0.1-0.1,0.1-0.1,0.1,0v0c0,0,0,0.1-0.1,0.1l-0.1,0V67.9z M48.2,68.1
						c0,0.1,0,0.1-0.1,0.1l-0.1,0v-0.2L48.2,68.1C48.2,68,48.2,68,48.2,68.1L48.2,68.1z"/>
				</g>
			</g>
			<g>
				<g>
					<polygon class="st10" points="44.2,81 42.4,79.9 42.4,67.9 44.2,69 					"/>
					<polygon class="st12" points="44.2,69 42.4,67.9 44.2,66.8 46.1,67.9 					"/>
					<polygon class="st9" points="46.1,67.9 46.1,79.9 44.2,81 44.2,69 					"/>
				</g>
				<g>
					<polygon class="st12" points="45.8,79.8 44.6,80.5 44.5,70 45.8,69.3 					"/>
					<polygon class="st10" points="44.8,77.5 44.8,80.1 45.6,79.7 45.6,77.1 					"/>
				</g>
				<g>
					<g class="st0">
						<g>
							<polygon class="st13" points="45.1,77.6 45.7,77.3 46,78.5 45.4,78.8 							"/>
						</g>
						<g>
							<polygon class="st14" points="44.9,77.5 45.5,77.2 45.7,77.3 45.1,77.6 							"/>
						</g>
						<g>
							<polygon class="st15" points="45.1,77.6 45.4,78.8 44.9,78.8 44.9,77.5 							"/>
						</g>
					</g>
				</g>
				<polygon class="st10" points="44.3,70.7 46,69.7 46,68.4 44.3,69.3 				"/>
				<polygon class="st3" points="44.5,69.4 45.9,68.6 45.9,69.7 44.5,70.5 				"/>
				<polygon class="st13" points="44.5,69.8 45.9,69 45.9,68.6 44.5,69.4 				"/>
				<g>
					<polygon class="st9" points="44.9,69.7 44.9,69.7 44.8,69.9 44.8,69.9 44.9,69.8 44.9,70.1 44.8,70.1 44.8,70.2 45,70 45,70 
						44.9,70.1 					"/>
					<polygon class="st9" points="45.1,69.6 45.2,69.6 45.2,70 45.2,69.9 45.2,69.6 45.3,69.5 45.3,69.5 45.1,69.6 					"/>
					<path class="st9" d="M45.5,69.5c0,0,0.1-0.1,0.1-0.1v0c0-0.1-0.1-0.1-0.1,0l-0.1,0.1v0.4l0.1-0.1
						C45.5,69.7,45.6,69.7,45.5,69.5L45.5,69.5C45.6,69.5,45.6,69.5,45.5,69.5z M45.4,69.5L45.4,69.5c0.1-0.1,0.1-0.1,0.1,0v0
						c0,0,0,0.1-0.1,0.1l-0.1,0V69.5z M45.5,69.6c0,0.1,0,0.1-0.1,0.1l-0.1,0v-0.2L45.5,69.6C45.5,69.6,45.5,69.6,45.5,69.6
						L45.5,69.6z"/>
				</g>
			</g>
			<g>
				<g>
					<polygon class="st10" points="41.6,82.6 39.7,81.5 39.7,69.5 41.5,70.5 					"/>
					<polygon class="st12" points="41.5,70.5 39.7,69.5 41.6,68.4 43.4,69.5 					"/>
					<polygon class="st9" points="43.4,69.5 43.4,81.5 41.6,82.6 41.5,70.5 					"/>
				</g>
				<g>
					<polygon class="st12" points="43.1,81.4 41.9,82.1 41.9,71.6 43.1,70.9 					"/>
					<polygon class="st10" points="42.1,79 42.1,81.7 42.9,81.2 42.9,78.6 					"/>
				</g>
				<g>
					<g class="st0">
						<g>
							<polygon class="st13" points="42.4,79.2 43,78.8 43.3,80 42.7,80.4 							"/>
						</g>
						<g>
							<polygon class="st14" points="42.2,79.1 42.8,78.7 43,78.8 42.4,79.2 							"/>
						</g>
						<g>
							<polygon class="st15" points="42.4,79.2 42.7,80.4 42.2,80.3 42.2,79.1 							"/>
						</g>
					</g>
				</g>
				<polygon class="st10" points="41.6,72.2 43.3,71.3 43.3,69.9 41.6,70.9 				"/>
				<polygon class="st3" points="41.8,70.9 43.2,70.1 43.2,71.2 41.8,72 				"/>
				<polygon class="st13" points="41.8,71.4 43.2,70.6 43.2,70.1 41.8,70.9 				"/>
				<g>
					<polygon class="st9" points="42.2,71.2 42.2,71.2 42.1,71.4 42.1,71.4 42.2,71.3 42.2,71.6 42.1,71.7 42.1,71.7 42.3,71.6 
						42.3,71.5 42.2,71.6 					"/>
					<polygon class="st9" points="42.4,71.2 42.5,71.1 42.5,71.5 42.5,71.5 42.5,71.1 42.6,71 42.6,71 42.4,71.2 					"/>
					<path class="st9" d="M42.8,71.1c0,0,0.1-0.1,0.1-0.1v0c0-0.1-0.1-0.1-0.1,0L42.7,71v0.4l0.1-0.1C42.8,71.3,42.9,71.2,42.8,71.1
						L42.8,71.1C42.9,71.1,42.9,71.1,42.8,71.1z M42.7,71L42.7,71c0.1-0.1,0.1-0.1,0.1,0v0c0,0,0,0.1-0.1,0.1l-0.1,0V71z M42.9,71.2
						c0,0.1,0,0.1-0.1,0.1l-0.1,0v-0.2L42.9,71.2C42.8,71.1,42.9,71.1,42.9,71.2L42.9,71.2z"/>
				</g>
			</g>
		</g>
	</g>
	<g>
		<defs>
			<path id="SVGID_3_" d="M82.3,40.6L46,61.5c-0.5,0.3-1.2,0.3-1.7,0l-11.7-6.8c-0.5-0.3-0.5-0.7,0-1l36.2-20.9
				c0.5-0.3,1.2-0.3,1.7,0l11.7,6.8C82.7,39.9,82.7,40.3,82.3,40.6z M57,33.9l-11.7-6.8c-0.5-0.3-1.2-0.3-1.7,0l-20.9,12
				c-0.5,0.3-0.5,0.7,0,1l11.7,6.8c0.5,0.3,1.2,0.3,1.7,0l20.9-12C57.4,34.6,57.4,34.2,57,33.9z"/>
		</defs>
		<clipPath id="SVGID_4_">
			<use xlink:href="#SVGID_3_"  style="overflow:visible;"/>
		</clipPath>
		<path class="st16" d="M70.1,34.7c-0.3,0.1-0.7,0.1-0.9,0c-0.3-0.1-0.3-0.4,0-0.5c0.3-0.1,0.7-0.1,0.9,0
			C70.4,34.3,70.4,34.5,70.1,34.7z M34.4,54.7c-0.3-0.1-0.7-0.1-0.9,0c-0.3,0.1-0.3,0.4,0,0.5c0.3,0.1,0.7,0.1,0.9,0
			C34.7,55.1,34.7,54.9,34.4,54.7z M44.9,28.7c-0.3,0.1-0.7,0.1-0.9,0c-0.3-0.1-0.3-0.4,0-0.5c0.3-0.1,0.7-0.1,0.9,0
			C45.1,28.3,45.1,28.5,44.9,28.7z M24.2,40.1c-0.3-0.1-0.7-0.1-0.9,0c-0.3,0.1-0.3,0.4,0,0.5c0.3,0.1,0.7,0.1,0.9,0
			C24.5,40.5,24.5,40.2,24.2,40.1z M56.3,35.3c-0.3,0.1-0.7,0.1-0.9,0c-0.3-0.1-0.3-0.4,0-0.5c0.3-0.1,0.7-0.1,0.9,0
			C56.6,34.9,56.6,35.1,56.3,35.3z M35.7,46.7c-0.3-0.1-0.7-0.1-0.9,0c-0.3,0.1-0.3,0.4,0,0.5c0.3,0.1,0.7,0.1,0.9,0
			C35.9,47,35.9,46.8,35.7,46.7z M81.2,41.1c-0.3,0.1-0.7,0.1-0.9,0c-0.3-0.1-0.3-0.4,0-0.5c0.3-0.1,0.7-0.1,0.9,0
			C81.5,40.7,81.5,40.9,81.2,41.1z M45.5,61.1c-0.3-0.1-0.7-0.1-0.9,0c-0.3,0.1-0.3,0.4,0,0.5c0.3,0.1,0.7,0.1,0.9,0
			C45.8,61.5,45.8,61.3,45.5,61.1z"/>
	</g>
</g>
</svg>
