<?xml version="1.0" encoding="utf-8"?>
<!-- Generator: Adobe Illustrator 19.1.0, SVG Export Plug-In . SVG Version: 6.00 Build 0)  -->
<svg version="1.1" id="Layer_1" xmlns="http://www.w3.org/2000/svg" xmlns:xlink="http://www.w3.org/1999/xlink" x="0px" y="0px"
	 viewBox="0 0 100 100" style="enable-background:new 0 0 100 100;" xml:space="preserve">
<style type="text/css">
	.st0{fill:url(#SVGID_1_);}
	.st1{fill:#27292B;}
	.st2{fill:url(#SVGID_2_);}
	.st3{enable-background:new    ;}
	.st4{fill:#313436;}
	.st5{fill:#4C5053;}
	.st6{fill:#575C5F;}
	.st7{fill:#45494B;}
	.st8{opacity:0.7;}
	.st9{clip-path:url(#SVGID_4_);}
	.st10{opacity:0.3;fill:#3A3E40;}
	.st11{fill:url(#SVGID_5_);}
	.st12{fill:url(#SVGID_6_);}
	.st13{fill:url(#SVGID_7_);}
	.st14{fill:url(#SVGID_8_);}
	.st15{fill:url(#SVGID_9_);}
	.st16{fill:#72C93F;}
	.st17{fill:#20252B;}
	.st18{fill:url(#SVGID_10_);}
	.st19{opacity:0.4;clip-path:url(#SVGID_12_);fill:#A88038;}
	.st20{clip-path:url(#SVGID_12_);enable-background:new    ;}
	.st21{fill:#2C4D5E;}
	.st22{fill:#477C97;}
	.st23{fill:#3F6F87;}
	.st24{fill:#9BA3A8;}
	.st25{opacity:0.4;clip-path:url(#SVGID_14_);fill:#A88038;}
	.st26{clip-path:url(#SVGID_14_);enable-background:new    ;}
</style>
<g id="_x31_">
	<linearGradient id="SVGID_1_" gradientUnits="userSpaceOnUse" x1="41.6906" y1="95.0687" x2="52.2131" y2="95.0687">
		<stop  offset="0" style="stop-color:#27292B"/>
		<stop  offset="1" style="stop-color:#313436"/>
	</linearGradient>
	<path class="st0" d="M41.7,91.1l0,4.9c0,0.8,0.5,1.6,1.6,2.2c2.1,1.2,5.4,1.2,7.4,0c1-0.6,1.5-1.4,1.5-2.1l0-4.9H41.7z"/>
	<path class="st1" d="M2.5,68.5l0,4.9c0,0.8,0.5,1.6,1.6,2.2c2.1,1.2,5.4,1.2,7.4,0c1-0.6,1.5-1.4,1.5-2.1l0-4.9H2.5z"/>
	<linearGradient id="SVGID_2_" gradientUnits="userSpaceOnUse" x1="84.3455" y1="70.4626" x2="94.868" y2="70.4626">
		<stop  offset="0" style="stop-color:#27292B"/>
		<stop  offset="1" style="stop-color:#313436"/>
	</linearGradient>
	<path class="st2" d="M84.3,66.5l0,4.9c0,0.8,0.5,1.6,1.6,2.2c2.1,1.2,5.4,1.2,7.4,0c1-0.6,1.5-1.4,1.5-2.1l0-4.9H84.3z"/>
	<g>
		<g>
			<g class="st3">
				<path class="st4" d="M45.5,95.7l0-37.1L1.2,32.8l0,37.1c0,0.7,0.3,1.3,0.7,1.5l44.3,25.7C45.8,96.9,45.5,96.4,45.5,95.7z"/>
				<polygon class="st5" points="50.2,1.7 3.6,28.7 47.9,54.4 94.5,27.5 				"/>
				<g>
					<path class="st6" d="M51.9,1.6c-0.4-0.3-1-0.2-1.7,0.2l44.3,25.7c0.7-0.4,1.3-0.4,1.7-0.2L51.9,1.6z"/>
					<path class="st6" d="M1.2,32.8l44.3,25.7c0-1.5,1.1-3.3,2.4-4.1L3.6,28.7C2.2,29.4,1.2,31.3,1.2,32.8z"/>
				</g>
				<path class="st7" d="M96.9,28.8c0-1.5-1.1-2.1-2.4-1.4L47.9,54.4c-1.3,0.8-2.4,2.6-2.4,4.1l0,37.1c0,1.5,1.1,2.1,2.4,1.4
					l46.7-26.9c1.3-0.8,2.4-2.6,2.4-4.1L96.9,28.8z"/>
				<path class="st7" d="M56.3,49.6l-8.4,4.9c-1.3,0.8-2.4,2.6-2.4,4.1l0,37.1c0,1.5,1.1,2.1,2.4,1.4l8.4-4.8V49.6z"/>
			</g>
			<g class="st8">
				<defs>
					<polygon id="SVGID_3_" class="st8" points="93.9,44.6 56.6,66.1 56.6,88.4 93.9,66.9 					"/>
				</defs>
				<use xlink:href="#SVGID_3_"  style="overflow:visible;fill:#313436;"/>
				<clipPath id="SVGID_4_">
					<use xlink:href="#SVGID_3_"  style="overflow:visible;"/>
				</clipPath>
				<g class="st9">
					<polygon class="st10" points="62.8,83.6 56.6,87.2 56.6,65.2 62.8,61.6 					"/>
					<polygon class="st6" points="60.2,63.1 60.2,85.2 62.8,83.6 62.8,61.6 					"/>
					<polygon class="st10" points="59.3,63.6 56.6,65.2 56.6,87.2 59.3,85.7 					"/>
					<linearGradient id="SVGID_5_" gradientUnits="userSpaceOnUse" x1="59.7037" y1="62.2629" x2="59.7037" y2="86.5629">
						<stop  offset="0" style="stop-color:#434749"/>
						<stop  offset="0.7245" style="stop-color:#45494B"/>
					</linearGradient>
					<polygon class="st11" points="61.7,84.3 57.7,86.6 57.7,64.5 61.7,62.3 					"/>
				</g>
				<g class="st9">
					<polygon class="st10" points="70.3,79.4 64.1,83 64.1,61 70.3,57.4 					"/>
					<polygon class="st6" points="67.7,58.9 67.7,81 70.3,79.4 70.3,57.4 					"/>
					<polygon class="st10" points="66.8,59.4 64.1,61 64.1,83 66.8,81.5 					"/>
					<linearGradient id="SVGID_6_" gradientUnits="userSpaceOnUse" x1="67.2134" y1="58.0552" x2="67.2134" y2="82.3552">
						<stop  offset="0" style="stop-color:#434749"/>
						<stop  offset="0.7245" style="stop-color:#45494B"/>
					</linearGradient>
					<polygon class="st12" points="69.2,80.1 65.2,82.4 65.2,60.3 69.2,58.1 					"/>
				</g>
				<g class="st9">
					<polygon class="st10" points="77.8,75.2 71.6,78.8 71.6,56.8 77.8,53.2 					"/>
					<polygon class="st6" points="75.2,54.7 75.2,76.7 77.8,75.2 77.8,53.2 					"/>
					<polygon class="st10" points="74.3,55.2 71.6,56.8 71.6,78.8 74.3,77.3 					"/>
					<linearGradient id="SVGID_7_" gradientUnits="userSpaceOnUse" x1="74.7234" y1="53.8475" x2="74.7234" y2="78.1475">
						<stop  offset="0" style="stop-color:#434749"/>
						<stop  offset="0.7245" style="stop-color:#45494B"/>
					</linearGradient>
					<polygon class="st13" points="76.7,75.9 72.8,78.1 72.8,56.1 76.7,53.8 					"/>
				</g>
				<g class="st9">
					<polygon class="st10" points="85.3,71 79.1,74.6 79.1,52.6 85.3,49 					"/>
					<polygon class="st6" points="82.7,50.5 82.7,72.5 85.3,71 85.3,49 					"/>
					<polygon class="st10" points="81.8,51 79.1,52.6 79.1,74.6 81.8,73 					"/>
					<linearGradient id="SVGID_8_" gradientUnits="userSpaceOnUse" x1="82.2333" y1="49.6398" x2="82.2333" y2="73.9398">
						<stop  offset="0" style="stop-color:#434749"/>
						<stop  offset="0.7245" style="stop-color:#45494B"/>
					</linearGradient>
					<polygon class="st14" points="84.2,71.7 80.3,73.9 80.3,51.9 84.2,49.6 					"/>
				</g>
				<g class="st9">
					<polygon class="st10" points="92.8,66.8 86.6,70.4 86.6,48.4 92.8,44.8 					"/>
					<polygon class="st6" points="90.2,46.3 90.2,68.3 92.8,66.8 92.8,44.8 					"/>
					<polygon class="st10" points="89.3,46.8 86.6,48.4 86.6,70.4 89.3,68.8 					"/>
					<linearGradient id="SVGID_9_" gradientUnits="userSpaceOnUse" x1="89.7431" y1="45.4321" x2="89.7431" y2="69.7321">
						<stop  offset="0" style="stop-color:#434749"/>
						<stop  offset="0.7245" style="stop-color:#45494B"/>
					</linearGradient>
					<polygon class="st15" points="91.7,67.5 87.8,69.7 87.8,47.7 91.7,45.4 					"/>
				</g>
				<g class="st9">
					<g>
						<path class="st4" d="M60.6,82.1c0,0.5-0.4,1.1-0.9,1.4c-0.5,0.3-0.9,0.1-0.9-0.4c0-0.5,0.4-1.1,0.9-1.4
							C60.2,81.4,60.6,81.6,60.6,82.1z"/>
						<path class="st6" d="M59.7,81.8L59,82.6v0.8l0.7,0l0.7-0.8v-0.8H59.7z M60.3,82.6l-0.5,0.6h-0.5v-0.6l0.5-0.6l0.5,0V82.6z"/>
					</g>
					<g>
						<path class="st4" d="M68.2,77.8c0,0.5-0.4,1.1-0.9,1.4c-0.5,0.3-0.9,0.1-0.9-0.4c0-0.5,0.4-1.1,0.9-1.4
							C67.8,77.1,68.2,77.3,68.2,77.8z"/>
						<path class="st6" d="M67.3,77.5l-0.7,0.8v0.8h0.7l0.7-0.8v-0.8H67.3z M67.8,78.3l-0.5,0.6l-0.5,0v-0.6l0.5-0.6h0.5V78.3z"/>
					</g>
					<g>
						<path class="st4" d="M75.7,73.5c0,0.5-0.4,1.1-0.9,1.4c-0.5,0.3-0.9,0.1-0.9-0.4c0-0.5,0.4-1.1,0.9-1.4
							C75.3,72.8,75.7,73,75.7,73.5z"/>
						<path class="st6" d="M74.8,73.2L74.1,74v0.8h0.7l0.7-0.8v-0.8H74.8z M75.4,74l-0.5,0.6h-0.5V74l0.5-0.6h0.5V74z"/>
					</g>
					<g>
						<path class="st4" d="M83.3,69.2c0,0.5-0.4,1.1-0.9,1.4c-0.5,0.3-0.9,0.1-0.9-0.4c0-0.5,0.4-1.1,0.9-1.4
							C82.9,68.5,83.3,68.7,83.3,69.2z"/>
						<path class="st6" d="M82.4,68.9l-0.7,0.8v0.8h0.7l0.7-0.8v-0.8H82.4z M82.9,69.7l-0.5,0.6h-0.5v-0.6l0.5-0.6l0.5,0V69.7z"/>
					</g>
					<g>
						<path class="st4" d="M90.8,64.9c0,0.5-0.4,1.1-0.9,1.4c-0.5,0.3-0.9,0.1-0.9-0.4c0-0.5,0.4-1.1,0.9-1.4
							C90.4,64.2,90.8,64.4,90.8,64.9z"/>
						<path class="st6" d="M89.9,64.6l-0.7,0.8v0.8h0.7l0.7-0.8v-0.8L89.9,64.6z M90.4,65.4L89.9,66l-0.5,0v-0.6l0.5-0.6h0.5V65.4z"
							/>
					</g>
				</g>
			</g>
			<polygon class="st4" points="92.8,45.2 92.8,66.3 56.6,87.2 56.6,88.4 93.9,66.9 93.9,44.6 			"/>
			<g>
				<path class="st4" d="M90.3,48c0.1,0.2,0,0.5-0.2,0.7s-0.4,0.1-0.4-0.1c-0.1-0.2,0-0.5,0.2-0.7C90.1,47.7,90.2,47.8,90.3,48z"/>
				<path class="st4" d="M82.8,52.3c0.1,0.2,0,0.5-0.2,0.7c-0.2,0.2-0.4,0.1-0.4-0.1c-0.1-0.2,0-0.5,0.2-0.7S82.8,52.1,82.8,52.3z"
					/>
				<path class="st4" d="M75.3,56.6c0.1,0.2,0,0.5-0.2,0.7s-0.4,0.1-0.4-0.1c-0.1-0.2,0-0.5,0.2-0.7C75.1,56.4,75.3,56.4,75.3,56.6z
					"/>
				<path class="st4" d="M67.9,61c0.1,0.2,0,0.5-0.2,0.7c-0.2,0.2-0.4,0.1-0.4-0.1c-0.1-0.2,0-0.5,0.2-0.7
					C67.6,60.7,67.8,60.7,67.9,61z"/>
				<path class="st4" d="M60.4,65.3c0.1,0.2,0,0.5-0.2,0.7c-0.2,0.2-0.4,0.1-0.4-0.1c-0.1-0.2,0-0.5,0.2-0.7
					C60.2,65.1,60.3,65.1,60.4,65.3z"/>
				<path class="st16" d="M90.2,48.8c-0.1,0-0.3-0.1-0.4-0.2c-0.1-0.1-0.1-0.3,0-0.4c0.1-0.2,0.2-0.2,0.3-0.2c0.2,0,0.4,0.2,0.4,0.3
					c0,0.1,0,0.2,0,0.3C90.5,48.7,90.4,48.8,90.2,48.8C90.2,48.8,90.2,48.8,90.2,48.8L90.2,48.8z"/>
				<path class="st16" d="M82.7,53.1c-0.1,0-0.3-0.1-0.4-0.2c-0.1-0.1-0.1-0.3,0-0.4c0.1-0.2,0.2-0.2,0.3-0.2c0.2,0,0.4,0.2,0.4,0.3
					c0,0.1,0,0.2,0,0.3C83,53,82.9,53.1,82.7,53.1C82.8,53.1,82.7,53.1,82.7,53.1z"/>
				<path class="st16" d="M75.2,57.4c-0.1,0-0.3-0.1-0.4-0.2c-0.1-0.1-0.1-0.3,0-0.4c0.1-0.2,0.2-0.2,0.3-0.2c0.2,0,0.4,0.2,0.4,0.3
					c0,0.1,0,0.2,0,0.3C75.5,57.3,75.4,57.4,75.2,57.4C75.3,57.4,75.3,57.4,75.2,57.4L75.2,57.4z"/>
				<path class="st16" d="M67.8,61.8c-0.1,0-0.3-0.1-0.4-0.2c-0.1-0.1-0.1-0.3,0-0.4c0.1-0.2,0.2-0.2,0.3-0.2c0.2,0,0.4,0.2,0.4,0.3
					c0,0.1,0,0.2,0,0.3C68.1,61.7,68,61.7,67.8,61.8C67.8,61.8,67.8,61.8,67.8,61.8L67.8,61.8z"/>
				<path class="st16" d="M60.3,66.1c-0.1,0-0.3-0.1-0.4-0.2c-0.1-0.1-0.1-0.3,0-0.4c0.1-0.2,0.2-0.2,0.3-0.2c0.2,0,0.4,0.2,0.4,0.3
					c0,0.1,0,0.2,0,0.3C60.6,66,60.5,66.1,60.3,66.1C60.3,66.1,60.3,66.1,60.3,66.1z"/>
			</g>
		</g>
		<polygon class="st17" points="93.9,29.5 56.4,51.1 56.4,64.6 93.9,43 		"/>
		<path class="st4" d="M53.4,57.5c0,1.4-1.1,3.2-2.6,4c-1.4,0.8-2.6,0.3-2.6-1.1c0-1.4,1.1-3.2,2.6-4C52.2,55.6,53.4,56.1,53.4,57.5
			z"/>
		<linearGradient id="SVGID_10_" gradientUnits="userSpaceOnUse" x1="49.9444" y1="57.5417" x2="51.6505" y2="60.4968">
			<stop  offset="0" style="stop-color:#555A5D"/>
			<stop  offset="0.3608" style="stop-color:#4E5255"/>
			<stop  offset="1" style="stop-color:#45494B"/>
		</linearGradient>
		<path class="st18" d="M52.9,57.8c0,1.2-1,2.7-2.1,3.4c-1.2,0.7-2.1,0.3-2.1-0.9c0-1.2,1-2.7,2.1-3.4C52,56.2,52.9,56.6,52.9,57.8z
			"/>
		<g>
			<polygon class="st4" points="53.6,90.1 48.9,92.8 48.9,90.8 53.6,88.1 			"/>
			<g>
				<defs>
					<polygon id="SVGID_11_" points="53.3,90.2 49.2,92.5 49.2,91 53.3,88.6 					"/>
				</defs>
				<clipPath id="SVGID_12_">
					<use xlink:href="#SVGID_11_"  style="overflow:visible;"/>
				</clipPath>
				<path class="st19" d="M48.6,91.1l-0.4,0.2l1.3,0.8l0.4-0.2L48.6,91.1z M49.5,90.7l-0.4,0.2l1.3,0.8l0.4-0.2L49.5,90.7z
					 M50.3,90.2l-0.4,0.2l1.3,0.8l0.4-0.2L50.3,90.2z M51.1,89.7L50.7,90l1.3,0.8l0.4-0.2L51.1,89.7z M51.9,89.3l-0.4,0.2l1.3,0.8
					l0.4-0.2L51.9,89.3z"/>
				<g class="st20">
					<g>
						<polygon class="st21" points="49.1,91.7 47.9,91 47.9,90.5 49.1,91.2 						"/>
					</g>
					<g>
						<polygon class="st22" points="49.1,91.2 47.9,90.5 51.9,88.2 53.1,88.9 						"/>
					</g>
					<g>
						<polygon class="st23" points="53.1,88.9 53.1,89.4 49.1,91.7 49.1,91.2 						"/>
					</g>
				</g>
			</g>
			<g>
				<polygon class="st24" points="48.9,92.3 48.9,91.2 49.2,91.1 49.2,92.2 				"/>
				<polygon class="st24" points="53.3,89.8 53.3,88.7 53.6,88.5 53.6,89.6 				"/>
			</g>
			<g>
				<polygon class="st24" points="53.2,88.6 49.3,90.9 49.3,90.6 53.2,88.4 				"/>
				<polygon class="st24" points="53.2,90.2 49.3,92.5 49.3,92.2 53.2,90 				"/>
			</g>
		</g>
		<g>
			<polygon class="st4" points="53.6,86.2 48.9,88.9 48.9,86.9 53.6,84.1 			"/>
			<g>
				<defs>
					<polygon id="SVGID_13_" points="53.3,86.2 49.2,88.6 49.2,87 53.3,84.7 					"/>
				</defs>
				<clipPath id="SVGID_14_">
					<use xlink:href="#SVGID_13_"  style="overflow:visible;"/>
				</clipPath>
				<path class="st25" d="M48.6,87.2l-0.4,0.2l1.3,0.8L50,88L48.6,87.2z M49.5,86.8L49.1,87l1.3,0.8l0.4-0.2L49.5,86.8z M50.3,86.3
					l-0.4,0.2l1.3,0.8l0.4-0.2L50.3,86.3z M51.1,85.8L50.7,86l1.3,0.8l0.4-0.2L51.1,85.8z M51.9,85.4l-0.4,0.2l1.3,0.8l0.4-0.2
					L51.9,85.4z"/>
				<g class="st26">
					<g>
						<polygon class="st21" points="49.1,87.8 47.9,87.1 47.9,86.6 49.1,87.3 						"/>
					</g>
					<g>
						<polygon class="st22" points="49.1,87.3 47.9,86.6 51.9,84.3 53.1,85 						"/>
					</g>
					<g>
						<polygon class="st23" points="53.1,85 53.1,85.5 49.1,87.8 49.1,87.3 						"/>
					</g>
				</g>
			</g>
			<g>
				<polygon class="st24" points="48.9,88.4 48.9,87.3 49.2,87.2 49.2,88.3 				"/>
				<polygon class="st24" points="53.3,85.9 53.3,84.8 53.6,84.6 53.6,85.7 				"/>
			</g>
			<g>
				<polygon class="st24" points="53.2,84.7 49.3,87 49.3,86.7 53.2,84.4 				"/>
				<polygon class="st24" points="53.2,86.3 49.3,88.6 49.3,88.3 53.2,86 				"/>
			</g>
		</g>
		<g>
			<path class="st16" d="M59.5,56.4c0,0.3-0.2,0.6-0.5,0.8c-0.3,0.2-0.5,0.1-0.5-0.2c0-0.3,0.2-0.6,0.5-0.8
				C59.3,56,59.5,56.1,59.5,56.4z"/>
			<path class="st16" d="M61.9,55c0,0.3-0.2,0.6-0.5,0.8c-0.3,0.2-0.5,0.1-0.5-0.2c0-0.3,0.2-0.6,0.5-0.8
				C61.7,54.6,61.9,54.7,61.9,55z"/>
			<path class="st16" d="M64.4,53.6c0,0.3-0.2,0.6-0.5,0.8c-0.3,0.2-0.5,0.1-0.5-0.2c0-0.3,0.2-0.6,0.5-0.8
				C64.2,53.2,64.4,53.3,64.4,53.6z"/>
			<path class="st16" d="M66.8,52.2c0,0.3-0.2,0.6-0.5,0.8c-0.3,0.2-0.5,0.1-0.5-0.2c0-0.3,0.2-0.6,0.5-0.8
				C66.6,51.8,66.8,51.9,66.8,52.2z"/>
			<path class="st16" d="M69.3,50.7c0,0.3-0.2,0.6-0.5,0.8c-0.3,0.2-0.5,0.1-0.5-0.2c0-0.3,0.2-0.6,0.5-0.8
				C69,50.4,69.3,50.5,69.3,50.7z"/>
			<path class="st16" d="M71.7,49.3c0,0.3-0.2,0.6-0.5,0.8c-0.3,0.2-0.5,0.1-0.5-0.2c0-0.3,0.2-0.6,0.5-0.8
				C71.5,49,71.7,49.1,71.7,49.3z"/>
		</g>
	</g>
</g>
</svg>
